<svg width="268" height="268" viewBox="0 0 268 268" fill="none" xmlns="http://www.w3.org/2000/svg">
<rect width="268" height="268" rx="134" fill="#E0D6F6"/>
<path d="M164.51 152.672C162.396 152.672 160.342 153.381 158.671 154.687C157 155.994 155.807 157.823 155.28 159.887V159.989H155.168L137.37 156.947H137.247V156.834C137.414 156.13 137.5 155.409 137.504 154.685C137.502 152.848 136.977 151.05 135.99 149.505V149.437V149.369L145.938 135.029V134.95H146.017C147.061 135.342 148.166 135.545 149.28 135.549C150.773 135.552 152.247 135.203 153.582 134.528C154.917 133.854 156.077 132.873 156.968 131.665C157.86 130.457 158.458 129.055 158.715 127.571C158.972 126.088 158.88 124.564 158.448 123.123C158.015 121.681 157.254 120.362 156.224 119.271C155.195 118.18 153.926 117.348 152.52 116.84C151.114 116.333 149.61 116.165 148.128 116.35C146.646 116.535 145.228 117.068 143.987 117.906H143.919L143.852 117.849L136.136 110.555H136.069V110.475C136.807 109.199 137.245 107.769 137.347 106.295C137.449 104.821 137.213 103.343 136.657 101.975C136.102 100.608 135.241 99.388 134.143 98.4099C133.045 97.4319 131.738 96.722 130.323 96.3354C128.909 95.9487 127.426 95.8956 125.988 96.1802C124.55 96.4648 123.196 97.0795 122.032 97.9765C120.868 98.8736 119.924 100.029 119.273 101.353C118.623 102.677 118.284 104.135 118.282 105.612C118.264 107.218 118.65 108.801 119.404 110.215V110.306L119.325 110.362L109.692 117.261H109.624H109.557C107.87 115.881 105.763 115.13 103.591 115.135C101.511 115.13 99.4856 115.808 97.8223 117.068C96.159 118.327 94.9481 120.099 94.373 122.115C93.7978 124.13 93.8899 126.28 94.6351 128.239C95.3803 130.197 96.7381 131.857 98.5029 132.967C100.268 134.077 102.343 134.577 104.415 134.391C106.487 134.205 108.442 133.343 109.984 131.936C111.527 130.529 112.572 128.653 112.963 126.593C113.353 124.532 113.067 122.4 112.148 120.518V120.428L112.226 120.371L122.319 113.359H122.387L122.454 113.416C124.051 114.6 125.976 115.252 127.958 115.28C129.94 115.308 131.882 114.712 133.512 113.574H133.579L133.647 113.642L141.306 120.88L141.374 120.937V121.016C140.261 122.83 139.778 124.966 140.002 127.087C140.225 129.209 141.142 131.195 142.607 132.733L142.675 132.801V132.88L133.243 146.474L133.187 146.565H133.097C131.539 145.578 129.731 145.067 127.892 145.093C126.052 145.118 124.26 145.679 122.729 146.708C121.198 147.737 119.995 149.191 119.264 150.893C118.534 152.596 118.307 154.475 118.61 156.305C118.914 158.134 119.735 159.837 120.976 161.207C122.216 162.576 123.823 163.556 125.602 164.026C127.382 164.497 129.258 164.438 131.006 163.859C132.753 163.279 134.297 162.202 135.452 160.758L155 164.083H155.078V164.162C155.415 165.958 156.251 167.62 157.489 168.953C158.727 170.287 160.317 171.238 162.071 171.695C163.825 172.151 165.672 172.095 167.396 171.532C169.12 170.969 170.649 169.923 171.805 168.516C172.961 167.109 173.696 165.399 173.924 163.587C174.152 161.774 173.864 159.933 173.093 158.28C172.322 156.626 171.1 155.228 169.57 154.249C168.04 153.27 166.266 152.751 164.454 152.751L164.51 152.672ZM103.546 130.414C102.437 130.414 101.353 130.083 100.43 129.461C99.5083 128.84 98.7896 127.957 98.3652 126.924C97.9407 125.89 97.8297 124.753 98.0461 123.656C98.2624 122.559 98.7965 121.552 99.5807 120.761C100.365 119.97 101.364 119.432 102.452 119.213C103.54 118.995 104.667 119.107 105.692 119.535C106.716 119.963 107.592 120.688 108.208 121.618C108.824 122.548 109.153 123.641 109.153 124.76C109.153 125.502 109.008 126.238 108.726 126.924C108.445 127.61 108.032 128.233 107.511 128.758C106.99 129.283 106.372 129.7 105.692 129.984C105.011 130.268 104.282 130.414 103.546 130.414ZM127.972 111.256C126.863 111.256 125.779 110.924 124.856 110.303C123.934 109.681 123.216 108.798 122.791 107.765C122.367 106.732 122.256 105.595 122.472 104.498C122.688 103.401 123.223 102.393 124.007 101.602C124.791 100.812 125.79 100.273 126.878 100.055C127.966 99.8367 129.093 99.9486 130.118 100.377C131.142 100.805 132.018 101.529 132.634 102.459C133.25 103.389 133.579 104.483 133.579 105.601C133.579 107.101 132.988 108.539 131.937 109.6C130.885 110.66 129.459 111.256 127.972 111.256ZM149.359 120.304C150.468 120.304 151.552 120.635 152.474 121.257C153.396 121.878 154.115 122.761 154.539 123.794C154.964 124.828 155.075 125.965 154.858 127.062C154.642 128.159 154.108 129.166 153.324 129.957C152.539 130.748 151.54 131.286 150.453 131.505C149.365 131.723 148.237 131.611 147.213 131.183C146.188 130.755 145.312 130.03 144.696 129.1C144.08 128.17 143.751 127.077 143.751 125.958C143.747 125.213 143.888 124.474 144.168 123.784C144.448 123.094 144.86 122.467 145.382 121.938C145.903 121.409 146.522 120.99 147.205 120.703C147.887 120.417 148.619 120.27 149.359 120.27V120.304ZM127.972 160.306C126.863 160.306 125.779 159.974 124.856 159.353C123.934 158.731 123.216 157.848 122.791 156.815C122.367 155.782 122.256 154.645 122.472 153.548C122.688 152.451 123.223 151.443 124.007 150.652C124.791 149.862 125.79 149.323 126.878 149.105C127.966 148.887 129.093 148.999 130.118 149.427C131.142 149.855 132.018 150.579 132.634 151.509C133.25 152.439 133.579 153.533 133.579 154.651C133.579 156.151 132.988 157.589 131.937 158.65C130.885 159.71 129.459 160.306 127.972 160.306ZM164.51 167.951C163.401 167.951 162.317 167.619 161.395 166.998C160.472 166.377 159.754 165.494 159.329 164.46C158.905 163.427 158.794 162.29 159.01 161.193C159.227 160.096 159.761 159.089 160.545 158.298C161.329 157.507 162.328 156.968 163.416 156.75C164.504 156.532 165.631 156.644 166.656 157.072C167.68 157.5 168.556 158.225 169.172 159.155C169.788 160.085 170.117 161.178 170.117 162.296C170.117 163.796 169.527 165.234 168.475 166.295C167.423 167.355 165.997 167.951 164.51 167.951Z" fill="#1C1917"/>
</svg>
