<svg width="269" height="268" viewBox="0 0 269 268" fill="none" xmlns="http://www.w3.org/2000/svg">
<rect x="0.666626" width="268" height="268" rx="134" fill="#F9DBAF"/>
<path fill-rule="evenodd" clip-rule="evenodd" d="M154.763 158.81C154.763 158.81 154.763 158.81 154.763 158.81C154.763 158.809 154.764 158.809 154.764 158.808C154.764 158.809 154.763 158.809 154.763 158.81ZM161.018 146.996H109.848V150.203C109.848 151.053 110.185 151.869 110.786 152.47C111.387 153.071 112.203 153.409 113.053 153.409H164.333C166.368 153.409 168.357 154.013 170.05 155.144C171.742 156.276 173.061 157.883 173.839 159.765C174.618 161.646 174.822 163.716 174.425 165.713C174.028 167.71 173.048 169.545 171.609 170.985C170.17 172.424 168.336 173.405 166.34 173.802C164.345 174.199 162.276 173.996 160.396 173.216C158.515 172.437 156.908 171.118 155.778 169.425C154.647 167.732 154.044 165.742 154.044 163.706C154.051 161.894 154.549 160.117 155.483 158.565L155.944 157.797H129.539L130 158.565C130.934 160.117 131.431 161.893 131.439 163.705C131.439 166.435 130.355 169.054 128.426 170.985C126.496 172.915 123.879 174 121.15 174C118.421 174 115.804 172.915 113.874 170.985C111.945 169.055 110.861 166.438 110.86 163.708C110.888 161.892 111.403 160.117 112.351 158.568L112.754 157.91L111.99 157.802C110.167 157.545 108.499 156.632 107.298 155.235C106.097 153.837 105.444 152.051 105.462 150.208V98.3882H96.8593C96.2778 98.3882 95.7201 98.1571 95.3089 97.7456C94.8977 97.3342 94.6666 96.7761 94.6666 96.1941C94.6666 95.6121 94.8977 95.054 95.3089 94.6425C95.7201 94.2311 96.2778 94 96.8593 94H107.655C108.237 94 108.794 94.2311 109.205 94.6425C109.617 95.054 109.848 95.6121 109.848 96.1941V104.802L167.032 104.802L167.034 104.802C168.181 104.796 169.314 105.051 170.348 105.546C171.382 106.042 172.291 106.766 173.006 107.663C173.708 108.541 174.205 109.565 174.464 110.659C174.722 111.754 174.734 112.891 174.499 113.991L174.499 113.992L168.617 140.989L168.616 140.992C168.223 142.709 167.256 144.24 165.874 145.332C164.492 146.424 162.779 147.011 161.018 146.996ZM170.252 111.677C170.142 111.224 169.934 110.801 169.644 110.437C169.336 110.038 168.938 109.716 168.483 109.5C168.028 109.283 167.529 109.177 167.025 109.19H109.848V142.608H161.17C161.913 142.623 162.639 142.379 163.222 141.918C163.807 141.456 164.212 140.804 164.369 140.076L164.369 140.074L170.28 113.072L170.282 113.062C170.373 112.604 170.363 112.131 170.252 111.677ZM126.059 166.986C126.708 166.015 127.054 164.873 127.054 163.705C127.054 162.138 126.432 160.636 125.325 159.528C124.218 158.42 122.716 157.797 121.15 157.797C119.982 157.797 118.84 158.144 117.87 158.793C116.899 159.442 116.142 160.365 115.695 161.444C115.248 162.524 115.131 163.711 115.359 164.857C115.587 166.003 116.149 167.055 116.975 167.882C117.801 168.708 118.853 169.27 119.998 169.498C121.143 169.726 122.33 169.609 123.409 169.162C124.488 168.715 125.41 167.958 126.059 166.986ZM161.053 168.616C162.024 169.265 163.165 169.612 164.333 169.612C165.899 169.612 167.401 168.989 168.508 167.882C169.615 166.774 170.237 165.271 170.237 163.705C170.237 162.536 169.891 161.394 169.242 160.423C168.594 159.451 167.672 158.694 166.593 158.247C165.514 157.8 164.327 157.683 163.181 157.911C162.036 158.139 160.984 158.702 160.158 159.528C159.332 160.354 158.77 161.406 158.542 162.552C158.315 163.698 158.431 164.886 158.878 165.965C159.325 167.044 160.082 167.967 161.053 168.616Z" fill="#1C1917"/>
</svg>
