<svg width="269" height="268" viewBox="0 0 269 268" fill="none" xmlns="http://www.w3.org/2000/svg">
<rect x="0.333328" width="268" height="268" rx="134" fill="#B2DDFF"/>
<path fill-rule="evenodd" clip-rule="evenodd" d="M174.333 161.71C174.332 160.323 173.826 158.984 172.91 157.944C171.994 156.903 170.731 156.232 169.356 156.055C169.117 156.039 168.878 156.039 168.639 156.055C167.492 156.066 166.374 156.423 165.433 157.08C164.493 157.737 163.772 158.663 163.366 159.737L163.261 160.011H161.152V147.204C161.154 146.975 161.108 146.748 161.015 146.539C160.928 146.328 160.803 146.135 160.646 145.969C160.478 145.813 160.285 145.684 160.076 145.59C159.865 145.505 159.639 145.462 159.412 145.463H156.67L157.092 144.809C159.839 140.522 161.806 135.782 162.902 130.809L162.976 130.482H166.846V132.592L166.572 132.698C165.474 133.102 164.53 133.84 163.872 134.808C163.292 135.664 162.956 136.663 162.9 137.696C162.844 138.73 163.071 139.759 163.555 140.673C164.04 141.587 164.764 142.352 165.651 142.886C166.537 143.419 167.552 143.701 168.586 143.701C169.621 143.701 170.635 143.419 171.522 142.886C172.408 142.352 173.132 141.587 173.617 140.673C174.102 139.759 174.328 138.73 174.272 137.696C174.216 136.663 173.88 135.664 173.3 134.808C172.64 133.842 171.697 133.105 170.6 132.698L170.326 132.592V128.742C170.329 128.513 170.282 128.286 170.189 128.077C170.103 127.866 169.978 127.673 169.82 127.507C169.652 127.351 169.46 127.222 169.251 127.128C169.039 127.043 168.814 127 168.586 127.001H163.567V126.537C163.665 125.517 163.718 124.494 163.725 123.467C163.719 118.78 162.598 114.163 160.456 109.995L160.129 109.383H168.565C168.794 109.386 169.02 109.339 169.229 109.246C169.443 109.164 169.637 109.038 169.799 108.877C169.961 108.715 170.086 108.521 170.168 108.307C170.261 108.098 170.308 107.871 170.305 107.642V105.142L170.579 105.036C171.676 104.629 172.619 103.892 173.279 102.927C173.859 102.07 174.195 101.071 174.251 100.038C174.307 99.0047 174.081 97.9757 173.596 97.0615C173.111 96.1472 172.387 95.3823 171.501 94.8488C170.614 94.3153 169.6 94.0335 168.565 94.0335C167.531 94.0335 166.516 94.3153 165.63 94.8488C164.743 95.3823 164.019 96.1472 163.534 97.0615C163.05 97.9757 162.823 99.0047 162.879 100.038C162.935 101.071 163.271 102.07 163.851 102.927C164.509 103.895 165.453 104.633 166.551 105.036L166.825 105.142V105.859H166.403H157.936L157.809 105.691C155.348 102.434 152.235 99.7266 148.669 97.7412C145.103 95.7559 141.162 94.5361 137.098 94.1597C136.191 94.0753 135.263 94.012 134.357 94.012C127.542 94.0222 120.941 96.3973 115.681 100.732L114.996 101.302V99.73C114.998 99.5012 114.951 99.2745 114.858 99.0654C114.772 98.854 114.647 98.6608 114.489 98.4957C114.321 98.3389 114.129 98.2106 113.92 98.1159C113.709 98.0314 113.483 97.9884 113.256 97.9893H105.484L105.378 97.715C104.96 96.6329 104.215 95.7077 103.248 95.067C102.314 94.4002 101.2 94.0324 100.053 94.012C99.8142 93.996 99.5747 93.996 99.3359 94.012C97.9558 94.181 96.6851 94.8494 95.7636 95.891C94.8421 96.9327 94.3333 98.2757 94.3333 99.6667C94.3333 101.058 94.8421 102.401 95.7636 103.442C96.6851 104.484 97.9558 105.152 99.3359 105.321H100.053C101.2 105.31 102.318 104.953 103.258 104.296C104.199 103.639 104.92 102.713 105.326 101.639L105.431 101.365H111.463V104.815L111.368 104.931C107.15 110.184 104.868 116.729 104.904 123.467C105.095 130.541 107.111 137.446 110.756 143.511L111.136 144.155H101.814V142.045L102.088 141.939C103.185 141.532 104.128 140.795 104.788 139.829C105.368 138.973 105.704 137.974 105.76 136.941C105.816 135.908 105.59 134.879 105.105 133.964C104.62 133.05 103.896 132.285 103.01 131.752C102.123 131.218 101.108 130.936 100.074 130.936C99.0397 130.936 98.0248 131.218 97.1385 131.752C96.2522 132.285 95.5278 133.05 95.0432 133.964C94.5586 134.879 94.3321 135.908 94.388 136.941C94.4439 137.974 94.78 138.973 95.3604 139.829C96.0178 140.798 96.9619 141.536 98.0599 141.939L98.3341 142.045V145.864C98.3333 146.092 98.3762 146.317 98.4607 146.529C98.5554 146.738 98.6836 146.93 98.8403 147.098C99.0054 147.256 99.1985 147.381 99.4097 147.467C99.6188 147.56 99.8454 147.607 100.074 147.605H113.572L113.698 147.773C114.173 148.396 114.595 148.913 115.017 149.409C115.555 150.041 116.051 150.707 116.503 151.403L116.925 152.057H110.598C110.371 152.056 110.145 152.099 109.934 152.183C109.721 152.271 109.527 152.4 109.364 152.563C109.201 152.726 109.072 152.919 108.985 153.133C108.9 153.344 108.857 153.57 108.858 153.797V162.585H106.749L106.644 162.311C106.24 161.212 105.502 160.268 104.535 159.61C103.601 158.976 102.5 158.634 101.371 158.629C101.132 158.613 100.893 158.613 100.654 158.629C99.2455 158.769 97.9395 159.429 96.9908 160.48C96.042 161.531 95.5186 162.898 95.5226 164.314C95.5265 165.73 96.0576 167.094 97.0121 168.14C97.9667 169.185 99.2763 169.838 100.686 169.97H101.403C102.55 169.959 103.667 169.602 104.608 168.945C105.549 168.288 106.27 167.362 106.675 166.288L106.781 166.014H110.598C110.827 166.016 111.053 165.97 111.263 165.877C111.476 165.795 111.67 165.669 111.832 165.508C111.994 165.346 112.12 165.152 112.201 164.938C112.294 164.729 112.341 164.502 112.338 164.273V155.538H118.507L118.602 155.833C119.122 157.45 119.392 159.136 119.403 160.834V161.235L119.287 161.351C118.832 161.828 118.49 162.401 118.286 163.028C118.054 163.774 118.022 164.566 118.191 165.328C118.359 166.084 118.723 166.782 119.245 167.354C119.605 167.733 120.03 168.044 120.5 168.272L120.785 168.409L120.732 168.715C120.698 168.931 120.681 169.15 120.679 169.369V169.875C120.685 170.967 121.121 172.013 121.893 172.786C122.665 173.558 123.711 173.994 124.803 174H143.784C144.876 173.994 145.921 173.558 146.693 172.786C147.465 172.013 147.902 170.967 147.907 169.875V169.369C147.907 169.149 147.886 168.93 147.844 168.715V168.409L148.129 168.272C148.602 168.044 149.031 167.733 149.394 167.354C149.921 166.785 150.285 166.086 150.448 165.328C150.63 164.568 150.598 163.771 150.354 163.028C150.153 162.402 149.814 161.828 149.362 161.351L149.246 161.235V160.823C149.301 156.621 150.861 152.578 153.644 149.43L153.918 149.103L154.044 148.944H157.63V161.71C157.629 161.937 157.672 162.163 157.756 162.374C157.851 162.584 157.979 162.776 158.136 162.944C158.301 163.102 158.494 163.227 158.705 163.313C158.914 163.406 159.141 163.453 159.37 163.45H163.187L163.293 163.725C163.698 164.798 164.419 165.724 165.36 166.381C166.301 167.038 167.418 167.396 168.565 167.406H169.282C170.657 167.23 171.92 166.558 172.836 165.518C173.752 164.477 174.258 163.138 174.26 161.752L174.333 161.71ZM167.384 136.127C167.75 135.884 168.179 135.756 168.618 135.757C169.205 135.757 169.768 135.991 170.184 136.406C170.599 136.822 170.832 137.385 170.832 137.973C170.838 138.414 170.705 138.845 170.453 139.207C170.21 139.57 169.865 139.853 169.461 140.019C169.194 140.129 168.907 140.186 168.618 140.188C168.474 140.204 168.329 140.204 168.185 140.188C167.865 140.124 167.562 139.99 167.3 139.795C167.037 139.6 166.821 139.349 166.667 139.061C166.512 138.772 166.424 138.453 166.408 138.126C166.391 137.8 166.447 137.473 166.572 137.171C166.731 136.749 167.014 136.385 167.384 136.127ZM166.403 99.73C166.403 99.717 166.403 99.7039 166.403 99.6909V99.73ZM166.403 99.6907C166.407 99.2649 166.535 98.8491 166.773 98.4948C167.017 98.1296 167.366 97.8468 167.774 97.6833C168.041 97.5697 168.328 97.5122 168.618 97.5145C168.762 97.4989 168.906 97.4989 169.05 97.5145C169.478 97.6007 169.872 97.8116 170.18 98.1208C170.489 98.4299 170.699 98.8235 170.785 99.252C170.871 99.6805 170.828 100.125 170.662 100.529C170.496 100.933 170.214 101.279 169.852 101.523C169.49 101.776 169.059 101.909 168.618 101.903C168.031 101.903 167.467 101.67 167.052 101.254C166.637 100.84 166.404 100.277 166.403 99.6907ZM101.635 101.291C101.432 101.499 101.189 101.664 100.921 101.777C100.653 101.889 100.365 101.946 100.074 101.945C99.6332 101.951 99.2018 101.818 98.8403 101.566C98.4759 101.321 98.1921 100.975 98.0251 100.569C97.858 100.163 97.8151 99.717 97.9018 99.2869C97.9844 98.8587 98.1933 98.4651 98.5015 98.1568C98.8097 97.8484 99.2032 97.6394 99.6312 97.5567C99.7748 97.5406 99.9199 97.5406 100.064 97.5567C100.353 97.5544 100.641 97.6119 100.907 97.7255C101.311 97.8921 101.656 98.1749 101.898 98.5379C102.177 98.9574 102.303 99.46 102.255 99.9614C102.207 100.463 101.988 100.932 101.635 101.291ZM101.308 138.49C100.946 138.742 100.515 138.875 100.074 138.869C99.6736 138.867 99.2812 138.757 98.9382 138.55C98.5952 138.343 98.3145 138.047 98.1255 137.694C97.9365 137.341 97.8464 136.943 97.8645 136.543C97.8827 136.142 98.0085 135.754 98.2287 135.42C98.4737 135.059 98.818 134.777 99.2199 134.607C99.4903 134.494 99.7809 134.436 100.074 134.439C100.218 134.423 100.363 134.423 100.506 134.439C100.935 134.525 101.328 134.736 101.637 135.045C101.945 135.354 102.156 135.748 102.241 136.176C102.327 136.605 102.284 137.049 102.118 137.453C101.952 137.857 101.67 138.203 101.308 138.447V138.49ZM102.953 165.919C102.75 166.127 102.507 166.292 102.239 166.404C101.971 166.517 101.683 166.574 101.392 166.573C100.951 166.579 100.52 166.446 100.158 166.193C99.7959 165.95 99.5134 165.605 99.3464 165.201C99.1795 164.797 99.1354 164.354 99.2199 163.925C99.3014 163.493 99.511 163.097 99.8214 162.786C100.132 162.475 100.529 162.266 100.96 162.184C101.104 162.168 101.249 162.168 101.392 162.184C101.682 162.182 101.969 162.239 102.236 162.353C102.639 162.52 102.984 162.802 103.227 163.165C103.515 163.59 103.646 164.102 103.596 164.613C103.546 165.124 103.318 165.601 102.953 165.961V165.919ZM144.469 169.886C144.467 170.056 144.399 170.218 144.28 170.339C144.158 170.457 143.996 170.525 143.826 170.529H124.845C124.674 170.529 124.511 170.461 124.39 170.341C124.269 170.22 124.201 170.056 124.201 169.886V169.379C124.201 169.209 124.269 169.045 124.39 168.924C124.511 168.803 124.674 168.736 124.845 168.736H143.826C143.911 168.735 143.994 168.752 144.072 168.785C144.15 168.817 144.22 168.865 144.28 168.926C144.399 169.046 144.467 169.209 144.469 169.379V169.886ZM146.842 164.991C146.759 165.074 146.661 165.141 146.552 165.186C146.444 165.231 146.327 165.255 146.209 165.254H122.483C122.245 165.254 122.017 165.16 121.849 164.992C121.681 164.823 121.586 164.595 121.586 164.358C121.586 164.12 121.681 163.892 121.849 163.723C122.017 163.555 122.245 163.461 122.483 163.461H146.209C146.386 163.461 146.559 163.514 146.706 163.613C146.853 163.711 146.968 163.851 147.035 164.015C147.103 164.178 147.121 164.358 147.086 164.532C147.052 164.706 146.967 164.865 146.842 164.991ZM151.06 147.162C148.03 150.633 146.206 154.993 145.861 159.589V159.979H122.883V159.589C122.548 154.991 120.723 150.628 117.685 147.162C111.993 140.549 108.73 132.189 108.436 123.467C108.436 116.584 111.169 109.983 116.034 105.116C120.899 100.249 127.498 97.5145 134.378 97.5145C141.258 97.5145 147.856 100.249 152.721 105.116C157.586 109.983 160.319 116.584 160.319 123.467C160.013 132.191 156.735 140.548 151.028 147.151L151.06 147.162ZM170.79 162.142C170.7 162.57 170.487 162.962 170.178 163.271C169.869 163.58 169.477 163.792 169.05 163.883C168.906 163.898 168.762 163.898 168.618 163.883C168.328 163.881 168.042 163.824 167.774 163.714C167.437 163.575 167.139 163.356 166.907 163.074C166.674 162.793 166.515 162.458 166.444 162.1C166.372 161.742 166.39 161.372 166.495 161.023C166.601 160.674 166.791 160.356 167.049 160.098C167.307 159.84 167.625 159.649 167.974 159.544C168.323 159.438 168.693 159.42 169.051 159.492C169.408 159.564 169.743 159.723 170.024 159.955C170.305 160.188 170.525 160.486 170.664 160.823C170.841 161.239 170.885 161.7 170.79 162.142ZM153.327 136.211C156.366 131.646 157.665 126.141 156.986 120.699C156.307 115.257 153.696 110.24 149.628 106.563C145.561 102.886 140.309 100.793 134.828 100.666C129.348 100.539 124.004 102.387 119.771 105.872C115.538 109.357 112.698 114.248 111.769 119.653C110.839 125.058 111.882 130.617 114.707 135.318C117.531 140.018 121.95 143.546 127.158 145.259C132.366 146.972 138.015 146.756 143.077 144.651C147.257 142.92 150.825 139.981 153.327 136.211ZM153.686 124.174C153.615 125.968 153.296 127.743 152.737 129.449L152.652 129.691H152.41C150.786 129.976 149.025 130.229 147.137 130.44L146.578 130.493L146.673 129.944C146.949 128.269 147.114 126.578 147.169 124.881V124.511H147.538C149.51 124.29 151.387 124.015 153.137 123.699L153.644 123.604L153.686 124.174ZM151.303 114.806L151.619 114.753L151.745 115.038C152.463 116.515 152.987 118.079 153.306 119.69L153.38 120.112L152.969 120.186C151.303 120.502 149.499 120.766 147.612 120.988L147.169 121.04V120.597C147.051 119.015 146.843 117.44 146.547 115.882L146.462 115.428H146.916C147.415 115.357 147.914 115.289 148.41 115.221L148.41 115.221L148.411 115.221C149.393 115.086 150.364 114.953 151.303 114.806ZM143.921 106.946L144.142 106.83L144.364 106.946C146.131 108.025 147.712 109.382 149.046 110.965L149.552 111.556L148.782 111.651C147.854 111.767 146.874 111.883 145.861 111.978H145.524L145.418 111.651C144.964 110.207 144.407 108.797 143.752 107.431L143.583 107.083L143.921 106.946ZM142.866 115.723L142.94 116.082C143.267 117.687 143.489 119.312 143.605 120.946V121.367H143.193C141 121.526 138.722 121.631 136.423 121.663H135.991V115.998H136.539C138.648 115.998 140.641 115.882 142.613 115.755L142.866 115.723ZM140.409 108.655C140.936 109.661 141.404 110.697 141.812 111.757L142.002 112.295H141.443C139.84 112.39 138.174 112.442 136.518 112.474H136.086V109.014H136.476C137.666 108.92 138.847 108.737 140.009 108.465L140.325 108.391L140.409 108.655ZM130.634 104.435C133.037 103.971 135.507 103.971 137.91 104.435L140.125 104.868L137.9 105.269C136.779 105.471 135.643 105.573 134.504 105.575H134.114C132.975 105.574 131.839 105.471 130.718 105.269L128.493 104.868L130.634 104.435ZM126.216 111.704C126.617 110.621 127.086 109.564 127.618 108.539L127.766 108.244L128.093 108.328C129.419 108.677 130.774 108.906 132.142 109.014H132.532V112.516H132.1C130.223 112.516 128.377 112.411 126.585 112.305H126.026L126.216 111.704ZM125.087 115.66H125.456C127.565 115.808 129.833 115.903 132.121 115.934H132.532V121.642H132.1C129.579 121.642 127.101 121.484 124.718 121.304H124.296V120.882C124.413 119.248 124.635 117.624 124.961 116.019L125.087 115.66ZM119.53 110.944C120.649 109.624 121.94 108.46 123.368 107.484L124.697 106.672L124.064 108.054C123.524 109.227 123.056 110.432 122.662 111.662L122.556 111.989H122.219L119.878 111.714L119.108 111.62L119.53 110.944ZM115.312 119.669C115.632 118.059 116.153 116.496 116.862 115.017L116.999 114.732L117.305 114.784C118.539 114.974 119.836 115.154 121.154 115.301L121.607 115.354L121.523 115.797C121.217 117.355 121.006 118.93 120.89 120.513V120.956H120.447C118.781 120.745 117.178 120.502 115.681 120.218L115.259 120.144L115.312 119.669ZM115.955 129.649L115.881 129.406C115.317 127.702 114.998 125.926 114.932 124.132V123.604L115.449 123.699C117.02 123.984 118.697 124.226 120.458 124.437H120.816V124.796C120.892 126.501 121.076 128.199 121.365 129.881L121.46 130.43L120.901 130.366C119.298 130.177 117.737 129.955 116.282 129.691L115.955 129.649ZM123.337 139.418C121.317 138.031 119.575 136.278 118.201 134.249L117.663 133.468L118.602 133.595C119.656 133.742 120.711 133.869 121.892 133.985H122.177L122.251 134.259C122.708 135.832 123.279 137.369 123.959 138.859L124.602 140.241L123.337 139.418ZM124.971 130.767L124.908 130.451C124.571 128.742 124.359 127.011 124.275 125.271V124.786H124.75C127.122 124.965 129.601 125.081 132.131 125.113H132.543V131.052H132.11C129.801 131.052 127.523 130.915 125.33 130.757L124.971 130.767ZM127.734 138.701L127.586 138.395C127.052 137.276 126.591 136.123 126.205 134.945L125.994 134.344H126.627C128.451 134.46 130.318 134.523 132.195 134.555H132.606V137.867H132.216C130.852 137.974 129.5 138.203 128.177 138.553L127.734 138.701ZM134.23 141.317H134.472C135.611 141.318 136.747 141.421 137.868 141.623L140.093 142.013L137.879 142.446C135.477 142.924 133.004 142.924 130.602 142.446L128.388 142.013L130.613 141.623C131.733 141.42 132.87 141.318 134.008 141.317H134.23ZM141.77 134.987C141.407 136.123 140.978 137.236 140.483 138.321L140.325 138.627L140.009 138.542C138.846 138.274 137.665 138.094 136.476 138.004H136.086V134.607H136.539C138.227 134.607 139.893 134.523 141.496 134.439H142.128L141.77 134.987ZM143.077 130.514L143.014 130.831H142.687C140.673 130.968 138.596 131.052 136.518 131.084H136.086V125.186H136.539C138.838 125.186 141.105 125.06 143.299 124.902H143.773V125.376C143.661 127.103 143.429 128.82 143.077 130.514ZM143.953 140.009L143.948 140.006L143.921 139.988L143.953 140.009ZM143.948 140.006L143.615 139.808L143.784 139.45C144.568 137.822 145.213 136.132 145.714 134.396L145.798 134.122H146.083C147.422 133.996 148.73 133.848 149.974 133.668L150.912 133.542L150.385 134.323C148.824 136.638 146.781 138.589 144.395 140.04L144.185 140.167L143.948 140.006ZM138.722 154.694H139.144H140.937H141.359V155.116V157.753V158.175H140.937H138.3H137.879V157.753V155.96V155.538H137.457H135.664H135.242V155.116V153.323V152.901H134.82H133.871H133.45V153.323V155.116V155.538H133.028H131.235H130.813V155.96V157.753V158.175H130.392H127.755H127.333V157.753V155.116V154.694H127.755H129.548H129.97V154.272V152.479V152.057H130.392H132.184H132.606V151.635V149.841V149.419H133.028H135.664H136.086V149.841V151.635V152.057H136.508H138.3H138.722V152.479V154.272V154.694Z" fill="#1C1917"/>
</svg>
