<svg width="269" height="268" viewBox="0 0 269 268" fill="none" xmlns="http://www.w3.org/2000/svg">
<rect x="0.666626" width="268" height="268" rx="134" fill="#D6ECD3"/>
<path d="M147.788 118.717H146.597V103.897C146.597 103.575 146.515 103.258 146.359 102.976C146.202 102.695 145.977 102.459 145.704 102.29C145.407 102.101 145.063 102.001 144.711 102C144.422 101.999 144.136 102.067 143.878 102.2L114.369 116.849H98.8254C97.7233 116.852 96.667 117.293 95.8876 118.078C95.1082 118.862 94.6692 119.924 94.6666 121.033V133.606C94.6694 134.581 95.0115 135.524 95.6333 136.272C96.2552 137.02 97.1177 137.525 98.0711 137.7L99.7287 164.213C99.7589 164.696 99.9705 165.149 100.321 165.481C100.671 165.813 101.133 165.998 101.615 166H107.659C108.123 166.004 108.573 165.836 108.922 165.529C109.271 165.221 109.497 164.796 109.555 164.332L112.87 137.79H114.399L143.878 152.449C144.136 152.581 144.422 152.649 144.711 152.649C145.063 152.648 145.407 152.548 145.704 152.359C145.976 152.187 146.201 151.949 146.357 151.666C146.514 151.383 146.596 151.065 146.597 150.741V135.952H147.788C150.057 135.952 152.234 135.045 153.838 133.431C155.443 131.817 156.344 129.627 156.344 127.344C156.344 125.061 155.443 122.872 153.838 121.258C152.234 119.643 150.057 118.736 147.788 118.736V118.717ZM147.788 132.138H146.597V122.511H147.788C149.057 122.511 150.274 123.018 151.171 123.921C152.068 124.824 152.572 126.048 152.572 127.324C152.572 128.601 152.068 129.825 151.171 130.728C150.274 131.631 149.057 132.138 147.788 132.138ZM145.158 102.369H145.019H145.158ZM144.741 102.31C144.659 102.299 144.575 102.299 144.493 102.31H144.711H144.741ZM142.825 106.993V147.736L116.691 134.754V119.975L142.825 106.993ZM144.374 102.34C144.247 102.368 144.123 102.411 144.007 102.469C144.123 102.411 144.247 102.368 144.374 102.34ZM103.381 162.255L101.863 137.79H109.039L105.992 162.205L103.381 162.255ZM98.4185 133.665V121.033C98.4185 120.983 98.4285 120.932 98.4481 120.886C98.4677 120.839 98.4964 120.797 98.5324 120.761C98.5685 120.726 98.6113 120.698 98.6582 120.68C98.7051 120.661 98.7552 120.652 98.8056 120.654H112.9V133.955H98.8254C98.7302 133.958 98.6374 133.925 98.5656 133.862C98.4938 133.799 98.4483 133.711 98.4383 133.616L98.4185 133.665Z" fill="#1C1917"/>
<path d="M156.364 118.976C156.611 118.976 156.856 118.926 157.084 118.83C157.313 118.734 157.52 118.594 157.694 118.417L165.138 110.988C165.324 110.814 165.473 110.604 165.577 110.371C165.68 110.138 165.736 109.886 165.74 109.631C165.744 109.375 165.698 109.122 165.602 108.885C165.507 108.648 165.365 108.434 165.185 108.253C165.006 108.073 164.792 107.931 164.556 107.836C164.32 107.741 164.068 107.695 163.815 107.701C163.561 107.706 163.311 107.763 163.079 107.868C162.848 107.973 162.64 108.124 162.468 108.311L155.064 115.761C154.714 116.118 154.519 116.598 154.519 117.099C154.519 117.6 154.714 118.08 155.064 118.437C155.412 118.779 155.878 118.972 156.364 118.976ZM163.768 107.992C164.189 107.996 164.591 108.164 164.89 108.461C165.036 108.616 165.153 108.795 165.237 108.99C165.316 109.18 165.356 109.384 165.356 109.589C165.357 109.795 165.317 109.999 165.237 110.189C165.158 110.387 165.04 110.567 164.89 110.718L157.485 118.167L164.89 110.718C165.04 110.567 165.158 110.387 165.237 110.189C165.317 109.999 165.357 109.795 165.356 109.589C165.356 109.384 165.316 109.18 165.237 108.99C165.153 108.795 165.036 108.616 164.89 108.461C164.591 108.164 164.189 107.996 163.768 107.992C163.457 107.991 163.152 108.085 162.895 108.261C163.158 108.102 163.462 108.026 163.768 108.042V107.992Z" fill="#1C1917"/>
<path d="M157.694 136.212C157.333 135.856 156.847 135.658 156.341 135.663C155.836 135.668 155.353 135.874 154.999 136.237C154.645 136.6 154.449 137.089 154.453 137.598C154.458 138.106 154.663 138.592 155.024 138.948L162.428 146.398C162.789 146.759 163.278 146.962 163.787 146.961C164.296 146.96 164.784 146.755 165.143 146.393C165.502 146.03 165.704 145.538 165.703 145.026C165.702 144.514 165.499 144.023 165.138 143.661L157.694 136.212ZM165.138 145.878C165.308 145.617 165.398 145.312 165.398 145C165.398 144.688 165.308 144.382 165.138 144.121C165.308 144.382 165.398 144.688 165.398 145C165.398 145.312 165.308 145.617 165.138 145.878Z" fill="#1C1917"/>
<path d="M172.781 125.427H161.783C161.283 125.427 160.803 125.627 160.45 125.983C160.096 126.339 159.897 126.821 159.897 127.324C159.897 127.828 160.096 128.31 160.45 128.666C160.803 129.022 161.283 129.222 161.783 129.222H172.781C173.281 129.222 173.761 129.022 174.114 128.666C174.468 128.31 174.667 127.828 174.667 127.324C174.667 126.821 174.468 126.339 174.114 125.983C173.761 125.627 173.281 125.427 172.781 125.427Z" fill="#1C1917"/>
</svg>
