<svg width="268" height="268" viewBox="0 0 268 268" fill="none" xmlns="http://www.w3.org/2000/svg">
<rect width="268" height="268" rx="134" fill="#FCCEEE"/>
<path fill-rule="evenodd" clip-rule="evenodd" d="M108 161.582C110.24 162.902 113.5 164.721 116.98 166.301C121.46 168.34 126.3 170 130 170C132.6 170 136.58 168.7 141.1 166.601C151 161.982 163.78 153.585 169.82 148.846C171.76 147.326 173.04 146.127 173.48 145.487C173.9 144.887 174 144.347 174 144.007C174 142.268 172.4 140.368 170.84 139.588C168.38 138.369 166.68 138.029 164.02 138.009C161.34 138.009 157.72 138.349 155.26 139.588H155.22C151.8 141.428 146.94 144.467 143.86 146.447C143.511 144.64 142.544 143.01 141.124 141.839C139.704 140.668 137.921 140.028 136.08 140.028H131.98C127.7 135.49 121.74 132.191 115.54 132.191C115.54 132.191 110.78 132.111 108 132.071V130.031C108 128.931 107.1 128.032 106 128.032H96C94.9 128.032 94 128.931 94 130.031V162.062C94 163.162 94.9 164.062 96 164.062H106C107.1 164.062 108 163.162 108 162.062V161.602V161.582ZM140 148.026V147.946C140 145.787 138.24 144.027 136.08 144.027H131.1C130.816 144.029 130.534 143.97 130.275 143.852C130.016 143.735 129.786 143.563 129.6 143.347C126.04 139.309 120.92 136.169 115.54 136.189L108 136.069V156.924C109.78 158.043 114 160.563 118.64 162.682C122.56 164.482 126.76 166.021 130 166.021C132.2 166.021 135.56 164.781 139.4 162.982C149.04 158.483 161.48 150.305 167.36 145.707C168.3 144.987 169.18 144.167 169.72 143.667C169.52 143.447 169.28 143.267 169.04 143.167C167.22 142.268 165.96 142.028 163.98 142.028C161.88 142.028 159.02 142.208 157.06 143.167C151.8 145.967 143.08 151.685 143.08 151.685C142.76 151.905 142.38 152.005 142 152.005L121.62 152.125C120.52 152.125 119.62 151.245 119.6 150.146C119.6 149.046 120.48 148.146 121.58 148.126L139.98 148.026H140ZM104 132.011V160.043H98V132.011H104ZM147.46 129.071C149.74 131.971 152.48 134.49 155.06 135.79C155.62 136.069 156.28 136.069 156.84 135.79C160.94 133.81 164.88 129.331 167.34 124.893C169.04 121.813 170.02 118.774 170.02 116.595C169.98 111.836 166.22 107.997 161.7 107.997C160.76 107.997 159.86 108.157 159 108.457C158.8 102.699 153.88 98 147.86 98C144.62 98 141.58 99.3796 139.5 101.659C138.437 100.502 137.145 99.5796 135.705 98.9496C134.266 98.3197 132.711 97.9963 131.14 98C125 98 120 102.899 120 108.817V108.857C120 112.016 121.56 116.095 124.1 120.074C127.78 125.812 133.44 131.391 138.66 133.81C139.2 134.05 139.82 134.05 140.36 133.81C142.96 132.57 145.34 130.971 147.44 129.071H147.46ZM166 116.615C166 118.294 165.14 120.614 163.82 122.973C161.94 126.372 159.08 129.871 155.98 131.731C153.16 129.971 150.28 126.632 148.32 123.253C146.96 120.914 146.02 118.554 146 116.695C146.1 114.236 148 112.236 150.3 112.236C151.92 112.236 153.4 113.236 154.14 114.755C154.48 115.455 155.2 115.915 155.98 115.895C156.76 115.895 157.46 115.415 157.78 114.695C158.48 113.076 160 112.016 161.68 112.016C164.06 112.016 165.98 114.116 166 116.615ZM154.94 109.677C154.98 109.397 155 109.097 155 108.817C155 105.058 151.76 102.019 147.86 102.019C145.04 102.019 142.46 103.598 141.32 106.098C141 106.798 140.28 107.257 139.5 107.257C138.72 107.257 138.02 106.798 137.68 106.098C136.54 103.618 133.96 102.019 131.14 102.019C127.24 102.019 124 105.078 124 108.837V108.877C124 111.436 125.4 114.695 127.48 117.934C130.54 122.733 135.12 127.452 139.5 129.771C141.56 128.691 143.48 127.332 145.16 125.752C145.06 125.592 144.96 125.412 144.86 125.252C143.08 122.193 142 119.054 142 116.615V116.535C142.18 111.896 145.9 108.217 150.3 108.217C151.98 108.217 153.58 108.737 154.92 109.677H154.94Z" fill="#1C1917"/>
</svg>
