<svg width="269" height="268" viewBox="0 0 269 268" fill="none" xmlns="http://www.w3.org/2000/svg">
<rect x="0.333328" width="268" height="268" rx="134" fill="#FEDF89"/>
<path d="M136.044 117.928H132.48V134.357H136.044V117.928Z" fill="#1C1917"/>
<path d="M134.262 141.142C133.417 141.142 132.59 140.891 131.887 140.42C131.183 139.949 130.635 139.28 130.312 138.497C129.988 137.714 129.903 136.852 130.068 136.021C130.233 135.189 130.641 134.426 131.239 133.826C131.837 133.227 132.599 132.819 133.428 132.653C134.258 132.488 135.117 132.573 135.899 132.897C136.68 133.222 137.348 133.771 137.818 134.476C138.288 135.18 138.538 136.009 138.538 136.857C138.534 137.992 138.082 139.079 137.281 139.882C136.48 140.685 135.395 141.138 134.262 141.142ZM134.262 136.142C134.121 136.142 133.984 136.184 133.866 136.263C133.749 136.341 133.658 136.453 133.604 136.583C133.55 136.714 133.536 136.857 133.563 136.996C133.591 137.135 133.659 137.262 133.758 137.362C133.858 137.462 133.985 137.53 134.123 137.557C134.261 137.585 134.405 137.571 134.535 137.517C134.665 137.463 134.777 137.371 134.855 137.254C134.933 137.136 134.975 136.998 134.975 136.857C134.975 136.667 134.9 136.486 134.766 136.352C134.633 136.218 134.451 136.142 134.262 136.142Z" fill="#1C1917"/>
<path d="M145.13 160.071H141.567V150.607H127.135V160.071H123.571V149.178C123.581 148.613 123.809 148.073 124.208 147.673C124.607 147.273 125.145 147.044 125.709 147.035H142.992C143.556 147.044 144.095 147.273 144.494 147.673C144.893 148.073 145.121 148.613 145.13 149.178V160.071Z" fill="#1C1917"/>
<path d="M142.422 149.035L138.859 148.249L142.582 131.446C139.736 127.802 137.63 123.634 136.382 119.178H135.153V115.607H139.251L139.571 117C140.716 121.674 142.883 126.035 145.914 129.767L146.538 130.446L142.422 149.035Z" fill="#1C1917"/>
<path d="M125.745 148.999L122.004 130.428L122.609 129.767C125.641 126.035 127.808 121.674 128.952 117L129.273 115.607H133.371V119.178H132.071C130.816 123.64 128.703 127.813 125.852 131.464L129.238 148.285L125.745 148.999Z" fill="#1C1917"/>
<path d="M153.006 131.714L150.173 129.553C151.161 128.248 151.987 126.827 152.632 125.321L155.91 126.732C155.156 128.509 154.18 130.183 153.006 131.714ZM157.514 121.16L153.95 120.607C154.108 119.603 154.185 118.588 154.182 117.571C154.182 116.946 154.182 116.321 154.182 115.786L157.745 115.446C157.817 116.184 157.852 116.916 157.852 117.643C157.826 118.822 157.712 119.998 157.514 121.16ZM153.059 110.946C152.497 109.397 151.75 107.922 150.832 106.553L153.808 104.571C154.859 106.184 155.715 107.916 156.356 109.732L153.059 110.946ZM147.714 102.821C146.504 101.711 145.164 100.752 143.723 99.9643L145.505 96.8393C147.2 97.7586 148.774 98.8863 150.191 100.196L147.714 102.821ZM139.18 98.1786C137.574 97.7643 135.921 97.5602 134.262 97.5714V94.0001C136.197 93.9954 138.125 94.2354 139.999 94.7143L139.18 98.1786Z" fill="#1C1917"/>
<path d="M117.674 134.196C113.276 129.781 110.787 123.81 110.743 117.571C110.744 114.479 111.358 111.417 112.547 108.563C113.737 105.71 115.479 103.121 117.674 100.947C122.079 96.539 128.037 94.0441 134.262 94.0002V97.5716C128.983 97.6132 123.932 99.7366 120.204 103.482C118.337 105.321 116.855 107.514 115.842 109.933C114.83 112.352 114.308 114.948 114.306 117.571C114.348 122.862 116.467 127.924 120.204 131.66L117.674 134.196Z" fill="#1C1917"/>
<path d="M169.54 173.999H98.9837C98.1311 173.984 97.3101 173.673 96.6604 173.12C96.0107 172.566 95.5725 171.804 95.4202 170.963L94.3333 164.713H128.774L130.022 166.499H136.899L138.146 164.713H174.333L173.264 170.91C173.119 171.788 172.662 172.584 171.978 173.151C171.294 173.719 170.428 174.02 169.54 173.999ZM98.6095 168.285L98.9658 170.303C98.9529 170.349 98.9529 170.399 98.9658 170.445H169.54C169.719 170.445 169.736 170.445 169.736 170.32L170.093 168.303H139.999L138.752 170.088H128.169L126.921 168.303L98.6095 168.285Z" fill="#1C1917"/>
<path d="M101.3 166.321H97.7364V122.393C97.7456 121.827 97.9738 121.287 98.3728 120.888C98.7718 120.488 99.3103 120.259 99.8745 120.25H107.358V123.821H101.3V166.321Z" fill="#1C1917"/>
<path d="M170.788 166.499H167.224V124H161.166V120.428H168.649C169.214 120.437 169.752 120.666 170.151 121.066C170.55 121.466 170.778 122.006 170.788 122.571V166.499Z" fill="#1C1917"/>
<path d="M161.166 157.749H106.467V161.321H161.166V157.749Z" fill="#1C1917"/>
</svg>
