<svg width="516" height="443" viewBox="0 0 516 443" fill="none" xmlns="http://www.w3.org/2000/svg">
<g class="animate-bounce">
<path d="M255.352 443C381.631 443 484 345.622 484 225.5C484 105.378 381.631 8.00041 255.352 8.00041C129.074 8.00041 26.7047 105.378 26.7047 225.5C26.7047 345.622 129.074 443 255.352 443Z" fill="#FAEFE9"/>
<path d="M388.046 118.678H254.691V325.204H388.046V118.678Z" fill="white"/>
<path d="M227.964 244.732H364.695" stroke="black" stroke-miterlimit="10"/>
<path d="M227.964 258.238H364.695" stroke="black" stroke-miterlimit="10"/>
<path d="M227.964 271.744H364.695" stroke="black" stroke-miterlimit="10"/>
<path d="M227.964 285.25H364.695" stroke="black" stroke-miterlimit="10"/>
</g>
<path d="M321.5 218C342.763 218 360 200.539 360 179C360 157.461 342.763 140 321.5 140C300.237 140 283 157.461 283 179C283 200.539 300.237 218 321.5 218Z" fill="#F2F2F2"/>
<path opacity="0.7" d="M419.838 192.116H364.696V243.325H419.838V192.116Z" fill="#50B89D"/>
<path d="M414.56 225.278V223.34L398.957 215.393V218.494L410.925 224.26L410.828 224.066V224.551L410.925 224.357L398.957 230.123V233.225L414.56 225.278ZM406.613 249.027L414.608 278.731H417.225L409.229 249.027H406.613ZM398.957 307.278L414.56 315.225V312.123L402.591 306.357L402.688 306.551V306.066L402.591 306.26L414.56 300.494V297.393L398.957 305.34V307.278Z" fill="white"/>
<path d="M321.932 17.1032H24.2745V212.937H321.932V17.1032Z" stroke="black" stroke-miterlimit="10"/>
<path d="M24.2744 27.5139H321.932" stroke="black" stroke-miterlimit="10"/>
<path d="M135.403 44.9589H45.9374V134.435H135.403V44.9589Z" stroke="black" stroke-miterlimit="10"/>
<path d="M152.565 52.8373H289.296" stroke="black" stroke-miterlimit="10"/>
<path d="M152.565 66.3431H289.296" stroke="black" stroke-miterlimit="10"/>
<path d="M152.565 79.8489H289.296" stroke="black" stroke-miterlimit="10"/>
<path d="M152.565 93.3547H289.296" stroke="black" stroke-miterlimit="10"/>
<path opacity="0.44" d="M90.6706 68.594L66.3066 110.8H115.035L90.6706 68.594Z" fill="#50B89D"/>
<path d="M30.7449 24.9816C32.1434 24.9816 33.277 23.8478 33.277 22.4492C33.277 21.0507 32.1434 19.9169 30.7449 19.9169C29.3465 19.9169 28.2129 21.0507 28.2129 22.4492C28.2129 23.8478 29.3465 24.9816 30.7449 24.9816Z" fill="#AB8DE5"/>
<path d="M39.4666 24.9816C40.865 24.9816 41.9987 23.8478 41.9987 22.4492C41.9987 21.0507 40.865 19.9169 39.4666 19.9169C38.0682 19.9169 36.9346 21.0507 36.9346 22.4492C36.9346 23.8478 38.0682 24.9816 39.4666 24.9816Z" fill="#73E5E2"/>
<path d="M48.1882 24.9816C49.5867 24.9816 50.7203 23.8478 50.7203 22.4492C50.7203 21.0507 49.5867 19.9169 48.1882 19.9169C46.7898 19.9169 45.6562 21.0507 45.6562 22.4492C45.6562 23.8478 46.7898 24.9816 48.1882 24.9816Z" fill="#50B89D"/>
<path d="M156.196 177L166 168H156L156.196 177Z" fill="#AB8DE5"/>
<path d="M208.629 136H160.371C152.986 136 147 141.991 147 149.381V155.619C147 163.009 152.986 169 160.371 169H208.629C216.014 169 222 163.009 222 155.619V149.381C222 141.991 216.014 136 208.629 136Z" fill="#AB8DE5"/>
<path d="M174.5 155C175.881 155 177 153.881 177 152.5C177 151.119 175.881 150 174.5 150C173.119 150 172 151.119 172 152.5C172 153.881 173.119 155 174.5 155Z" fill="white"/>
<path d="M185 155C186.657 155 188 153.881 188 152.5C188 151.119 186.657 150 185 150C183.343 150 182 151.119 182 152.5C182 153.881 183.343 155 185 155Z" fill="white"/>
<path d="M195 155C196.657 155 198 153.881 198 152.5C198 151.119 196.657 150 195 150C193.343 150 192 151.119 192 152.5C192 153.881 193.343 155 195 155Z" fill="white"/>
<path d="M421.824 94L413 86H422L421.824 94Z" fill="#73E5E2"/>
<path d="M372.658 87L418.342 87C425.333 87 431 81.3721 431 74.4298V68.5702C431 61.6278 425.333 56 418.342 56L372.658 56C365.667 56 360 61.6278 360 68.5702V74.4298C360 81.3721 365.667 87 372.658 87Z" fill="#73E5E2"/>
<path d="M405 74C406.657 74 408 72.8807 408 71.5C408 70.1193 406.657 69 405 69C403.343 69 402 70.1193 402 71.5C402 72.8807 403.343 74 405 74Z" fill="white"/>
<path d="M395.5 74C396.881 74 398 72.8807 398 71.5C398 70.1193 396.881 69 395.5 69C394.119 69 393 70.1193 393 71.5C393 72.8807 394.119 74 395.5 74Z" fill="white"/>
<path d="M386 74C387.657 74 389 72.8807 389 71.5C389 70.1193 387.657 69 386 69C384.343 69 383 70.1193 383 71.5C383 72.8807 384.343 74 386 74Z" fill="white"/>
<path d="M412.532 21.0647C413.93 21.0647 415.064 19.9309 415.064 18.5323C415.064 17.1338 413.93 16 412.532 16C411.134 16 410 17.1338 410 18.5323C410 19.9309 411.134 21.0647 412.532 21.0647Z" fill="#F98B67"/>
<path d="M426.532 37.0647C427.93 37.0647 429.064 35.9309 429.064 34.5323C429.064 33.1338 427.93 32 426.532 32C425.134 32 424 33.1338 424 34.5323C424 35.9309 425.134 37.0647 426.532 37.0647Z" fill="#F98B67"/>
<path d="M360.939 130.878C363.114 130.878 364.878 129.115 364.878 126.939C364.878 124.764 363.114 123 360.939 123C358.763 123 357 124.764 357 126.939C357 129.115 358.763 130.878 360.939 130.878Z" fill="#F98B67"/>
<path d="M387.939 155.878C390.114 155.878 391.878 154.115 391.878 151.939C391.878 149.764 390.114 148 387.939 148C385.763 148 384 149.764 384 151.939C384 154.115 385.763 155.878 387.939 155.878Z" fill="#F98B67"/>
<path d="M33.8401 154.975C36.0154 154.975 37.7789 153.211 37.7789 151.036C37.7789 148.86 36.0154 147.096 33.8401 147.096C31.6648 147.096 29.9014 148.86 29.9014 151.036C29.9014 153.211 31.6648 154.975 33.8401 154.975Z" fill="#F98B67"/>
<path d="M373.041 333.285L373.126 332.728L372.048 330.854L369.539 326.631L366.869 322.154C366.869 322.154 364.046 319.482 363.293 318.979C360.545 317.155 357.792 315.661 354.31 315.125C352.169 314.796 344.117 313.887 343.893 315.23C343.586 317.227 353.628 326.51 361.283 331.446C364.888 332.03 373.041 333.285 373.041 333.285Z" fill="#1F161E"/>
<path d="M376.625 332.775C364.2 325.182 335.59 279.548 339.676 261.053C353.167 266.193 369.618 287.158 378.28 305.423C378.769 306.619 379.19 307.842 379.541 309.085L383.552 321.105L385.365 331.851L376.625 332.775Z" fill="#FBDC8E"/>
<path d="M379.148 331.058C375.591 327.52 375.294 318.078 375.611 314.598C376.205 308.103 377.684 303.422 383.952 296.843C390.22 290.264 389.937 278.273 398.111 271.027C406.285 263.781 411.391 262.045 420.136 262.927C428.881 263.81 430.227 278.266 429.822 281.829C428.269 296.208 419 297.331 412.776 303.637C408.259 308.215 407.534 312.26 406.084 314.466C398.301 326.362 392.529 330.547 388.424 331.994" fill="#73E5E2"/>
<path d="M381.391 330.232C383.979 305.703 413.558 271.454 419.641 266.486" stroke="white" stroke-width="0.4" stroke-linecap="round" stroke-linejoin="round"/>
<path d="M383.911 319.219C381.365 315.812 379.654 306.709 380.277 304.453" stroke="white" stroke-width="0.4" stroke-linecap="round" stroke-linejoin="round"/>
<path d="M380.436 330.225C375.613 323.483 352.626 290.55 342.683 265.54" stroke="white" stroke-width="0.4" stroke-linecap="round" stroke-linejoin="round"/>
<path d="M389.881 330.972H401.99L391.862 368.676H364.78L354.815 330.972H389.881Z" fill="#B37361"/>
<path d="M347.692 316.589C353.464 317.888 360.764 319.285 365.398 323.613" stroke="white" stroke-width="0.4" stroke-linecap="round" stroke-linejoin="round"/>
<path d="M424.714 184.992C423.551 191.834 416.431 276.421 420.579 296.401C424.726 316.381 481.431 356.412 483.872 357.057C486.604 354.886 490.484 347.963 490.484 347.963C490.484 347.963 448.297 302.669 447.455 300.82C446.613 298.971 452.091 190.142 452.091 190.142L424.714 184.992Z" fill="#1F161E"/>
<path d="M489.284 198.448L447.493 366.58L433.601 366.535L448.244 191.045L489.284 198.448Z" fill="#AB8DE5"/>
<path d="M456.97 103.658C462.661 103.467 492.38 103.434 498.095 113.705C503.81 123.975 500.372 172.445 497.1 174.43C495.334 175.497 494.812 174.535 494.358 176.599C493.903 178.664 489.477 198.964 489.477 198.964C486.241 199.163 438.775 193.63 423.167 185.825C423.179 183.51 423.72 177.473 423.705 177.012C421.697 177.913 419.239 178.169 418.531 177.185C412.244 168.325 419.581 120.788 425.662 111.069C428.247 106.9 447.838 103.992 456.97 103.658Z" fill="#FBDC8E"/>
<path d="M478.974 176.343C480.368 176.297 492.657 184.331 491.767 188.51C492.499 185.153 494.809 174.777 494.809 174.777C493.675 175.034 479.998 176.326 478.974 176.343Z" fill="#1F161E"/>
<path d="M464.504 108.923C464.566 110.757 450.107 111.241 450.046 109.408L449.424 90.8475L463.883 90.3632L464.504 108.923Z" fill="#F8CDBA"/>
<path d="M455.735 95.0336C456.86 94.9959 464.136 97.9278 464.195 99.6938L463.883 90.3632C462.094 90.4231 455.735 95.0336 455.735 95.0336Z" fill="#1F161E"/>
<path d="M453.8 96.4553C461.568 96.1952 467.654 89.6866 467.394 81.918C467.134 74.1494 460.626 68.0626 452.858 68.3228C445.09 68.583 439.004 75.0915 439.265 82.8601C439.525 90.6287 446.033 96.7155 453.8 96.4553Z" fill="#F8CDBA"/>
<path d="M447.884 61.9861C440.663 62.2279 436.316 66.9118 436.51 72.7216C436.672 77.5529 437.934 80.2471 439.335 80.8927C440.049 76.1729 441.872 73.9385 443.409 72.9523C444.661 73.845 446.823 76.0361 449.636 76.6401C452.448 77.2441 459.704 76.8659 465.712 80.9327C467.571 79.1249 469.408 76.7943 469.318 74.1228C469.229 71.4512 467.935 68.1387 460.925 66.4366C456.294 65.3136 455.532 61.7299 447.884 61.9861Z" fill="#1F161E"/>
<path d="M440.327 87.008C441.688 86.9625 442.771 86.3514 442.748 85.6432C442.724 84.935 441.602 84.3978 440.242 84.4434C438.881 84.4889 437.798 85.1 437.821 85.8082C437.845 86.5164 438.967 87.0536 440.327 87.008Z" fill="#FA9E9F"/>
<path d="M455.821 86.4891C457.181 86.4436 458.265 85.8325 458.241 85.1243C458.217 84.4161 457.095 83.8789 455.735 83.9245C454.375 83.97 453.291 84.5811 453.315 85.2893C453.338 85.9975 454.46 86.5347 455.821 86.4891Z" fill="#FA9E9F"/>
<path d="M446.212 82.8639C445.773 83.5374 443.515 86.3777 446.032 87.4082" stroke="#1F161E" stroke-miterlimit="10" stroke-linecap="round"/>
<path d="M451.106 90.4702C451.848 90.4453 452.959 89.4847 453.533 88.6378" stroke="#1F161E" stroke-miterlimit="10" stroke-linecap="round"/>
<path d="M466.495 86.8242C468.29 86.764 469.697 85.2599 469.636 83.4645C469.576 81.6691 468.072 80.2624 466.277 80.3225C464.482 80.3827 463.075 81.8868 463.135 83.6822C463.196 85.4776 464.7 86.8843 466.495 86.8242Z" fill="#F8CDBA"/>
<path d="M477.77 130.669C477.621 133.782 477.146 149.158 477.584 151.165C472.921 152.965 430.407 174.901 423.008 177.401" stroke="#1F161E" stroke-miterlimit="10" stroke-linecap="round"/>
<path d="M427.434 127.507C426.555 131.016 423.732 146.904 426.334 154.154" stroke="#1F161E" stroke-miterlimit="10" stroke-linecap="round"/>
<path d="M439.886 169.651C442.188 171.157 464.069 179.979 493.759 175.381" stroke="#1F161E" stroke-miterlimit="10" stroke-linecap="round"/>
<path d="M437.289 153.787C438.742 153.969 433.903 150.364 431.279 151.854C428.655 153.344 425.268 159.803 426.054 161.247C426.162 161.51 426.328 161.745 426.539 161.936C426.75 162.126 427.001 162.267 427.274 162.347C427.547 162.428 427.834 162.446 428.115 162.401C428.396 162.356 428.663 162.248 428.897 162.086C429.607 161.595 434.756 153.466 437.289 153.787Z" fill="#F8CDBA"/>
<path d="M489.031 349.206C489.779 349.799 496.428 354.691 496.369 357.606C496.309 360.521 489.507 369.922 488.202 370.146C486.898 370.37 486.02 369.243 486.097 367.292C486.174 365.341 488.749 362.018 488.483 360.487C488.217 358.956 485.173 356.053 483.556 355.939" fill="#1F161E"/>
<path d="M445.833 366.854C445.551 368.163 444.538 376.546 442.856 376.983C441.173 377.421 424.321 374.261 423.725 373.338C423.13 372.415 423.013 370.715 423.782 370.403C424.552 370.091 431.311 370.189 432.322 369.774C433.332 369.358 435.247 366.375 435.173 364.557" fill="#1F161E"/>
<path d="M130.045 303.215L21.3621 308.493L24.0396 363.627L132.722 358.349L130.045 303.215Z" fill="#B37361"/>
<path d="M189.636 278.672C189.791 281.521 190.563 346.342 191.736 347.544C192.908 348.747 206.36 352.635 207.732 351.011C208.282 348.242 213.628 303.699 214.804 299.793" fill="#1F161E"/>
<path d="M29.8103 266.531C24.2454 263.79 35.8479 318.117 66.3845 318.117C96.921 318.117 148.322 271.595 156.644 271.595C175.015 271.595 218.505 307.667 221.915 307.667C224.525 305.056 229.747 300.486 229.747 298.663C229.747 296.84 188.109 228.32 156.953 228.32C144.873 228.337 42.375 272.738 29.8103 266.531Z" fill="#50B89D"/>
<path d="M46.9947 267.453C53.0998 266.069 60.696 262.484 67.42 258.821C49.1273 264.803 34.1375 268.669 29.8105 266.531C26.8621 265.079 28.7302 279.62 35.6624 293.627C34.4076 290.92 32.6183 270.74 46.9947 267.453Z" fill="#1F161E"/>
<path d="M60.454 172.148C65.2649 172.277 90.3097 171.54 97.1744 178.079C102.267 182.93 118.1 224.646 120.542 239.294C109.908 244.702 33.2034 281.432 9.46401 265.281C8.94072 252.732 11.3771 202.845 26.9014 176.683C32.5789 172.902 55.8287 172.029 60.454 172.148Z" fill="#73E5E2"/>
<path d="M70.2106 160.212H55.581V175.935C55.581 179.874 70.2106 179.84 70.2106 175.935V160.212Z" fill="#F8CDBA"/>
<path d="M55.581 169.705C55.581 167.961 60.4144 163.577 63.4022 163.735C63.4754 161.793 56.5769 159.002 56.5769 159.002L55.581 161.686V169.705Z" fill="#1F161E"/>
<path d="M85.5323 160.212C85.8608 158.69 86.0268 157.137 86.0275 155.58C86.0275 143.977 76.9627 134.568 65.771 134.568C54.5793 134.568 45.5146 143.977 45.5146 155.58C45.5152 157.137 45.6812 158.69 46.0097 160.212H85.5323Z" fill="#1F161E"/>
<path d="M80.1927 146.048C77.7113 145.671 75.2355 143.718 73.5081 142.44C63.6612 149.655 57.3536 149.75 56.6727 149.75C55.9919 149.75 53.2179 153.735 51.9406 154.185L51.8281 154.117C52.2078 156.214 53.0194 158.208 54.2112 159.974C55.4031 161.74 56.9491 163.239 58.7512 164.375C60.5533 165.511 62.5719 166.26 64.6789 166.574C66.7859 166.888 68.9352 166.76 70.9902 166.199C73.0452 165.638 74.961 164.655 76.6159 163.313C78.2708 161.972 79.6286 160.301 80.603 158.406C81.5775 156.512 82.1472 154.435 82.2762 152.308C82.4051 150.182 82.0903 148.052 81.3518 146.053C80.9667 146.099 80.5774 146.097 80.1927 146.048Z" fill="#F8CDBA"/>
<path d="M54.7988 137.184C58.0991 137.184 60.7745 134.509 60.7745 131.208C60.7745 127.907 58.0991 125.232 54.7988 125.232C51.4986 125.232 48.8232 127.907 48.8232 131.208C48.8232 134.509 51.4986 137.184 54.7988 137.184Z" fill="#1F161E"/>
<path d="M57.4606 149.43C56.8149 149.46 56.2057 149.738 55.7595 150.206C55.3133 150.674 55.0644 151.296 55.0644 151.942C55.0644 152.589 55.3133 153.211 55.7595 153.678C56.2057 154.146 56.8149 154.424 57.4606 154.455" stroke="#1F161E" stroke-miterlimit="10" stroke-linecap="round"/>
<path d="M76.6141 149.75C77.3512 150.735 79.2475 152.463 76.6141 154.292" stroke="#1F161E" stroke-miterlimit="10" stroke-linecap="round"/>
<path d="M68.6298 155.609C68.6298 156.346 68.9449 158.107 70.526 158.563" stroke="#1F161E" stroke-miterlimit="10" stroke-linecap="round"/>
<path d="M63.7293 155.783C65.0096 155.783 66.0475 155.244 66.0475 154.579C66.0475 153.914 65.0096 153.375 63.7293 153.375C62.449 153.375 61.4111 153.914 61.4111 154.579C61.4111 155.244 62.449 155.783 63.7293 155.783Z" fill="#FA9E9F"/>
<path d="M80.9636 155.783C82.2439 155.783 83.2819 155.244 83.2819 154.579C83.2819 153.914 82.2439 153.375 80.9636 153.375C79.6833 153.375 78.6454 153.914 78.6454 154.579C78.6454 155.244 79.6833 155.783 80.9636 155.783Z" fill="#FA9E9F"/>
<path d="M96.6454 215.631L112.282 211.607C113.785 214.162 121.099 239.266 121.099 239.266L96.9605 249.44C97.2756 244.685 98.2265 222.907 96.6454 215.631Z" fill="#F8CDBA"/>
<path d="M41.8181 211.697C41.8181 213.588 40.2257 220.785 39.2861 224.167" stroke="#1F161E" stroke-miterlimit="10" stroke-linecap="round"/>
<path d="M96.6452 215.631C96.2682 212.654 94.0625 195.878 90.3094 187.049" stroke="#1F161E" stroke-miterlimit="10" stroke-linecap="round"/>
<path d="M96.6454 215.631L112.282 211.607C113.785 214.162 121.099 239.266 121.099 239.266L96.9605 249.44C97.2756 244.685 98.2265 222.907 96.6454 215.631Z" fill="#F8CDBA"/>
<path d="M222.507 304.575C222.738 305.195 226.182 311.717 227.786 312.102C229.39 312.487 240.538 307.807 240.395 306.292C240.251 304.777 233.907 304.474 232.949 303.759C231.99 303.045 230.097 300.209 229.921 299.083" fill="#1F161E"/>
<path d="M197.14 346.649C196.751 347.152 192.847 353.431 193.325 355.012C193.803 356.593 203.485 363.836 204.716 362.94C205.948 362.044 202.982 356.416 203.131 355.241C203.279 354.067 204.739 351.009 205.649 350.285" fill="#1F161E"/>
<path d="M179.87 238.715L126.948 241.355L137.882 207.335L190.804 204.696L179.87 238.715Z" fill="#969696"/>
<path d="M135.708 239.656L82.7864 242.296L82.8492 243.555L135.771 240.915L135.708 239.656Z" fill="#969696"/>
<path d="M41.103 222.18C39.7568 225.881 33.4073 241.707 35.1688 244.686C36.9303 247.664 87.7438 245.71 101.558 242.699C105.08 241.877 107.877 239.162 109.429 238.913C111.409 238.754 113.377 239.331 114.957 240.535C116.536 241.739 117.615 243.484 117.986 245.435C112.389 247.567 31.3913 280.373 7.8096 260.555C3.35956 256.737 15.3187 215.981 15.8828 213.923C20.0814 214.805 41.103 222.18 41.103 222.18Z" fill="#F8CDBA"/>
<path d="M97.5512 243.365C99.096 243.138 100.45 242.901 101.567 242.66C105.09 241.838 107.886 239.123 109.438 238.875C111.418 238.715 113.386 239.293 114.966 240.496C116.545 241.7 117.624 243.445 117.995 245.396" stroke="#1F161E" stroke-miterlimit="10" stroke-linecap="round"/>
</svg>
