<svg width="20" height="20" viewBox="0 0 20 20" fill="none" xmlns="http://www.w3.org/2000/svg">
<path d="M4.1665 12.4993C3.38993 12.4993 3.00165 12.4993 2.69536 12.3725C2.28698 12.2033 1.96253 11.8789 1.79337 11.4705C1.6665 11.1642 1.6665 10.7759 1.6665 9.99935V4.33268C1.6665 3.39926 1.6665 2.93255 1.84816 2.57603C2.00795 2.26243 2.26292 2.00746 2.57652 1.84767C2.93304 1.66602 3.39975 1.66602 4.33317 1.66602H9.99984C10.7764 1.66602 11.1647 1.66602 11.471 1.79288C11.8794 1.96204 12.2038 2.2865 12.373 2.69488C12.4998 3.00116 12.4998 3.38945 12.4998 4.16602M10.1665 18.3327H15.6665C16.5999 18.3327 17.0666 18.3327 17.4232 18.151C17.7368 17.9912 17.9917 17.7363 18.1515 17.4227C18.3332 17.0661 18.3332 16.5994 18.3332 15.666V10.166C18.3332 9.23259 18.3332 8.76588 18.1515 8.40937C17.9917 8.09576 17.7368 7.84079 17.4232 7.68101C17.0666 7.49935 16.5999 7.49935 15.6665 7.49935H10.1665C9.23308 7.49935 8.76637 7.49935 8.40985 7.68101C8.09625 7.84079 7.84128 8.09576 7.68149 8.40937C7.49984 8.76588 7.49984 9.2326 7.49984 10.166V15.666C7.49984 16.5994 7.49984 17.0661 7.68149 17.4227C7.84128 17.7363 8.09625 17.9912 8.40985 18.151C8.76637 18.3327 9.23308 18.3327 10.1665 18.3327Z" stroke="#344054" stroke-width="1.66667" stroke-linecap="round" stroke-linejoin="round"/>
</svg>
