<svg width="268" height="402" viewBox="0 0 268 402" fill="none" xmlns="http://www.w3.org/2000/svg">
<g clip-path="url(#clip0_1048_79645)">
<path d="M116.978 346.846C117.13 347.926 118.366 354.222 117.508 355.402C115.968 357.543 101.158 358.384 100.381 357.834C99.6032 357.284 99.0001 356.025 99.5669 355.574C100.134 355.124 105.816 353.361 106.536 352.764C107.255 352.168 107.989 349.384 107.357 347.999" fill="#1F161E"/>
<path d="M48.1402 338.508C48.2928 339.582 49.5209 345.885 48.6707 347.064C47.1302 349.199 32.3206 350.04 31.5431 349.497C30.7656 348.953 30.1624 347.687 30.7292 347.237C31.296 346.786 36.9786 345.017 37.698 344.42C38.4174 343.824 39.1513 341.04 38.5191 339.661" fill="#1F161E"/>
<path d="M72.3531 173.473C71.2703 176.443 53.6268 265.677 52.515 270.515C51.4032 275.353 34.4645 336.188 35.9324 338.203C37.4003 340.218 47.7262 342.909 50.3059 341.563C52.8856 340.218 97.8446 248.777 101.173 237.377C104.501 225.977 101.173 166.362 101.173 166.362L72.3531 173.473Z" fill="#1F161E"/>
<path d="M85.811 174.136C86.4941 179.021 96.8419 259.553 99.8866 272.278C102.931 285.003 100.141 346.508 102.394 347.469C105.3 349.656 120.401 349.656 120.401 349.656C123.14 347.469 132.827 180.108 132.827 180.108C132.827 180.108 108.759 160.397 85.811 174.136Z" fill="#FADB93"/>
<path d="M94.6982 109.212C94.6982 110.935 105.119 111.034 105.111 109.212V97.6664H94.6982V109.212Z" fill="#F8CDBA"/>
<path d="M105.097 104.533C105.097 103.505 101.674 99.1179 99.6904 99.7144C102.139 98.9191 104.174 97.0633 105.075 97.6399L105.097 104.533Z" fill="#1F161E"/>
<path d="M94.9962 102.22C102.465 102.22 108.52 96.6975 108.52 89.8856C108.52 83.0737 102.465 77.5516 94.9962 77.5516C87.5275 77.5516 81.4729 83.0737 81.4729 89.8856C81.4729 96.6975 87.5275 102.22 94.9962 102.22Z" fill="#F8CDBA"/>
<path d="M82.2636 94.86C83.4992 94.7462 84.4482 94.178 84.3832 93.5909C84.3182 93.0039 83.2638 92.6203 82.0281 92.7341C80.7925 92.848 79.8435 93.4161 79.9085 94.0032C79.9735 94.5902 81.0279 94.9738 82.2636 94.86Z" fill="#FA9E9F"/>
<path d="M96.7494 93.5318C97.9908 93.4142 98.9428 92.8407 98.8756 92.2509C98.8085 91.6611 97.7476 91.2783 96.5062 91.3959C95.2647 91.5135 94.3128 92.087 94.3799 92.6768C94.4471 93.2666 95.5079 93.6494 96.7494 93.5318Z" fill="#FA9E9F"/>
<path d="M87.7512 91.0719C87.3878 91.6551 85.4985 94.1537 87.8747 94.8695" stroke="#1F161E" stroke-width="0.69" stroke-miterlimit="10" stroke-linecap="round"/>
<path d="M92.707 97.1031C93.3756 97.0235 94.3348 96.1818 94.8071 95.4395" stroke="#1F161E" stroke-width="0.69" stroke-miterlimit="10" stroke-linecap="round"/>
<path d="M105.932 91.0719C107.578 91.0719 108.912 89.8553 108.912 88.3546C108.912 86.8539 107.578 85.6373 105.932 85.6373C104.287 85.6373 102.953 86.8539 102.953 88.3546C102.953 89.8553 104.287 91.0719 105.932 91.0719Z" fill="#F8CDBA"/>
<path d="M103.898 90.7538C103.898 94.3659 108.258 96.7187 109.755 96.7187C109.993 96.7481 110.235 96.7295 110.464 96.664C110.693 96.5985 110.903 96.4878 111.08 96.3397C111.257 96.1917 111.396 96.01 111.487 95.8074C111.579 95.6049 111.62 95.3865 111.608 95.1678C111.608 93.6567 110.627 92.3577 108.578 90.7207C108.934 90.1573 111.608 87.1815 111.608 82.9862C111.608 78.5457 108.621 74.8276 106.623 74.8276C105.768 74.8798 104.956 75.1891 104.314 75.7072C103.672 76.2253 103.237 76.9229 103.077 77.6907C103.077 71.4873 95.8101 67.0468 91.4501 67.0468C87.4098 67.0468 86.7195 68.6506 86.7195 69.9563C86.7195 72.8062 89.1829 75.8615 90.113 76.5839C87.8531 75.0662 84.2997 73.5352 81.2694 73.5352C79.351 73.5352 76.9094 74.0323 76.9094 76.4447C76.9094 80.8654 81.4511 83.4236 82.9698 84.1394C83.5488 83.1083 84.2825 82.1558 85.1499 81.3094C84.8737 82.1445 85.9928 83.6622 88.1365 84.0069C89.3645 84.2521 103.898 82.4626 103.898 90.7538Z" fill="#1F161E"/>
<path d="M66.4526 71.653C64.0829 70.9619 61.7586 70.1476 59.4911 69.214C58.481 68.6705 62.8193 62.0098 64.8321 60.0811C66.845 58.1525 71.0016 57.165 73.1743 58.8882C75.347 60.6113 74.0027 64.853 66.4526 71.653Z" fill="#F8CDBA"/>
<path d="M125.872 108.065C139.192 114.998 154.699 156.241 154.699 159.403C154.699 162.564 126.359 209.899 124.659 209.899C123.205 208.487 117.05 201.8 117.05 201.8C118.591 199.646 128.677 178.928 129.033 178.06C126.577 178.431 74.7946 179.988 70.4346 178.245C66.0746 176.502 67.775 131.699 66.6196 130.208C65.4642 128.717 34.5299 126.636 30.7148 121.287C32.2845 94.8695 57.4854 69.5255 59.3311 68.8428C61.1768 68.1602 67.1646 70.0225 67.4335 71.2553C66.7068 72.9917 53.0599 105.494 54.288 107.045C60.69 106.441 120.32 105.169 125.872 108.065Z" fill="#AB8FE2"/>
<path d="M118.976 136.431C120.233 138.473 132.965 158.243 132.827 159.9C132.689 161.557 131.003 173.009 129.033 178.027" stroke="#1F161E" stroke-width="0.55" stroke-miterlimit="10" stroke-linecap="round"/>
<path d="M66.8377 130.559C66.6591 126.731 66.8805 122.897 67.4989 119.107" stroke="#1F161E" stroke-width="0.55" stroke-miterlimit="10" stroke-linecap="round"/>
<g style="mix-blend-mode:multiply">
<rect width="67.3361" height="77.7593" transform="matrix(0.987296 0.158892 -0.1877 0.982226 69.8115 60.2388)" fill="#78E5E1"/>
</g>
</g>
<path d="M184.441 271.754C195.56 273.69 193.576 334.687 172.234 330.997C152.08 327.479 170.876 269.382 184.441 271.754Z" fill="black"/>
<path d="M135.624 279.284C144.472 274.68 181.509 317.517 164.568 326.328C148.563 334.687 124.851 284.9 135.624 279.284Z" fill="#FBDC8E"/>
<path d="M180.714 360.462H158.371C157.471 360.462 156.603 360.157 155.932 359.605C155.262 359.053 154.836 358.294 154.737 357.471L151.916 334.192C151.855 333.72 151.903 333.241 152.058 332.787C152.213 332.333 152.47 331.915 152.813 331.559C153.157 331.203 153.578 330.919 154.05 330.723C154.521 330.528 155.033 330.427 155.55 330.427H183.417C183.93 330.427 184.438 330.526 184.906 330.719C185.375 330.911 185.794 331.192 186.137 331.543C186.48 331.894 186.738 332.307 186.896 332.756C187.053 333.205 187.106 333.68 187.051 334.149L184.354 357.428C184.264 358.259 183.841 359.029 183.169 359.589C182.496 360.15 181.621 360.461 180.714 360.462Z" fill="#969696"/>
<path d="M190.721 248.001C199.188 250.26 192.698 297.341 176.483 293.006C161.174 288.918 180.415 245.247 190.721 248.001Z" fill="#AB8DE5"/>
<path d="M204.683 285.459C210.535 290.096 186.73 325.564 175.482 316.657C164.861 308.282 197.538 279.822 204.683 285.459Z" fill="#FBDC8E"/>
<path d="M169.601 252.895C182.276 252.895 193.881 327.285 169.601 327.285C146.673 327.285 154.169 252.895 169.601 252.895Z" fill="#78E5E1"/>
<path d="M191.844 325.392H147.252C145.943 325.392 144.882 326.367 144.882 327.57V331.54C144.882 332.743 145.943 333.718 147.252 333.718H191.844C193.153 333.718 194.214 332.743 194.214 331.54V327.57C194.214 326.367 193.153 325.392 191.844 325.392Z" fill="#D8D8D8"/>
<path d="M183.377 188.462H153.204C152.225 188.462 151.431 189.192 151.431 190.092V199.15C151.431 200.05 152.225 200.78 153.204 200.78H183.377C184.356 200.78 185.15 200.05 185.15 199.15V190.092C185.15 189.192 184.356 188.462 183.377 188.462Z" fill="#78E5E1"/>
<path d="M168.284 209.225L172.346 197.918H164.223L168.284 209.225Z" fill="#78E5E1"/>
<path d="M160.238 191.743L156.832 197.16H163.638L160.238 191.743Z" fill="white"/>
<path d="M176.337 197.16L179.743 191.743H172.931L176.337 197.16Z" fill="white"/>
<path d="M168.284 196.805C169.697 196.805 170.842 195.752 170.842 194.454C170.842 193.156 169.697 192.104 168.284 192.104C166.872 192.104 165.727 193.156 165.727 194.454C165.727 195.752 166.872 196.805 168.284 196.805Z" fill="white"/>
<path d="M187.826 148.104H168.023C167.166 148.104 166.472 148.742 166.472 149.53V160.535C166.472 161.322 167.166 161.96 168.023 161.96H187.826C188.682 161.96 189.377 161.322 189.377 160.535V149.53C189.377 148.742 188.682 148.104 187.826 148.104Z" fill="#D8D8D8"/>
<path d="M167.192 148.54L177.924 155.032" stroke="#969696" stroke-width="0.82" stroke-linecap="round" stroke-linejoin="round"/>
<path d="M189.377 148.104L177.924 155.032" stroke="#969696" stroke-width="0.82" stroke-linecap="round" stroke-linejoin="round"/>
<path d="M189.376 151.116C191.186 151.116 192.654 149.768 192.654 148.104C192.654 146.441 191.186 145.092 189.376 145.092C187.567 145.092 186.099 146.441 186.099 148.104C186.099 149.768 187.567 151.116 189.376 151.116Z" fill="#FBDC8E"/>
<path d="M190.65 146.462V149.462H189.939V146.843H189.905L188.471 147.329V146.96L189.939 146.462H190.65Z" fill="white"/>
<path d="M217.529 229.937H221.04C221.409 229.936 221.762 229.8 222.023 229.56C222.284 229.321 222.431 228.996 222.433 228.657V208.82C222.433 208.651 222.397 208.485 222.327 208.33C222.256 208.175 222.153 208.034 222.023 207.916L217.587 203.839C217.458 203.719 217.305 203.625 217.136 203.56C216.968 203.496 216.787 203.462 216.604 203.462H203.501C203.133 203.464 202.779 203.599 202.518 203.839C202.257 204.078 202.11 204.403 202.109 204.742V206.657" fill="#FBDC8E"/>
<path d="M211.63 206.657H198.755C198.549 206.657 198.344 206.695 198.154 206.767C197.963 206.84 197.79 206.947 197.644 207.081C197.499 207.216 197.383 207.375 197.305 207.551C197.226 207.726 197.186 207.914 197.187 208.104V231.664C197.187 232.046 197.352 232.414 197.646 232.685C197.94 232.956 198.339 233.109 198.755 233.111H215.954C216.371 233.109 216.77 232.956 217.064 232.685C217.358 232.414 217.523 232.046 217.523 231.664V212.085C217.523 211.895 217.483 211.707 217.405 211.532C217.327 211.356 217.212 211.197 217.066 211.063L212.736 207.082C212.443 206.811 212.045 206.659 211.63 206.657Z" fill="#D8D8D8"/>
<path d="M217.528 211.52H213.157C212.924 211.52 212.701 211.435 212.536 211.283C212.372 211.132 212.279 210.927 212.279 210.713V206.657" fill="#969696"/>
<path d="M222.45 208.33H218.078C217.845 208.329 217.621 208.243 217.455 208.091C217.29 207.939 217.196 207.733 217.195 207.518V203.462" fill="#64CCC4"/>
<path d="M204.18 209.089H200.037C199.733 209.089 199.487 209.315 199.487 209.594C199.487 209.873 199.733 210.1 200.037 210.1H204.18C204.484 210.1 204.73 209.873 204.73 209.594C204.73 209.315 204.484 209.089 204.18 209.089Z" fill="#969696"/>
<path d="M204.18 211.52H200.037C199.733 211.52 199.487 211.746 199.487 212.025C199.487 212.305 199.733 212.531 200.037 212.531H204.18C204.484 212.531 204.73 212.305 204.73 212.025C204.73 211.746 204.484 211.52 204.18 211.52Z" fill="#969696"/>
<path d="M214.924 215.678H199.797C199.493 215.678 199.247 215.904 199.247 216.183C199.247 216.462 199.493 216.689 199.797 216.689H214.924C215.228 216.689 215.475 216.462 215.475 216.183C215.475 215.904 215.228 215.678 214.924 215.678Z" fill="#969696"/>
<path d="M214.924 218.066H199.797C199.493 218.066 199.247 218.292 199.247 218.571C199.247 218.851 199.493 219.077 199.797 219.077H214.924C215.228 219.077 215.475 218.851 215.475 218.571C215.475 218.292 215.228 218.066 214.924 218.066Z" fill="#969696"/>
<path d="M214.924 220.454H199.797C199.493 220.454 199.247 220.68 199.247 220.96C199.247 221.239 199.493 221.465 199.797 221.465H214.924C215.228 221.465 215.475 221.239 215.475 220.96C215.475 220.68 215.228 220.454 214.924 220.454Z" fill="#969696"/>
<path d="M111.215 240.855H25.7767C25.3791 240.855 25.0569 241.151 25.0569 241.516V241.925C25.0569 242.291 25.3791 242.587 25.7767 242.587H111.215C111.613 242.587 111.935 242.291 111.935 241.925V241.516C111.935 241.151 111.613 240.855 111.215 240.855Z" fill="#D8D8D8"/>
<path d="M61.866 206.462H56.6753C55.848 206.462 55.1772 207.079 55.1772 207.839V239.478C55.1772 240.238 55.848 240.855 56.6753 240.855H61.866C62.6934 240.855 63.3641 240.238 63.3641 239.478V207.839C63.3641 207.079 62.6934 206.462 61.866 206.462Z" fill="#969696"/>
<path d="M66.2137 214.525H64.6102C63.9218 214.525 63.3638 215.038 63.3638 215.671V239.709C63.3638 240.342 63.9218 240.855 64.6102 240.855H66.2137C66.9021 240.855 67.4601 240.342 67.4601 239.709V215.671C67.4601 215.038 66.9021 214.525 66.2137 214.525Z" fill="#D8D8D8"/>
<path d="M70.3513 214.525H68.666C68.0002 214.525 67.4604 215.021 67.4604 215.633V239.747C67.4604 240.359 68.0002 240.855 68.666 240.855H70.3513C71.0171 240.855 71.5568 240.359 71.5568 239.747V215.633C71.5568 215.021 71.0171 214.525 70.3513 214.525Z" fill="#969696"/>
<path d="M73.3216 216.409L71.9388 216.993C71.2926 217.266 71.0093 217.968 71.306 218.562L82.1834 240.34C82.4801 240.934 83.2444 241.194 83.8906 240.921L85.2733 240.338C85.9195 240.065 86.2029 239.363 85.9062 238.769L75.0287 216.991C74.7321 216.397 73.9677 216.137 73.3216 216.409Z" fill="#D8D8D8"/>
<path d="M59.2676 232.152C60.5313 232.152 61.5557 231.21 61.5557 230.049C61.5557 228.887 60.5313 227.945 59.2676 227.945C58.0039 227.945 56.9795 228.887 56.9795 230.049C56.9795 231.21 58.0039 232.152 59.2676 232.152Z" fill="#D8D8D8"/>
<path d="M61.339 233.41H57.1958C56.892 233.41 56.6458 233.637 56.6458 233.916C56.6458 234.195 56.892 234.422 57.1958 234.422H61.339C61.6428 234.422 61.8891 234.195 61.8891 233.916C61.8891 233.637 61.6428 233.41 61.339 233.41Z" fill="#D8D8D8"/>
<path d="M61.339 235.998H57.1958C56.892 235.998 56.6458 236.224 56.6458 236.503C56.6458 236.782 56.892 237.009 57.1958 237.009H61.339C61.6428 237.009 61.8891 236.782 61.8891 236.503C61.8891 236.224 61.6428 235.998 61.339 235.998Z" fill="#D8D8D8"/>
<path d="M65.8393 218.5C65.8393 218.283 65.648 218.107 65.412 218.107C65.1761 218.107 64.9849 218.283 64.9849 218.5V236.874C64.9849 237.091 65.1761 237.267 65.412 237.267C65.648 237.267 65.8393 237.091 65.8393 236.874V218.5Z" fill="#969696"/>
<path d="M47.8678 241.721H44.2044C43.3997 241.721 42.7473 242.32 42.7473 243.06C42.7473 243.8 43.3997 244.399 44.2044 244.399H47.8678C48.6725 244.399 49.3249 243.8 49.3249 243.06C49.3249 242.32 48.6725 241.721 47.8678 241.721Z" fill="#D8D8D8"/>
<path d="M92.7877 241.721H89.1244C88.3196 241.721 87.6672 242.32 87.6672 243.06C87.6672 243.8 88.3196 244.399 89.1244 244.399H92.7877C93.5925 244.399 94.2448 243.8 94.2448 243.06C94.2448 242.32 93.5925 241.721 92.7877 241.721Z" fill="#D8D8D8"/>
<path d="M230.93 115.207C230.93 113.327 229.272 111.802 227.226 111.802C225.18 111.802 223.522 113.327 223.522 115.207V126.96C223.522 128.84 225.18 130.365 227.226 130.365C229.272 130.365 230.93 128.84 230.93 126.96V115.207Z" fill="black"/>
<path d="M227.226 150.121C231.331 150.121 234.658 147.063 234.658 143.29C234.658 139.517 231.331 136.459 227.226 136.459C223.121 136.459 219.794 139.517 219.794 143.29C219.794 147.063 223.121 150.121 227.226 150.121Z" fill="#FBDC8E"/>
<path d="M227.226 122.694C224.283 122.694 221.369 123.226 218.649 124.261C215.93 125.295 213.459 126.812 211.378 128.725C209.297 130.637 207.646 132.908 206.519 135.407C205.393 137.906 204.813 140.585 204.813 143.29H249.639C249.639 140.585 249.059 137.906 247.933 135.407C246.806 132.908 245.155 130.637 243.074 128.725C240.993 126.812 238.522 125.295 235.803 124.261C233.083 123.226 230.169 122.694 227.226 122.694Z" fill="#AB8DE5"/>
<path d="M227.226 115.723V41" stroke="black" stroke-width="2" stroke-linecap="round" stroke-linejoin="round"/>
<path d="M56.4082 161.46C58.2342 161.46 59.7145 160.099 59.7145 158.421C59.7145 156.742 58.2342 155.382 56.4082 155.382C54.5821 155.382 53.1018 156.742 53.1018 158.421C53.1018 160.099 54.5821 161.46 56.4082 161.46Z" fill="#F8CDBA"/>
<path d="M261.033 357.142C261.453 358.613 263.092 359.492 264.692 359.105C266.292 358.718 267.249 357.212 266.828 355.741L236.867 250.992C236.446 249.521 234.808 248.642 233.207 249.028C231.607 249.415 230.651 250.921 231.071 252.392L261.033 357.142Z" fill="#969696"/>
<path d="M230.774 252.397C231.194 250.926 230.238 249.42 228.638 249.033C227.037 248.646 225.399 249.525 224.978 250.996L195.017 355.746C194.596 357.217 195.552 358.723 197.153 359.109C198.753 359.496 200.392 358.617 200.812 357.146L230.774 252.397Z" fill="#969696"/>
<path d="M189.431 252.396C189.851 250.925 188.895 249.419 187.295 249.032C185.694 248.646 184.056 249.525 183.635 250.996L153.674 355.745C153.253 357.216 154.209 358.722 155.81 359.109C157.41 359.495 159.049 358.616 159.469 357.145L189.431 252.396Z" fill="#D8D8D8"/>
<path d="M219.169 355.208C219.582 356.684 221.219 357.571 222.824 357.191C224.429 356.811 225.395 355.307 224.981 353.831L195.522 248.771C195.109 247.296 193.472 246.408 191.867 246.789C190.262 247.169 189.296 248.673 189.71 250.148L219.169 355.208Z" fill="#D8D8D8"/>
<path d="M88.0556 252.399C88.4764 250.928 87.5201 249.422 85.9197 249.035C84.3193 248.648 82.6809 249.527 82.2601 250.998L52.2989 355.748C51.8781 357.219 52.8344 358.725 54.4348 359.111C56.0351 359.498 57.6736 358.619 58.0943 357.148L88.0556 252.399Z" fill="#969696"/>
<path d="M117.806 357.148C118.226 358.619 119.865 359.498 121.465 359.112C123.065 358.725 124.022 357.219 123.601 355.748L93.6397 250.998C93.2189 249.527 91.5805 248.649 89.9801 249.035C88.3797 249.422 87.4235 250.928 87.8442 252.399L117.806 357.148Z" fill="#969696"/>
<path d="M249.623 243.462H27.0927C25.9683 243.462 25.0569 244.667 25.0569 246.153V249.771C25.0569 251.257 25.9683 252.462 27.0927 252.462H249.623C250.747 252.462 251.659 251.257 251.659 249.771V246.153C251.659 244.667 250.747 243.462 249.623 243.462Z" fill="#D8D8D8"/>
<path d="M45.2338 252.4C45.6546 250.929 44.6983 249.423 43.0979 249.037C41.4976 248.65 39.8591 249.529 39.4384 251L9.47708 355.749C9.05634 357.22 10.0126 358.726 11.613 359.113C13.2134 359.5 14.8518 358.621 15.2725 357.15L45.2338 252.4Z" fill="#D8D8D8"/>
<path d="M74.9835 357.149C75.4042 358.62 77.0427 359.498 78.643 359.112C80.2434 358.725 81.1997 357.219 80.7789 355.748L50.8177 250.999C50.3969 249.528 48.7585 248.649 47.1581 249.035C45.5577 249.422 44.6014 250.928 45.0222 252.399L74.9835 357.149Z" fill="#D8D8D8"/>
<path d="M28.3879 157.462H7.02236C3.14402 157.462 0 160.352 0 163.917V173.497C0 177.061 3.14402 179.951 7.02236 179.951H28.3879C32.2662 179.951 35.4102 177.061 35.4102 173.497V163.917C35.4102 160.352 32.2662 157.462 28.3879 157.462Z" fill="#D8D8D8"/>
<path d="M12.652 161.082H7.32666V176.331H12.652V161.082Z" fill="#AB8DE5"/>
<path d="M20.3707 171.227H15.0454V176.337H20.3707V171.227Z" fill="#AB8DE5"/>
<path d="M28.0836 166.924H22.7583V176.331H28.0836V166.924Z" fill="#AB8DE5"/>
<defs>
<clipPath id="clip0_1048_79645">
<rect width="124.195" height="300" fill="white" transform="translate(30.5042 58)"/>
</clipPath>
</defs>
</svg>
