<svg width="268" height="402" viewBox="0 0 268 402" fill="none" xmlns="http://www.w3.org/2000/svg">
<g clip-path="url(#clip0_1048_79925)">
<path d="M76.521 110H26.975C24.1062 110 21.7886 107.911 21.7886 105.326V60.6741C21.7886 58.0887 24.1062 56 26.975 56H76.521C79.3897 56 81.7073 58.0887 81.7073 60.6741V105.326C81.7073 107.911 79.3756 110 76.521 110Z" fill="#1F161E"/>
<path d="M72.2463 107H22.5342C19.7114 107 17.4309 104.907 17.4309 102.316V56.6844C17.4309 54.0933 19.7114 52 22.5342 52H72.2463C75.0691 52 77.3496 54.0933 77.3496 56.6844V102.316C77.3496 104.907 75.0691 107 72.2463 107Z" fill="white"/>
<path fill-rule="evenodd" clip-rule="evenodd" d="M22.9746 51.7691C20.3713 51.7691 18.2687 53.699 18.2687 56.0886V101.911C18.2687 104.301 20.3713 106.231 22.9746 106.231H72.8954C75.4987 106.231 77.6012 104.301 77.6012 101.911V56.0886C77.6012 53.699 75.4987 51.7691 72.8954 51.7691H22.9746ZM17.4309 56.0886C17.4309 53.2742 19.9085 51 22.9746 51H72.8954C75.9614 51 78.439 53.2742 78.439 56.0886V101.911C78.439 104.726 75.9614 107 72.8954 107H22.9746C19.9085 107 17.4309 104.726 17.4309 101.911V56.0886Z" fill="#1F161E"/>
<path fill-rule="evenodd" clip-rule="evenodd" d="M47.3902 58.7679C34.9162 58.7679 24.804 68.05 24.804 79.5C24.804 90.95 34.9162 100.232 47.3902 100.232C59.8643 100.232 69.9765 90.95 69.9765 79.5C69.9765 68.05 59.8643 58.7679 47.3902 58.7679ZM23.9675 79.5C23.9675 67.6259 34.4542 58 47.3902 58C60.3263 58 70.813 67.6259 70.813 79.5C70.813 91.3741 60.3263 101 47.3902 101C34.4542 101 23.9675 91.3741 23.9675 79.5Z" fill="#1F161E"/>
<path fill-rule="evenodd" clip-rule="evenodd" d="M33.8581 70.1439C33.9981 69.9833 34.2605 69.9525 34.444 70.075L46.3076 77.9937L43.5469 70.5889C43.4753 70.3968 43.5952 70.1904 43.8147 70.1278C44.0342 70.0651 44.2701 70.17 44.3417 70.3621L47.935 80L33.9369 70.6565C33.7533 70.534 33.7181 70.3045 33.8581 70.1439Z" fill="#1F161E"/>
<path d="M241.89 45.7673H124.142V159.438H241.89V45.7673Z" fill="#FAFAFA"/>
<path d="M241.89 159.447C241.89 158.538 241.846 113.812 241.781 45.7763L241.89 45.8808H124.157L124.286 45.7627C124.286 87.4998 124.286 126.543 124.286 159.433L124.172 159.334L241.92 159.433L124.172 159.538H124.063V159.447C124.063 126.556 124.063 87.5135 124.063 45.7763V45.6582H124.206H241.94H242.054V45.7627C241.935 113.803 241.89 158.538 241.89 159.447Z" fill="#263238"/>
<path d="M173.29 126.733C172.887 126.836 172.466 126.864 172.052 126.815C171.634 126.841 171.214 126.787 170.82 126.656C171.222 126.554 171.643 126.527 172.057 126.579C172.475 126.55 172.895 126.603 173.29 126.733Z" fill="#263238"/>
<path d="M178.239 126.87C177.836 126.977 177.413 127.005 176.997 126.951C176.579 126.977 176.16 126.925 175.764 126.797C176.169 126.695 176.591 126.667 177.007 126.715C177.425 126.689 177.844 126.742 178.239 126.87Z" fill="#263238"/>
<path d="M183.184 127.02C182.782 127.122 182.361 127.15 181.947 127.101C181.528 127.128 181.108 127.074 180.714 126.942C181.117 126.84 181.537 126.812 181.952 126.861C182.37 126.834 182.79 126.889 183.184 127.02Z" fill="#263238"/>
<path d="M188.134 127.188C187.731 127.295 187.308 127.323 186.892 127.27C186.474 127.295 186.055 127.243 185.659 127.115C186.064 127.013 186.486 126.985 186.902 127.033C187.32 127.008 187.739 127.06 188.134 127.188Z" fill="#263238"/>
<path d="M193.079 127.315C192.677 127.418 192.256 127.445 191.842 127.397C191.423 127.423 191.004 127.369 190.609 127.238C191.012 127.135 191.432 127.107 191.847 127.156C192.265 127.13 192.685 127.184 193.079 127.315Z" fill="#263238"/>
<path d="M197.43 126.788C197.48 126.788 197.475 127.07 197.43 127.456V127.547H197.321C197.168 127.547 196.99 127.547 196.826 127.547C196.408 127.573 195.989 127.52 195.594 127.392C195.997 127.288 196.42 127.26 196.836 127.311C197.019 127.311 197.193 127.311 197.331 127.338L197.207 127.429C197.282 127.038 197.376 126.779 197.43 126.788Z" fill="#263238"/>
<path d="M198.569 122.372C198.591 122.755 198.527 123.139 198.381 123.498C198.318 123.878 198.17 124.242 197.945 124.566C197.986 123.803 198.198 123.056 198.569 122.372Z" fill="#263238"/>
<path d="M200.069 118.042C200.06 118.426 199.967 118.804 199.796 119.155C199.703 119.531 199.526 119.885 199.277 120.195C199.286 119.811 199.379 119.433 199.549 119.082C199.644 118.706 199.821 118.352 200.069 118.042Z" fill="#263238"/>
<path d="M201.88 113.816C201.844 114.199 201.724 114.571 201.529 114.911C201.407 115.279 201.205 115.621 200.935 115.915C200.972 115.533 201.092 115.161 201.286 114.82C201.407 114.452 201.609 114.11 201.88 113.816Z" fill="#263238"/>
<path d="M203.994 109.709C203.933 110.09 203.786 110.455 203.563 110.781C203.416 111.142 203.19 111.471 202.9 111.749C203.106 111.006 203.478 110.311 203.994 109.709Z" fill="#263238"/>
<path d="M206.414 105.751C206.327 106.125 206.158 106.479 205.919 106.792C205.744 107.137 205.495 107.446 205.187 107.7C205.273 107.326 205.442 106.973 205.682 106.66C206.023 106.128 206.355 105.715 206.414 105.751Z" fill="#263238"/>
<path d="M209.033 101.898C208.928 102.27 208.744 102.619 208.493 102.925C208.132 103.461 207.79 103.866 207.731 103.834C207.834 103.462 208.017 103.113 208.27 102.807C208.642 102.271 208.978 101.867 209.033 101.898Z" fill="#263238"/>
<path d="M211.344 97.8772C211.284 98.257 211.137 98.6208 210.914 98.9449C210.765 99.305 210.54 99.634 210.25 99.9127C210.312 99.5319 210.459 99.1669 210.681 98.8404C210.829 98.4816 211.055 98.154 211.344 97.8772Z" fill="#263238"/>
<path d="M213.156 93.6472C213.139 94.0313 213.038 94.4084 212.859 94.7558C212.759 95.1302 212.575 95.4814 212.319 95.7872C212.338 95.4034 212.439 95.0267 212.616 94.6786C212.717 94.3044 212.901 93.9532 213.156 93.6472Z" fill="#263238"/>
<path d="M214.329 89.2354C214.372 89.6178 214.33 90.0043 214.205 90.3712C214.162 90.7544 214.034 91.1255 213.829 91.4617C213.786 91.0793 213.828 90.6927 213.953 90.3258C213.993 89.942 214.121 89.5703 214.329 89.2354Z" fill="#263238"/>
<path d="M214.705 84.7056C214.817 85.0765 214.848 85.4642 214.795 85.846C214.822 86.2297 214.764 86.6144 214.626 86.9773C214.51 86.6087 214.479 86.2216 214.537 85.8415C214.51 85.4563 214.567 85.0701 214.705 84.7056Z" fill="#263238"/>
<path d="M214.151 80.1982C214.342 80.5399 214.453 80.9144 214.478 81.2978C214.588 81.6692 214.613 82.0574 214.552 82.4382C214.364 82.0956 214.252 81.7216 214.225 81.3387C214.118 80.9668 214.093 80.5791 214.151 80.1982Z" fill="#263238"/>
<path d="M212.631 75.8818C212.89 76.1846 213.079 76.5324 213.186 76.9041C213.368 77.2498 213.474 77.625 213.498 78.0082C213.238 77.7065 213.049 77.3583 212.943 76.9859C212.76 76.6409 212.654 76.2654 212.631 75.8818Z" fill="#263238"/>
<path d="M210.409 71.8291C210.468 71.7927 210.785 72.2153 211.117 72.7651C211.359 73.0813 211.528 73.4402 211.612 73.8192C211.309 73.5528 211.068 73.2328 210.904 72.8786C210.66 72.5649 210.491 72.2071 210.409 71.8291Z" fill="#263238"/>
<path d="M207.513 68.1532C207.568 68.1078 207.954 68.4758 208.379 68.971C208.805 69.4663 209.102 69.8798 209.043 69.9343C208.983 69.9888 208.597 69.6071 208.176 69.1164C207.887 68.8395 207.661 68.5119 207.513 68.1532Z" fill="#263238"/>
<path d="M203.959 65.0001C204.003 64.9455 204.454 65.2454 204.949 65.6589C205.444 66.0723 205.845 66.454 205.795 66.4994C205.42 66.3448 205.082 66.1241 204.8 65.8497C204.29 65.4272 203.914 65.05 203.959 65.0001Z" fill="#263238"/>
<path d="M199.821 62.5146C200.229 62.5934 200.614 62.7481 200.954 62.969C201.548 63.2916 201.994 63.596 201.944 63.6505C201.537 63.5631 201.153 63.4008 200.816 63.1735C200.439 63.0171 200.101 62.7931 199.821 62.5146Z" fill="#263238"/>
<path d="M195.257 60.7793C195.676 60.7923 196.088 60.8868 196.465 61.0565C196.87 61.1512 197.25 61.3196 197.583 61.5517C197.165 61.5345 196.754 61.4403 196.376 61.2745C195.97 61.1815 195.589 61.013 195.257 60.7793Z" fill="#263238"/>
<path d="M190.436 59.7796C190.851 59.7303 191.272 59.7613 191.673 59.8704C192.091 59.8995 192.498 60.0094 192.866 60.193C192.451 60.2396 192.03 60.2086 191.629 60.1022C191.211 60.0688 190.806 59.9591 190.436 59.7796Z" fill="#263238"/>
<path d="M185.501 59.4342C185.906 59.3349 186.328 59.3117 186.743 59.3661C187.162 59.3453 187.581 59.4009 187.976 59.5296C187.572 59.6331 187.148 59.6579 186.733 59.6023C186.314 59.6224 185.895 59.5652 185.501 59.4342Z" fill="#263238"/>
<path d="M180.566 59.6477C180.95 59.4965 181.366 59.4236 181.784 59.4341C182.193 59.3572 182.616 59.3572 183.026 59.4341C182.641 59.5831 182.226 59.6559 181.808 59.6477C181.398 59.724 180.976 59.724 180.566 59.6477Z" fill="#263238"/>
<path d="M175.705 60.502C176.067 60.3077 176.467 60.1825 176.883 60.134C177.281 60.011 177.702 59.9646 178.12 59.9977C177.758 60.1901 177.358 60.3151 176.942 60.3657C176.544 60.4863 176.123 60.5326 175.705 60.502Z" fill="#263238"/>
<path d="M171.037 61.9922C171.362 61.7493 171.738 61.5699 172.141 61.4652C172.515 61.29 172.925 61.1879 173.344 61.1653C173.015 61.4035 172.638 61.581 172.235 61.6878C171.862 61.8621 171.455 61.9657 171.037 61.9922Z" fill="#263238"/>
<path d="M166.701 64.1687C166.662 64.1142 167.102 63.8052 167.691 63.4781C168.025 63.2468 168.408 63.0813 168.815 62.9919C168.849 63.051 168.409 63.36 167.825 63.6826C167.49 63.9128 167.108 64.0782 166.701 64.1687Z" fill="#263238"/>
<path d="M162.885 67.0537C162.835 67.0083 163.207 66.6266 163.717 66.1995C164.226 65.7724 164.672 65.4725 164.706 65.5225C164.741 65.5725 164.38 65.9542 163.88 66.3767C163.38 66.7993 162.939 67.0991 162.885 67.0537Z" fill="#263238"/>
<path d="M159.776 70.5796C159.91 70.2145 160.122 69.8778 160.4 69.5891C160.806 69.0802 161.182 68.6804 161.236 68.744C161.1 69.1075 160.886 69.4426 160.608 69.7299C160.212 70.2343 159.836 70.6159 159.776 70.5796Z" fill="#263238"/>
<path d="M157.475 74.596C157.513 74.2108 157.649 73.8391 157.871 73.5101C158.168 72.9421 158.46 72.506 158.524 72.5378C158.466 72.918 158.323 73.2831 158.103 73.61C157.801 74.1689 157.554 74.6233 157.475 74.596Z" fill="#263238"/>
<path d="M155.797 78.8672C155.803 78.4814 155.896 78.1009 156.069 77.7495C156.153 77.3748 156.322 77.0205 156.564 76.709C156.556 77.0936 156.467 77.4731 156.302 77.8267C156.211 78.2012 156.04 78.5551 155.797 78.8672Z" fill="#263238"/>
<path d="M182.14 126.665C180.821 125.336 179.672 123.872 178.715 122.303C177.758 120.717 177.421 118.878 177.759 117.092C178.175 115.338 179.625 113.73 181.536 113.353C183.021 113.062 184.664 113.466 185.951 112.753C186.394 112.465 186.769 112.096 187.051 111.67C187.334 111.245 187.519 110.77 187.595 110.277C187.808 109.3 187.798 108.291 187.996 107.31C188.723 103.72 192.381 100.949 196.326 100.494C200.271 100.04 204.311 101.571 207.176 104.106C207.176 104.106 198.227 119.314 197.306 127.451L182.14 126.665Z" fill="#55B79D"/>
<path d="M188.08 126.429C188.08 126.429 188.08 126.302 188.02 126.052C187.961 125.802 187.941 125.411 187.882 124.93C187.768 123.925 187.605 122.471 187.387 120.609C187.001 116.856 186.397 111.422 186.179 104.679C186.129 102.993 186.095 101.226 186.12 99.3857C186.144 97.5455 186.169 95.6281 186.387 93.6426C186.561 91.5741 187.17 89.5561 188.179 87.6996C189.282 85.7064 191.143 84.1542 193.411 83.3378C194.626 82.9465 195.938 82.8858 197.189 83.1631C198.44 83.4404 199.578 84.0438 200.464 84.9008C200.924 85.3476 201.281 85.8747 201.514 86.4508C201.747 87.0269 201.851 87.6401 201.821 88.2539C201.716 89.4999 201.184 90.6835 200.301 91.6343C199.418 92.5959 198.296 93.3485 197.029 93.8289C195.759 94.3133 194.429 94.6521 193.069 94.8376C190.328 95.234 187.553 95.4074 184.778 95.3555C181.996 95.3277 179.222 95.08 176.487 94.6149C175.141 94.3672 173.836 93.9578 172.606 93.3972C171.388 92.8349 170.306 92.053 169.424 91.0982C168.54 90.1602 167.943 89.0233 167.696 87.8041C167.47 86.5904 167.7 85.3421 168.349 84.2647C168.953 83.1898 169.974 82.3614 171.21 81.9429C171.822 81.7631 172.467 81.6994 173.106 81.7557C173.745 81.8119 174.365 81.9869 174.928 82.2701C176.016 82.8009 176.935 83.5841 177.591 84.5418C178.211 85.4858 178.634 86.5273 178.838 87.6133C179.264 89.7261 179.14 91.7934 179.175 93.7698C179.175 97.7318 179.205 101.421 179.219 104.792C179.219 111.522 179.244 116.974 179.254 120.759C179.254 122.631 179.254 124.089 179.254 125.098C179.254 125.584 179.254 125.956 179.254 126.224C179.254 126.493 179.254 126.611 179.254 126.611C179.254 126.611 179.254 126.479 179.254 126.224C179.254 125.97 179.254 125.584 179.224 125.098C179.224 124.089 179.19 122.631 179.16 120.759C179.12 116.974 179.066 111.522 178.997 104.792C178.967 101.421 178.937 97.7318 178.903 93.7698C178.858 91.7934 178.972 89.7261 178.551 87.6769C178.355 86.6392 177.95 85.644 177.358 84.7418C176.741 83.8268 175.87 83.0789 174.834 82.5745C174.316 82.3145 173.745 82.1539 173.157 82.1023C172.569 82.0508 171.976 82.1094 171.413 82.2746C170.269 82.6679 169.327 83.4392 168.77 84.4373C168.165 85.4433 167.951 86.6079 168.161 87.7405C168.4 88.8956 168.967 89.9724 169.805 90.8619C171.473 92.7112 174.022 93.7562 176.65 94.2514C179.332 94.7057 182.051 94.9504 184.778 94.983C187.536 95.0346 190.294 94.8644 193.02 94.4741C194.343 94.2921 195.636 93.9609 196.871 93.4881C198.08 93.0322 199.153 92.3171 199.999 91.4026C200.834 90.5101 201.335 89.3954 201.43 88.2221C201.46 87.6562 201.365 87.0905 201.152 86.5588C200.939 86.0271 200.61 85.5405 200.187 85.128C199.351 84.3215 198.279 83.7533 197.1 83.4914C195.921 83.2295 194.685 83.285 193.539 83.6513C191.356 84.4348 189.563 85.9273 188.5 87.845C187.507 89.6606 186.905 91.6354 186.728 93.6608C186.501 95.6236 186.481 97.5364 186.441 99.372C186.402 101.208 186.441 102.975 186.471 104.656C186.669 111.394 187.209 116.828 187.55 120.581C187.728 122.449 187.867 123.903 187.961 124.907C188.005 125.388 188.035 125.766 188.06 126.034C188.085 126.302 188.08 126.429 188.08 126.429Z" fill="#263238"/>
<path d="M170.825 126.279C170.825 126.279 170.825 126.37 170.825 126.543C170.825 126.715 170.825 126.997 170.825 127.31C170.825 127.997 170.825 128.978 170.795 130.227C170.755 132.758 170.701 136.361 170.632 140.709V140.646L178.873 150.405L178.774 150.36H183.724H189.006L188.912 150.396L196.995 142.218L196.965 142.281C197.094 137.665 197.203 133.817 197.277 131.104C197.321 129.769 197.356 128.714 197.381 127.978L197.42 127.156V126.942C197.42 126.897 197.42 126.87 197.42 126.87C197.42 126.87 197.42 126.897 197.42 126.942C197.42 126.988 197.42 127.07 197.42 127.156C197.42 127.356 197.42 127.61 197.42 127.978C197.42 128.714 197.42 129.773 197.376 131.109C197.321 133.835 197.247 137.67 197.158 142.286V142.327L197.128 142.354L189.07 150.533L189.035 150.569H188.976L183.694 150.592H178.745H178.68L178.641 150.546L170.429 140.764V140.737V140.7C170.533 136.357 170.617 132.754 170.681 130.223C170.716 128.973 170.746 127.992 170.765 127.306C170.765 126.979 170.765 126.724 170.8 126.538C170.835 126.352 170.825 126.279 170.825 126.279Z" fill="#263238"/>
<path d="M196.391 140.991C196.062 140.88 195.745 140.74 195.445 140.573C194.846 140.292 193.96 139.905 192.851 139.496C186.993 137.338 180.475 137.232 174.537 139.197C173.641 139.486 172.763 139.817 171.903 140.187C171.595 140.339 171.274 140.468 170.943 140.573C171.216 140.368 171.515 140.194 171.834 140.055C172.673 139.633 173.541 139.263 174.433 138.947C180.414 136.818 187.066 136.927 192.96 139.251C193.841 139.598 194.696 139.997 195.519 140.446C195.83 140.599 196.122 140.782 196.391 140.991Z" fill="#263238"/>
<path d="M196.584 137.252C196.257 137.137 195.94 136.997 195.638 136.834C195.04 136.552 194.153 136.166 193.045 135.757C187.186 133.599 180.668 133.492 174.73 135.457C173.835 135.746 172.956 136.077 172.097 136.447C171.788 136.599 171.467 136.728 171.136 136.834C171.409 136.628 171.708 136.454 172.027 136.316C172.867 135.893 173.737 135.523 174.631 135.207C180.61 133.078 187.261 133.187 193.154 135.511C194.034 135.858 194.889 136.257 195.713 136.706C196.024 136.858 196.317 137.041 196.584 137.252Z" fill="#263238"/>
<path d="M196.529 133.685C196.201 133.573 195.884 133.433 195.584 133.267C194.985 132.985 194.099 132.599 192.995 132.19C187.136 130.035 180.619 129.929 174.68 131.89C173.552 132.258 172.661 132.617 172.052 132.881C171.735 133.036 171.404 133.165 171.062 133.267C171.338 133.066 171.637 132.893 171.953 132.749C172.793 132.327 173.663 131.957 174.557 131.64C180.538 129.512 187.19 129.621 193.084 131.945C193.973 132.29 194.836 132.69 195.668 133.14C195.977 133.29 196.266 133.473 196.529 133.685Z" fill="#263238"/>
<path d="M189.327 150.76C188.966 150.305 188.562 149.881 188.119 149.492C187.03 148.571 185.61 148.049 184.129 148.028C182.648 148.008 181.21 148.488 180.091 149.379C179.638 149.756 179.219 150.166 178.838 150.605C178.892 150.459 178.972 150.322 179.076 150.201C179.328 149.85 179.629 149.531 179.972 149.251C181.104 148.293 182.593 147.771 184.133 147.793C185.673 147.815 187.144 148.379 188.243 149.37C188.575 149.66 188.864 149.988 189.104 150.346C189.204 150.471 189.28 150.611 189.327 150.76Z" fill="#263238"/>
<path d="M134.562 39.4971L115.48 55.3586L117.91 56.1265L118.044 58.6118C118.044 58.6118 121.509 58.9026 121.098 58.9344C120.761 58.9344 121.296 61.7878 121.296 61.7878L140.927 44.286L137.957 44.1224V41.7325L134.859 41.6962L134.562 39.4971Z" fill="#EBEBEB"/>
<path d="M124.142 59.2526L139.264 45.7673H143.917L124.142 59.2526Z" fill="#E0E0E0"/>
<path d="M246.37 58.6618L229.198 40.1968L228.372 42.5458L225.674 42.6776C225.674 42.6776 225.362 46.0443 225.328 45.6309C225.328 45.3083 222.239 45.8262 222.239 45.8262L241.207 64.8229L241.385 61.9468H243.974L244.008 58.948L246.37 58.6618Z" fill="#EBEBEB"/>
<path d="M234.223 45.7673L241.89 53.8549V50.6426L234.223 45.7673Z" fill="#E0E0E0"/>
<path d="M168.868 295.13C168.552 296.01 179.763 335.13 179.763 335.13L187.454 333.66L176.887 295.13H168.868Z" fill="#EBEBEB"/>
<path d="M228.471 289.54L213.088 335.13H222.065L236.805 292.77L228.471 289.54Z" fill="#969696"/>
<path d="M242.568 282.48L224.952 335.13H233.918L250.903 285.71L242.568 282.48Z" fill="#EBEBEB"/>
<path d="M174.316 331.89L183.292 360.42H228.471L236.805 331.89H174.316Z" fill="#E0E0E0"/>
<path d="M197.629 331.89C197.585 331.797 197.552 331.7 197.531 331.6C197.466 331.38 197.39 331.09 197.292 330.73L196.42 327.36L193.315 314.9C190.733 304.31 187.16 289.68 183.173 273.35L183.456 273.55H175.536L175.819 273.23C179.828 289.58 183.445 304.23 186.016 314.82C187.28 320.08 188.304 324.34 189.023 327.31L189.807 330.7C189.883 331.07 189.949 331.36 189.992 331.59C190.004 331.69 190.004 331.79 189.992 331.89C189.946 331.797 189.91 331.7 189.883 331.6C189.883 331.38 189.742 331.09 189.644 330.73C189.437 329.92 189.132 328.8 188.761 327.36C187.999 324.36 186.92 320.15 185.58 314.9C182.944 304.31 179.283 289.68 175.209 273.35L175.187 273H183.674L183.728 273.21C187.65 289.55 191.158 304.21 193.697 314.79C194.928 320.05 195.875 324.31 196.627 327.28C196.954 328.73 197.215 329.87 197.39 330.67C197.477 331.04 197.531 331.33 197.586 331.56C197.612 331.668 197.626 331.779 197.629 331.89Z" fill="#969696"/>
<g clip-path="url(#clip1_1048_79925)">
<path d="M423.625 360.36C423.625 360.5 293.907 360.62 133.935 360.62C-26.0374 360.62 -155.789 360.5 -155.789 360.36C-155.789 360.22 -26.1464 360.09 133.935 360.09C294.016 360.09 423.625 360.21 423.625 360.36Z" fill="#263238"/>
<path d="M114.466 331C110.647 329.381 106.363 328.929 102.243 329.71C99.9859 329.906 97.8651 330.789 96.2185 332.22C94.726 333.76 94.4536 336.45 96.2185 337.75C97.3393 338.441 98.6887 338.749 100.032 338.62C103.3 338.56 106.84 338.02 109.433 339.79C110.915 340.79 111.906 342.48 113.671 342.97C114.552 343.152 115.474 343.067 116.298 342.726C117.121 342.385 117.802 341.807 118.236 341.08C119.068 339.59 119.24 337.863 118.715 336.26C118.498 335.141 118.001 334.084 117.264 333.172C116.527 332.259 115.569 331.516 114.466 331Z" fill="#E8505B"/>
<path d="M114.466 331C110.647 329.381 106.363 328.929 102.243 329.71C99.9859 329.906 97.8651 330.789 96.2185 332.22C94.726 333.76 94.4536 336.45 96.2185 337.75C97.3393 338.441 98.6887 338.749 100.032 338.62C103.3 338.56 106.84 338.02 109.433 339.79C110.915 340.79 111.906 342.48 113.671 342.97C114.552 343.152 115.474 343.067 116.298 342.726C117.121 342.385 117.802 341.807 118.236 341.08C119.068 339.59 119.24 337.863 118.715 336.26C118.498 335.141 118.001 334.084 117.264 333.172C116.527 332.259 115.569 331.516 114.466 331Z" fill="#FBDC8E"/>
<path d="M122.877 315.89C120.622 318.89 116.199 317.89 114.161 316.12C112.124 314.35 111.22 311.68 110.414 309.17C108.573 303.44 106.71 297.43 108.006 291.57C108.318 289.797 109.155 288.136 110.425 286.77C111.067 286.098 111.89 285.593 112.811 285.306C113.733 285.018 114.721 284.957 115.676 285.13C117.855 285.65 119.304 287.65 120.317 289.54C123.299 295.15 124.884 301.298 124.958 307.54C124.958 310.44 124.642 313.49 122.877 315.89Z" fill="#E8505B"/>
<path d="M122.877 315.89C120.622 318.89 116.199 317.89 114.161 316.12C112.124 314.35 111.22 311.68 110.414 309.17C108.573 303.44 106.71 297.43 108.006 291.57C108.318 289.797 109.155 288.136 110.425 286.77C111.067 286.098 111.89 285.593 112.811 285.306C113.733 285.018 114.721 284.957 115.676 285.13C117.855 285.65 119.304 287.65 120.317 289.54C123.299 295.15 124.884 301.298 124.958 307.54C124.958 310.44 124.642 313.49 122.877 315.89Z" fill="#78E5E1"/>
<path d="M129.152 320.13C127.966 318.734 127.172 317.092 126.837 315.349C126.503 313.606 126.64 311.814 127.235 310.13C128.458 306.775 130.667 303.795 133.619 301.52C136.96 298.748 140.861 296.605 145.101 295.21C146.738 294.586 148.505 294.299 150.276 294.37C151.159 294.414 152.018 294.654 152.777 295.071C153.536 295.487 154.173 296.067 154.634 296.76C155.865 298.87 154.721 301.46 153.468 303.56C151.286 307.294 148.783 310.862 145.984 314.23C143.739 316.93 141.158 319.6 137.704 320.83C134.251 322.06 130.666 321.94 128.814 319.75" fill="#AB8DE5"/>
<path d="M123.345 360.84C123.226 360.394 123.157 359.939 123.138 359.48C123.018 358.48 122.877 357.26 122.713 355.79C122.501 353.973 122.188 352.168 121.777 350.38C121.233 348.201 120.505 346.065 119.598 343.99C118.703 341.923 117.492 339.984 116.003 338.23C114.791 336.798 113.246 335.633 111.481 334.82C110.282 334.287 108.999 333.93 107.679 333.76C107.188 333.742 106.699 333.681 106.219 333.58C106.715 333.528 107.216 333.528 107.712 333.58C109.08 333.662 110.421 333.974 111.667 334.5C113.526 335.287 115.16 336.461 116.438 337.93C117.989 339.711 119.245 341.692 120.164 343.81C121.094 345.911 121.823 348.083 122.343 350.3C122.733 352.111 123.009 353.94 123.171 355.78C123.302 357.35 123.367 358.62 123.389 359.5C123.43 359.947 123.415 360.396 123.345 360.84Z" fill="#263238"/>
<path d="M123.106 358C123.08 357.794 123.08 357.586 123.106 357.38C123.106 356.9 123.106 356.31 123.106 355.58C123.106 354.02 123.106 351.77 122.975 348.98C122.79 343.41 122.212 335.72 121.134 327.27C120.055 318.82 118.661 311.27 117.397 305.77C117.092 304.41 116.787 303.18 116.504 302.1C116.22 301.02 116.003 300.1 115.785 299.34C115.567 298.58 115.436 298.06 115.316 297.6C115.249 297.398 115.209 297.19 115.196 296.98C115.295 297.17 115.375 297.367 115.436 297.57C115.589 298.02 115.774 298.57 116.013 299.28C116.253 299.99 116.536 300.95 116.841 302.03C117.146 303.11 117.484 304.33 117.811 305.69C119.543 312.793 120.856 319.977 121.744 327.21C122.833 335.67 123.324 343.38 123.4 348.97C123.465 351.76 123.4 354.02 123.345 355.58C123.345 356.31 123.269 356.91 123.236 357.38C123.22 357.591 123.176 357.799 123.106 358Z" fill="#263238"/>
<path d="M122.91 343.12C122.853 342.494 122.853 341.866 122.91 341.24C123.011 339.535 123.208 337.836 123.498 336.15C123.924 333.651 124.506 331.177 125.241 328.74C126.124 325.76 127.23 322.84 128.553 320C130.853 314.753 134.176 309.934 138.358 305.78C139.083 305.068 139.858 304.4 140.678 303.78C141.027 303.5 141.343 303.23 141.659 303L142.563 302.43C143.102 302.054 143.674 301.72 144.273 301.43C142.309 302.846 140.443 304.372 138.685 306C134.641 310.189 131.406 314.981 129.119 320.17C127.805 323.001 126.691 325.907 125.786 328.87C124.925 331.6 124.348 334.11 123.923 336.22C123.498 338.33 123.28 340.06 123.138 341.22C123.109 341.857 123.032 342.492 122.91 343.12Z" fill="#263238"/>
</g>
<path d="M26.1798 350.919C26.1159 351.879 25.4697 357.496 26.2863 358.489C27.7847 360.285 40.8726 360.195 41.5188 359.676C42.165 359.157 42.6053 358.002 42.0798 357.639C41.5543 357.276 36.4342 356.03 35.7667 355.55C35.0992 355.07 34.2754 352.651 34.7228 351.399" fill="#1F161E"/>
<path d="M91.0439 195.748C93.2737 200.366 112 250.68 111.567 258.016C111.134 265.352 67.801 340.943 65.4079 341.741C63.0147 342.539 53.0727 339.75 52.2703 337.765C51.4678 335.78 67.3678 290.668 67.801 279.116" fill="#1F161E"/>
<path d="M91.0439 195.748C89.9219 201.19 71.2878 276.236 71.2878 276.236L37.123 351.808C34.2825 353.073 25.9241 353.209 24.4613 352.807C22.9984 352.405 30.0216 280.037 32.7983 269.782C35.5749 259.528 42.8823 188.334 42.8823 188.334C42.8823 188.334 81.1588 188.912 91.0439 195.748Z" fill="#AB8FE2"/>
<path d="M81.8121 115.455C87.4506 117.861 123.405 134.018 126.494 134.018C129.583 134.018 162.448 117.057 164.38 115.915C166.219 117.595 169.024 120.241 168.343 121.104C167.661 121.967 129.974 154.132 126.778 154.132C123.582 154.132 91.2143 145.136 88.7004 142.665" fill="#FADB93"/>
<path d="M69.6119 111.945C101.923 107.107 94.2253 192.511 91.0439 195.748C87.8625 198.985 44.2812 191.208 41.4478 188.146C38.6143 185.085 46.9372 112.756 69.6119 111.945Z" fill="#FADB93"/>
<path d="M54.1663 338.303C53.7829 339.192 51.2832 344.362 51.7448 345.536C52.5756 347.663 65.0599 351.218 65.8481 350.9C66.6364 350.582 67.4459 349.603 67.0696 349.116C66.6932 348.63 62.2264 346.022 61.7435 345.373C61.2606 344.725 61.289 342.202 62.1412 341.131" fill="#1F161E"/>
<path d="M75.3001 116.395C75.3001 118.432 65.3582 118.587 65.3582 116.395V102.774H75.3001V116.395Z" fill="#F8CDBA"/>
<path d="M65.3511 109.345C65.3511 108.365 69.0083 103.033 70.9044 103.604C68.568 102.845 66.2103 102.223 65.3511 102.748V109.345Z" fill="black"/>
<path d="M71.9341 104.097C64.8 104.097 59.0166 98.8147 59.0166 92.2985C59.0166 85.7824 64.8 80.5 71.9341 80.5C79.0682 80.5 84.8515 85.7824 84.8515 92.2985C84.8515 98.8147 79.0682 104.097 71.9341 104.097Z" fill="#F8CDBA"/>
<path d="M84.9935 94.9059C83.8012 94.9059 82.8347 94.447 82.8347 93.881C82.8347 93.315 83.8012 92.8562 84.9935 92.8562C86.1858 92.8562 87.1523 93.315 87.1523 93.881C87.1523 94.447 86.1858 94.9059 84.9935 94.9059Z" fill="#FA9E9F"/>
<path d="M71.444 94.9059C70.2517 94.9059 69.2852 94.447 69.2852 93.881C69.2852 93.315 70.2517 92.8562 71.444 92.8562C72.6363 92.8562 73.6028 93.315 73.6028 93.881C73.6028 94.447 72.6363 94.9059 71.444 94.9059Z" fill="#FA9E9F"/>
<path d="M79.7314 91.7537C80.1361 92.2791 82.2097 94.4844 80.0225 95.3795" stroke="#1F161E" stroke-width="0.69" stroke-miterlimit="10" stroke-linecap="round"/>
<path d="M75.6481 97.9546C74.7771 97.7395 74.0205 97.2443 73.5177 96.5601" stroke="#1F161E" stroke-width="0.69" stroke-miterlimit="10" stroke-linecap="round"/>
<path d="M64.0515 95.4574C62.4788 95.4574 61.2039 94.2929 61.2039 92.8564C61.2039 91.4199 62.4788 90.2554 64.0515 90.2554C65.6242 90.2554 66.8992 91.4199 66.8992 92.8564C66.8992 94.2929 65.6242 95.4574 64.0515 95.4574Z" fill="#F8CDBA"/>
<path d="M42.0443 191.519C27.7208 191.162 17.4309 182.004 17.4309 158.439C17.4309 148.71 35.1417 119.417 38.6569 108.352C40.4749 102.638 39.012 85.8251 48.2935 77.2697C52.7674 73.1509 72.4382 74.1238 77.5157 76.0632C82.5932 78.0026 81.9967 83.8468 81.4783 84.7613C80.2639 83.8273 77.6009 81.9333 77.1251 81.9917C74.6325 82.2706 67.8294 89.2628 65.7629 92.4735C64.087 95.068 66.6719 111.18 63.3981 115.785C60.1244 120.39 48.5349 117.971 48.5349 117.971" fill="#1F161E"/>
<path d="M69.4983 146.258C67.517 148.522 52.8881 172.631 52.8881 176.257C52.8881 179.883 57.2271 205.581 58.0935 206.827C56.1122 208.182 50.9069 211.918 50.9069 211.918C50.9069 211.918 35.0424 186.33 35.0424 171.956C35.0424 166.858 47.6828 125.424 59.8333 115.915" fill="#FADB93"/>
<path d="M69.4983 146.258C67.517 148.522 52.8881 172.631 52.8881 176.257C52.8881 178.054 53.9604 185.279 55.1393 192.258" stroke="#1F161E" stroke-linecap="round" stroke-linejoin="round"/>
<path d="M64.7048 111.907C65.3084 116.693 50.0191 133.396 44.0611 138.286C38.1101 131.437 41.6821 114.469 41.6821 114.469L53.8255 109.344L64.7048 111.907Z" fill="#1F161E"/>
<path d="M50.9068 76.5174C47.4437 76.5174 44.6363 73.4914 44.6363 69.7587C44.6363 66.026 47.4437 63 50.9068 63C54.37 63 57.1774 66.026 57.1774 69.7587C57.1774 73.4914 54.37 76.5174 50.9068 76.5174Z" fill="#1F161E"/>
<path d="M87.2233 122.888C90.1633 128.784 91.9813 136.509 93.0181 144.695" stroke="#1F161E" stroke-linecap="round" stroke-linejoin="round"/>
<path d="M170.445 120.851C167.107 120.851 164.401 118.812 164.401 116.298C164.401 113.783 167.107 111.744 170.445 111.744C173.782 111.744 176.488 113.783 176.488 116.298C176.488 118.812 173.782 120.851 170.445 120.851Z" fill="#F8CDBA"/>
<path d="M167.007 102.748L174.301 123.815" stroke="black" stroke-width="3" stroke-miterlimit="10" stroke-linecap="round"/>
</g>
<defs>
<clipPath id="clip0_1048_79925">
<rect width="268" height="402" rx="8" fill="white"/>
</clipPath>
<clipPath id="clip1_1048_79925">
<rect width="579.414" height="75.84" fill="white" transform="translate(-155.789 285)"/>
</clipPath>
</defs>
</svg>
