<svg width="268" height="402" viewBox="0 0 268 402" fill="none" xmlns="http://www.w3.org/2000/svg">
<path d="M29.9768 315.296L28.2891 315.736L23.2639 312.04L22.344 309C22.344 309 19.7364 309.516 21.2492 313.414C22.7621 317.312 22.1235 316.377 22.1235 316.377C22.1235 316.377 16.6878 317.772 16.3685 318.337C16.1328 318.734 17.486 323.733 18.2463 326.432C18.4156 327.095 18.8236 327.686 19.4043 328.11C19.9851 328.533 20.7047 328.765 21.4469 328.768C21.6525 328.767 21.8571 328.742 22.0551 328.691C23.4159 328.349 30.0376 325.56 30.0376 325.56L32.9037 324.863L29.9768 315.296Z" fill="#EBEBEB"/>
<path d="M34.4699 313.246L36.6061 323.908L33.7704 324.633L30.6763 314.446L34.4699 313.246Z" fill="#EBEBEB"/>
<path d="M51.2256 172.031C48.3594 172.031 45.5213 171.512 42.8735 170.506C40.2258 169.499 37.8203 168.024 35.7946 166.164C33.769 164.304 32.1628 162.096 31.0681 159.667C29.9733 157.237 29.4113 154.634 29.4143 152.005C29.4163 146.7 31.7149 141.613 35.8049 137.861C39.8949 134.11 45.4415 132.002 51.2256 132C57.0097 132.002 62.5563 134.11 66.6463 137.861C70.7363 141.613 73.0349 146.7 73.0369 152.005C73.0399 154.634 72.4779 157.237 71.3832 159.667C70.2884 162.096 68.6822 164.304 66.6566 166.164C64.6309 168.024 62.2254 169.499 59.5777 170.506C56.9299 171.512 54.0918 172.031 51.2256 172.031Z" fill="#EBEBEB"/>
<path d="M51.2261 139.273C48.475 139.273 45.7857 140.021 43.4986 141.423C41.2115 142.826 39.4293 144.819 38.3775 147.15C37.3258 149.482 37.0518 152.047 37.5901 154.522C38.1285 156.996 39.4551 159.268 41.402 161.051C43.3489 162.834 45.8286 164.047 48.5274 164.536C51.2262 165.026 54.0227 164.771 56.563 163.802C59.1034 162.834 61.2734 161.196 62.7986 159.096C64.3237 156.996 65.1354 154.528 65.1309 152.005C65.1248 148.626 63.6572 145.388 61.0502 143.001C58.4432 140.613 54.9099 139.273 51.2261 139.273ZM51.2261 141.49C53.7622 141.49 56.226 142.265 58.2279 143.693C56.703 145.433 54.7123 146.781 52.4501 147.605C51.2506 145.594 49.8992 143.663 48.4056 141.825C49.3271 141.607 50.2744 141.494 51.2261 141.49ZM46.0412 142.64C47.558 144.452 48.9275 146.363 50.1389 148.358C46.8616 149.174 43.4766 149.568 40.0809 149.53C40.4747 148.055 41.2112 146.676 42.2399 145.487C43.2686 144.298 44.5653 143.327 46.0412 142.64ZM39.7388 152.005C39.7388 151.914 39.7388 151.824 39.7388 151.733C43.635 151.8 47.5202 151.33 51.2641 150.338C51.5378 150.84 51.7962 151.349 52.0243 151.858C48.0226 153.041 44.6021 155.477 42.3617 158.741C40.6515 156.848 39.7229 154.463 39.7388 152.005ZM51.2261 162.541C48.6698 162.54 46.1879 161.752 44.1786 160.302C46.4594 157.025 49.3711 154.885 52.9822 153.901C54.053 156.466 54.845 159.122 55.3466 161.829C54.0343 162.305 52.6371 162.553 51.2261 162.562V162.541ZM57.5969 160.763C57.0938 158.265 56.3509 155.812 55.377 153.434C57.7688 153.158 60.1933 153.228 62.5612 153.643C62.3169 155.084 61.7495 156.462 60.8951 157.691C60.0406 158.92 58.9175 159.973 57.5969 160.784V160.763ZM54.4495 151.335C54.1682 150.736 53.8717 150.136 53.56 149.55C56.0579 148.608 58.2661 147.119 59.9916 145.213C61.5973 146.957 62.5395 149.133 62.6753 151.412C59.9559 150.973 57.1757 150.954 54.4495 151.356V151.335Z" fill="white"/>
<path d="M80.8087 75.9928C83.1191 80.293 83.9871 85.1261 83.3027 89.8805C82.6183 94.635 80.4123 99.0973 76.9638 102.703C73.5153 106.309 68.9793 108.895 63.9296 110.136C58.8799 111.377 53.5433 111.216 48.5951 109.674C43.6469 108.132 39.3094 105.278 36.1312 101.472C32.953 97.667 31.0771 93.0817 30.7406 88.2964C30.4041 83.5112 31.6223 78.741 34.241 74.5894C36.8597 70.4378 40.7613 67.0912 45.4521 64.9732C48.5637 63.5662 51.9466 62.7351 55.4075 62.5274C58.8684 62.3197 62.3396 62.7395 65.6228 63.7628C68.906 64.7861 71.937 66.3929 74.5426 68.4913C77.1482 70.5897 79.2775 73.1388 80.8087 75.9928Z" fill="#F5F5F5"/>
<path d="M46.0218 84.6957C46.8991 84.2431 48.1846 84.8083 48.9051 85.9617C49.6255 87.1151 49.4945 88.4253 48.6273 88.8813C47.7601 89.3373 46.4576 88.7717 45.744 87.6154C45.0305 86.459 45.1477 85.1547 46.0218 84.6957Z" fill="#E0E0E0"/>
<path d="M45.2968 78.2353C45.3932 78.4248 43.2782 79.0997 41.4368 80.8577C39.5955 82.6157 38.8319 84.4969 38.6166 84.4199C38.4012 84.3428 38.8692 82.2265 40.9007 80.364C42.9322 78.5015 45.2886 78.0541 45.2968 78.2353Z" fill="#E0E0E0"/>
<path d="M61.1034 77.8912C60.1747 78.2427 59.8743 79.5332 60.4293 80.7574C60.9844 81.9816 62.1941 82.6947 63.1196 82.3368C64.0451 81.979 64.3487 80.6948 63.7937 79.4706C63.2386 78.2464 62.0289 77.5334 61.1034 77.8912Z" fill="#E0E0E0"/>
<path d="M55.9624 73.4218C55.8165 73.2996 57.6664 71.8226 60.4842 71.5239C63.3021 71.2251 65.4871 72.1899 65.3773 72.337C65.2674 72.484 63.204 71.8903 60.5827 72.2127C57.9613 72.535 56.0863 73.5995 55.9624 73.4218Z" fill="#E0E0E0"/>
<path d="M68.7987 81.4129C69.0156 81.8039 69.1615 82.2248 69.2307 82.659C69.4892 83.8348 69.5358 85.0417 69.3687 86.2316C69.1299 88.0101 68.4854 89.7228 67.4771 91.258C66.2799 93.1853 64.5113 94.7617 62.3768 95.8037C60.2423 96.8458 57.8296 97.3109 55.4192 97.1448C53.4657 97.0494 51.5558 96.5805 49.8119 95.7682C48.6427 95.2322 47.5772 94.5241 46.6576 93.6719C46.3003 93.3778 45.9992 93.0308 45.7668 92.6454C45.8826 92.5265 47.1282 94.086 50.0463 95.3216C51.7435 96.0374 53.5782 96.4388 55.4452 96.5028C57.7237 96.6262 59.9956 96.1716 62.0117 95.1888C64.0279 94.206 65.7104 92.7329 66.8748 90.9312C67.8613 89.4745 68.5257 87.854 68.83 86.1622C69.3388 83.2513 68.6214 81.4272 68.7987 81.4129Z" fill="#E0E0E0"/>
<path d="M35.6466 214.498L32.8187 214.078L28.0491 205.234L28.9743 200.039C28.9743 200.039 24.6478 199.139 23.9571 206.038C23.2664 212.938 23.0188 211.102 23.0188 211.102C23.0188 211.102 13.7402 209.746 12.841 210.37C12.1894 210.826 10.4301 219.274 9.51787 223.858C9.26183 224.959 9.41257 226.108 9.94616 227.121C10.4797 228.134 11.3656 228.954 12.4631 229.45C12.7773 229.571 13.1051 229.66 13.4404 229.714C15.7601 230.062 27.8797 230.11 27.8797 230.11L32.7535 230.842L35.6466 214.498Z" fill="#EBEBEB"/>
<path d="M44.0466 214.123L39.2962 231.806L34.5964 231.08L37.5987 213.494L44.0466 214.123Z" fill="#EBEBEB"/>
<path d="M242.381 144.588L174.181 144.916L174.467 194.924L242.667 194.596L242.381 144.588Z" fill="#FAFAFA"/>
<path d="M242.391 144.575H242.064H241.106L237.396 144.617L223.438 144.721L174.19 145.049L174.364 144.882C174.456 159.768 174.562 176.831 174.676 194.89L174.479 194.716L242.68 194.409L242.52 194.562C242.467 179.501 242.421 167.02 242.391 158.304C242.391 153.939 242.391 150.515 242.391 148.166V145.537C242.391 144.93 242.391 144.61 242.391 144.61C242.391 144.61 242.391 144.902 242.391 145.502C242.391 146.102 242.391 146.994 242.429 148.145C242.429 150.488 242.482 153.897 242.528 158.248C242.596 167.006 242.702 179.515 242.824 194.618V194.765H242.657L174.456 195.127H174.258V194.946C174.159 176.886 174.068 159.824 173.992 144.937V144.777H174.167L223.529 144.617H237.449H242.056L242.391 144.575Z" fill="#263238"/>
<path d="M239.959 147.752L176.548 148.056L176.798 191.768L240.208 191.463L239.959 147.752Z" fill="#EBEBEB"/>
<path d="M176.812 191.752L198.799 164.475L212.62 181.405L221.872 172.277L240.224 191.446L176.812 191.752Z" fill="#E0E0E0"/>
<path d="M218.329 161.051C218.335 161.957 218.048 162.845 217.504 163.601C216.96 164.357 216.184 164.949 215.274 165.301C214.363 165.653 213.36 165.749 212.39 165.578C211.42 165.406 210.527 164.975 209.824 164.338C209.121 163.701 208.64 162.888 208.442 162C208.243 161.113 208.336 160.191 208.708 159.352C209.081 158.513 209.716 157.794 210.534 157.286C211.352 156.778 212.316 156.504 213.304 156.498C213.96 156.494 214.61 156.609 215.218 156.836C215.825 157.063 216.378 157.397 216.845 157.82C217.311 158.243 217.683 158.746 217.937 159.3C218.192 159.855 218.325 160.45 218.329 161.051Z" fill="#E0E0E0"/>
<path d="M242.742 245.516C252.09 244.466 258.74 236.665 257.595 228.091C256.451 219.518 247.945 213.418 238.597 214.468C229.25 215.518 222.599 223.319 223.744 231.892C224.888 240.466 233.394 246.566 242.742 245.516Z" fill="white"/>
<path d="M257.718 229.993C257.718 229.993 257.718 229.652 257.642 228.996C257.631 228.594 257.585 228.193 257.505 227.797C257.428 227.251 257.309 226.71 257.148 226.179C256.754 224.716 256.118 223.317 255.263 222.031C253.242 218.92 250.101 216.553 246.381 215.34C242.662 214.127 238.597 214.143 234.888 215.386C233.35 215.875 231.903 216.581 230.601 217.477C229.916 217.945 229.266 218.452 228.654 218.997C228.057 219.566 227.501 220.169 226.989 220.803C224.851 223.466 223.697 226.686 223.697 229.993C223.697 233.301 224.851 236.521 226.989 239.184C227.501 239.818 228.057 240.421 228.654 240.989C229.258 241.529 229.9 242.03 230.578 242.489C231.882 243.382 233.328 244.088 234.865 244.58C237.715 245.535 240.791 245.776 243.776 245.278C246.373 244.835 248.821 243.839 250.922 242.37C252.664 241.165 254.138 239.664 255.263 237.949C256.122 236.652 256.758 235.241 257.148 233.766C257.309 233.237 257.428 232.699 257.505 232.155C257.584 231.759 257.63 231.358 257.642 230.956C257.688 230.3 257.718 229.959 257.718 229.959C257.718 229.959 257.718 230.3 257.718 230.956C257.713 231.36 257.67 231.764 257.589 232.162C257.524 232.711 257.412 233.254 257.255 233.787C256.869 235.26 256.241 236.671 255.392 237.97C253.367 241.115 250.206 243.512 246.458 244.746C242.71 245.98 238.609 245.973 234.865 244.727C233.308 244.224 231.844 243.504 230.525 242.593C229.839 242.127 229.189 241.619 228.578 241.073C227.972 240.502 227.408 239.894 226.891 239.253C224.723 236.561 223.553 233.302 223.553 229.955C223.553 226.608 224.723 223.349 226.891 220.657C227.41 220.018 227.974 219.41 228.578 218.837C229.189 218.293 229.839 217.788 230.525 217.324C231.842 216.41 233.306 215.69 234.865 215.19C238.609 213.946 242.709 213.94 246.457 215.173C250.205 216.407 253.366 218.803 255.392 221.947C256.242 223.246 256.87 224.657 257.255 226.131C257.412 226.663 257.524 227.206 257.589 227.755C257.67 228.153 257.713 228.557 257.718 228.961C257.711 229.652 257.718 229.993 257.718 229.993Z" fill="#263238"/>
<path d="M240.666 219.778C241.589 219.719 242.515 219.797 243.411 220.008C245.897 220.545 248.104 221.853 249.66 223.711C250.741 224.988 251.478 226.481 251.811 228.069C252.195 229.899 252.035 231.789 251.348 233.543C250.582 235.491 249.207 237.188 247.394 238.423C245.447 239.746 243.089 240.46 240.666 240.46C238.244 240.46 235.885 239.746 233.938 238.423C232.126 237.188 230.751 235.491 229.985 233.543C229.298 231.789 229.138 229.899 229.521 228.069C229.93 226.128 230.939 224.335 232.429 222.906C233.919 221.476 235.826 220.471 237.922 220.008C238.817 219.797 239.744 219.719 240.666 219.778C239.761 219.859 238.862 219.995 237.975 220.183C235.571 220.773 233.454 222.087 231.961 223.913C230.861 225.25 230.144 226.819 229.878 228.476C229.613 230.134 229.806 231.825 230.441 233.396C230.806 234.303 231.318 235.154 231.961 235.92C232.597 236.724 233.366 237.43 234.242 238.012C236.104 239.276 238.358 239.958 240.674 239.958C242.99 239.958 245.244 239.276 247.105 238.012C247.995 237.432 248.778 236.726 249.424 235.92C250.073 235.158 250.586 234.306 250.945 233.396C251.576 231.825 251.768 230.134 251.502 228.477C251.236 226.82 250.522 225.251 249.424 223.913C247.929 222.09 245.812 220.777 243.411 220.183C242.507 219.992 241.59 219.857 240.666 219.778Z" fill="#FF725E"/>
<path d="M240.666 226.751C240.958 226.68 241.264 226.68 241.556 226.751C242.372 226.901 243.103 227.314 243.616 227.916C244.007 228.365 244.266 228.899 244.37 229.466C244.474 230.034 244.418 230.616 244.209 231.158C243.949 231.828 243.47 232.408 242.836 232.819C242.202 233.229 241.446 233.449 240.67 233.449C239.894 233.449 239.138 233.229 238.504 232.819C237.87 232.408 237.391 231.828 237.131 231.158C236.921 230.616 236.864 230.034 236.967 229.467C237.069 228.9 237.327 228.366 237.717 227.916C238.233 227.314 238.966 226.901 239.784 226.751C240.073 226.68 240.377 226.68 240.666 226.751C240.666 226.793 240.355 226.793 239.83 226.939C239.093 227.142 238.449 227.561 237.998 228.132C237.673 228.545 237.464 229.025 237.389 229.529C237.313 230.034 237.374 230.547 237.565 231.025C237.731 231.435 237.992 231.806 238.329 232.115C238.665 232.424 239.071 232.663 239.517 232.816C239.964 232.968 240.441 233.031 240.916 232.999C241.391 232.968 241.853 232.843 242.271 232.634C242.689 232.424 243.053 232.135 243.338 231.785C243.623 231.435 243.823 231.033 243.924 230.606C244.025 230.179 244.025 229.737 243.923 229.31C243.821 228.883 243.621 228.481 243.335 228.132C242.884 227.563 242.244 227.144 241.51 226.939C240.986 226.793 240.666 226.793 240.666 226.751Z" fill="#FF725E"/>
<path d="M222.496 241.262C228.388 237.496 234.774 233.759 240.666 229.994L222.496 241.262Z" fill="#F5F5F5"/>
<path d="M240.666 229.993C240.666 230.035 236.652 232.594 231.642 235.704C226.632 238.814 222.519 241.282 222.519 241.282C222.519 241.282 226.533 238.681 231.551 235.572C236.569 232.462 240.636 229.952 240.666 229.993Z" fill="#263238"/>
<path d="M224.496 240.174C223.093 240.248 221.685 240.202 220.292 240.034C221.695 239.95 223.103 239.997 224.496 240.174Z" fill="#263238"/>
<path d="M223.781 242.712C223.785 242.263 223.856 241.817 223.994 241.387C224.064 240.944 224.199 240.513 224.397 240.104C224.394 240.552 224.325 240.998 224.192 241.429C224.121 241.872 223.982 242.304 223.781 242.712Z" fill="#263238"/>
<path d="M224.853 242.384C224.839 241.914 224.895 241.445 225.02 240.989C225.077 240.528 225.199 240.076 225.385 239.644C225.399 240.113 225.343 240.583 225.218 241.038C225.162 241.5 225.039 241.952 224.853 242.384Z" fill="#263238"/>
<path d="M222.398 239.058C222.893 239.072 223.384 239.147 223.857 239.281C224.349 239.355 224.828 239.491 225.279 239.686C224.292 239.599 223.322 239.388 222.398 239.058Z" fill="#263238"/>
<path d="M233.935 79.2137C233.97 79.2752 233.996 79.3409 234.011 79.4089C234.06 79.6035 234.088 79.802 234.095 80.0016C234.104 80.7694 233.903 81.527 233.51 82.205C232.869 83.2217 232.065 84.1434 231.122 84.9383C230.111 85.9145 228.971 87.0301 227.739 88.1806L227.633 88.2852L227.511 88.1946L223.877 85.524C222.623 84.5827 221.148 83.5926 220.388 82.0376C220.133 81.5635 219.993 81.0441 219.979 80.5156C219.964 79.987 220.075 79.4619 220.304 78.9766C220.542 78.5218 220.882 78.1186 221.303 77.794C221.724 77.4694 222.215 77.2307 222.745 77.094C223.244 76.9718 223.767 76.9528 224.276 77.0384C224.785 77.124 225.267 77.3121 225.687 77.589C226.464 78.0847 227.007 78.8322 227.207 79.6808H226.888C226.974 79.0448 227.249 78.4428 227.684 77.9409C228.118 77.439 228.695 77.0567 229.351 76.836C229.854 76.6768 230.391 76.6273 230.919 76.6914C231.447 76.7556 231.951 76.9316 232.392 77.2055C232.965 77.5458 233.419 78.0298 233.7 78.6001C233.777 78.7445 233.835 78.8966 233.875 79.0533C233.875 79.1649 233.875 79.2206 233.875 79.2206C233.875 79.2206 233.798 79.0045 233.586 78.6419C233.274 78.1214 232.818 77.686 232.263 77.3798C231.844 77.1335 231.369 76.9789 230.875 76.9281C230.38 76.8773 229.88 76.9317 229.412 77.087C228.81 77.2975 228.283 77.6562 227.888 78.1236C227.494 78.5911 227.248 79.1492 227.177 79.7366L227.078 80.7337L226.857 79.7506C226.662 78.9727 226.151 78.2921 225.428 77.847C225.049 77.6016 224.615 77.4357 224.158 77.361C223.701 77.2863 223.231 77.3046 222.783 77.4147C222.306 77.5405 221.865 77.7579 221.487 78.0525C221.11 78.347 220.805 78.712 220.593 79.123C220.385 79.5656 220.285 80.0444 220.3 80.526C220.314 81.0077 220.443 81.4807 220.677 81.9121C221.384 83.3625 222.798 84.3386 224.052 85.28L227.663 87.9784H227.435L230.864 84.7779C231.801 84.0089 232.61 83.1186 233.266 82.1353C233.659 81.4938 233.885 80.778 233.928 80.0434C233.996 79.4926 233.905 79.2137 233.935 79.2137Z" fill="#FF725E"/>
<path d="M214.884 70.3374C214.884 70.3374 214.884 70.4838 214.922 70.7627C214.96 71.0416 214.975 71.46 215.005 71.9829C215.074 73.0637 215.173 74.6395 215.302 76.6547C215.538 80.6989 215.88 86.5211 216.305 93.6891L216.153 93.5636L232.506 92.7896H232.681V92.943C232.803 95.1952 232.939 97.6008 233.076 100.069L232.765 99.9715L240.139 92.4758L240.192 92.427H240.276L258.202 91.6042L263.699 91.3463L263.516 91.5345C263.068 83.2788 262.642 75.4135 262.254 68.1758L262.444 68.3292L228.234 69.8214L218.427 70.2258L215.804 70.3234H215.127H214.884H215.104L215.758 70.2816L218.343 70.1421L228.112 69.654L262.429 67.9945H262.65V68.1549C263.053 75.3926 263.486 83.2579 263.942 91.5206V91.6949H263.752L258.248 91.9459L240.321 92.7687L240.451 92.7129L233.061 100.195L232.772 100.488V100.09C232.643 97.6147 232.514 95.2092 232.392 92.957L232.575 93.1104L216.214 93.8076H216.07V93.6751C215.712 86.4653 215.416 80.6152 215.218 76.5501C215.119 74.5489 215.051 72.987 214.998 71.9062C214.998 71.3902 214.998 70.9928 214.945 70.7069C214.891 70.421 214.884 70.3374 214.884 70.3374Z" fill="#FF725E"/>
<path d="M241.743 81.2289L239.736 81.3196L239.842 83.0837H239.363L239.272 81.2917L237.265 81.3893V80.9709L239.272 80.8803L239.173 79.0813H239.644L239.743 80.8872L241.75 80.7896L241.743 81.2289Z" fill="#263238"/>
<path d="M244.579 77.5054L244.951 84.2829H244.412L244.062 77.9517L242.26 78.0354V77.5891L244.579 77.5054Z" fill="#263238"/>
<path d="M246.631 80.7896C246.517 78.6978 247.635 77.3032 249.338 77.2195C251.041 77.1359 252.303 78.4049 252.379 80.5246C252.455 82.6443 251.375 84.011 249.672 84.0947C247.969 84.1783 246.745 82.9093 246.631 80.7896ZM251.877 80.5525C251.778 78.6629 250.759 77.61 249.361 77.6797C247.962 77.7495 247.08 78.879 247.171 80.7687C247.262 82.6583 248.296 83.7042 249.687 83.6414C251.079 83.5787 252.006 82.4351 251.877 80.5525Z" fill="#263238"/>
<path d="M253.58 80.4758C253.466 78.384 254.583 76.9894 256.286 76.9058C257.989 76.8221 259.251 78.0842 259.327 80.2039C259.403 82.3236 258.324 83.6903 256.621 83.7739C254.918 83.8576 253.694 82.5955 253.58 80.4758ZM258.825 80.2318C258.727 78.3422 257.7 77.2962 256.309 77.359C254.918 77.4218 254.028 78.5583 254.12 80.4479C254.211 82.3375 255.245 83.3835 256.636 83.3207C258.027 83.2579 258.932 82.1214 258.848 80.2318H258.825Z" fill="#263238"/>
<path d="M210.232 268.768C209.972 269.382 209.519 269.911 208.93 270.288C208.342 270.665 207.645 270.873 206.928 270.887C206.21 270.901 205.504 270.718 204.9 270.364C204.295 270.009 203.818 269.498 203.531 268.895C203.243 268.292 203.157 267.624 203.283 266.976C203.41 266.328 203.743 265.729 204.24 265.255C204.738 264.781 205.378 264.453 206.079 264.312C206.781 264.172 207.512 264.225 208.18 264.466C209.071 264.79 209.788 265.424 210.172 266.229C210.557 267.035 210.578 267.948 210.232 268.768Z" fill="#FF725E"/>
<path d="M222.328 265.965C222.067 266.579 221.614 267.108 221.026 267.485C220.438 267.862 219.741 268.07 219.023 268.084C218.306 268.098 217.6 267.916 216.995 267.561C216.391 267.206 215.914 266.695 215.626 266.092C215.339 265.489 215.253 264.821 215.379 264.173C215.505 263.525 215.838 262.926 216.336 262.452C216.834 261.978 217.474 261.65 218.175 261.509C218.876 261.369 219.607 261.422 220.275 261.663C220.718 261.822 221.123 262.059 221.465 262.361C221.808 262.663 222.083 263.025 222.274 263.424C222.464 263.824 222.567 264.254 222.577 264.69C222.586 265.126 222.501 265.559 222.328 265.965Z" fill="#FF725E"/>
<path d="M216.77 279.095C216.459 279.678 215.97 280.164 215.362 280.496C214.754 280.828 214.054 280.99 213.347 280.962C212.641 280.935 211.958 280.72 211.383 280.342C210.807 279.965 210.364 279.442 210.107 278.838C209.851 278.234 209.791 277.574 209.937 276.939C210.082 276.304 210.426 275.722 210.926 275.263C211.426 274.804 212.061 274.489 212.754 274.356C213.446 274.223 214.165 274.278 214.824 274.514C215.743 274.887 216.463 275.578 216.828 276.436C217.192 277.295 217.172 278.251 216.77 279.095Z" fill="#FF725E"/>
<path d="M212.536 277.129C212.308 277.268 210.567 275.295 208.643 272.715C206.72 270.135 205.344 267.925 205.602 267.778C205.861 267.632 207.571 269.612 209.495 272.192C211.418 274.772 212.764 276.982 212.536 277.129Z" fill="#FF725E"/>
<path d="M218.344 264.285C218.42 264.529 216.063 265.38 213.022 266.181C209.981 266.983 207.541 267.444 207.465 267.2C207.389 266.955 209.746 266.112 212.741 265.303C215.736 264.494 218.291 264.048 218.344 264.285Z" fill="#FF725E"/>
<path d="M226.711 192.564C226.546 192.337 226.414 192.092 226.316 191.835C226.178 191.533 226.018 191.239 225.838 190.956C225.621 190.56 225.37 190.18 225.088 189.819C224.36 188.805 223.471 187.896 222.45 187.124C221.11 186.096 219.569 185.311 217.909 184.812C215.756 184.162 213.46 184.016 211.229 184.387C208.998 184.757 206.903 185.634 205.135 186.936C204.112 187.675 203.219 188.554 202.487 189.542C202.106 190.048 201.762 190.577 201.456 191.125C201.159 191.687 200.906 192.268 200.697 192.863C199.82 195.373 199.841 198.074 200.757 200.572C201.673 203.07 203.436 205.232 205.789 206.744C206.886 207.476 208.109 208.036 209.407 208.4C210.64 208.785 211.931 208.991 213.234 209.013C215.653 209.06 218.042 208.518 220.159 207.442C221.844 206.586 223.315 205.415 224.476 204.005C225.637 202.595 226.461 200.976 226.896 199.255C227.202 198.072 227.314 196.854 227.227 195.642C227.212 195.198 227.161 194.757 227.075 194.32C227.031 193.995 226.962 193.673 226.871 193.357C226.781 193.097 226.727 192.829 226.708 192.558C226.84 192.802 226.942 193.059 227.012 193.324C227.134 193.634 227.226 193.954 227.285 194.279C227.401 194.72 227.478 195.168 227.517 195.619C227.658 196.859 227.587 198.112 227.307 199.333C226.953 200.962 226.253 202.511 225.248 203.894C224.029 205.58 222.395 206.98 220.478 207.981C218.261 209.125 215.752 209.707 213.21 209.667C211.839 209.651 210.479 209.442 209.178 209.048C207.806 208.668 206.513 208.082 205.351 207.313C202.862 205.724 200.995 203.442 200.028 200.804C199.061 198.166 199.044 195.313 199.98 192.665C200.204 192.035 200.473 191.419 200.786 190.822C201.106 190.243 201.472 189.687 201.882 189.158C202.659 188.119 203.606 187.197 204.689 186.424C206.686 184.981 209.066 184.053 211.584 183.735C213.573 183.493 215.596 183.644 217.516 184.177C219.437 184.71 221.211 185.613 222.72 186.826C223.746 187.642 224.628 188.599 225.334 189.663C225.596 190.048 225.83 190.448 226.035 190.861C226.198 191.156 226.336 191.462 226.447 191.777C226.567 192.029 226.655 192.294 226.711 192.564Z" fill="#FF725E"/>
<path d="M221.128 185.933C221.144 185.972 221.012 186.232 220.677 186.692L220.059 187.522C219.93 187.684 219.805 187.859 219.656 188.035L219.135 188.558C217.288 190.557 214.879 192.054 212.171 192.888L210.989 193.231L209.812 193.446L209.242 193.54L208.671 193.59C208.292 193.613 207.928 193.653 207.563 193.671C206.29 193.696 205.018 193.599 203.767 193.381C201.632 192.996 200.431 192.395 200.482 192.319C200.532 192.243 201.756 192.635 203.856 192.891C205.074 193.034 206.305 193.078 207.532 193.021C207.88 193.001 208.227 192.959 208.584 192.921L209.131 192.872L209.681 192.77L210.803 192.559L211.926 192.228C214.518 191.418 216.857 190.043 218.743 188.222L219.289 187.742C219.453 187.584 219.59 187.419 219.728 187.277L220.441 186.526C220.849 186.145 221.1 185.943 221.128 185.933Z" fill="#FF725E"/>
<path d="M206.046 207.474C206.031 207.435 206.165 207.183 206.49 206.718L207.115 205.886C207.238 205.726 207.37 205.548 207.518 205.372L208.039 204.85C209.887 202.851 212.295 201.354 215.003 200.52L216.179 200.179L217.355 199.964L217.932 199.868L218.506 199.824C218.882 199.795 219.247 199.755 219.607 199.746C220.877 199.712 222.147 199.803 223.395 200.016C225.523 200.403 226.724 201.004 226.68 201.078C226.637 201.152 225.399 200.764 223.306 200.506C222.085 200.364 220.853 200.321 219.623 200.378C219.282 200.396 218.928 200.44 218.571 200.478L218.024 200.527L217.474 200.629L216.375 200.878L215.252 201.208C212.658 202.021 210.317 203.399 208.43 205.224L207.881 205.696C207.725 205.853 207.588 206.017 207.443 206.162L206.736 206.91C206.329 207.291 206.062 207.514 206.046 207.474Z" fill="#FF725E"/>
<path d="M226.813 192.842C226.885 193.025 221.042 195 213.776 197.242C206.51 199.484 200.572 201.156 200.502 200.979C200.431 200.802 206.272 198.821 213.538 196.579C220.804 194.337 226.742 192.665 226.813 192.842Z" fill="#FF725E"/>
<path d="M217.681 208.782C217.488 208.846 215.341 203.494 212.901 196.829C210.461 190.165 208.633 184.721 208.836 184.66C209.039 184.6 211.176 189.948 213.623 196.61C216.07 203.272 217.869 208.726 217.681 208.782Z" fill="#FF725E"/>
<path d="M217.673 208.762C217.659 208.848 215.862 208.439 213.402 206.969C211.963 206.1 210.661 205.054 209.532 203.861C208.15 202.384 207.087 200.68 206.4 198.838C205.722 196.992 205.454 195.041 205.613 193.098C205.735 191.523 206.091 189.971 206.672 188.485C207.642 185.935 208.757 184.605 208.833 184.654C208.909 184.702 208.009 186.124 207.176 188.635C206.692 190.098 206.4 191.608 206.306 193.133C206.193 194.991 206.466 196.851 207.112 198.615C207.773 200.377 208.774 202.015 210.066 203.453C211.142 204.621 212.371 205.663 213.724 206.557C216.004 208.103 217.723 208.664 217.673 208.762Z" fill="#FF725E"/>
<path d="M209.1 184.572C209.124 184.49 210.913 184.901 213.374 186.372C214.82 187.227 216.13 188.263 217.264 189.45C218.649 190.926 219.714 192.629 220.404 194.471C221.078 196.32 221.344 198.275 221.187 200.22C221.059 201.792 220.705 203.343 220.135 204.83C219.157 207.383 218.042 208.713 217.963 208.658C217.884 208.602 218.788 207.187 219.62 204.676C220.104 203.214 220.393 201.705 220.483 200.18C220.598 198.322 220.324 196.462 219.677 194.699C219.02 192.938 218.02 191.301 216.726 189.867C215.656 188.694 214.426 187.651 213.068 186.763C210.779 185.235 209.086 184.658 209.1 184.572Z" fill="#FF725E"/>
<path d="M192.351 50.7285H90.2816C81.5022 50.7285 74.385 57.2562 74.385 65.3085V327.289C74.385 335.341 81.5022 341.869 90.2816 341.869H192.351C201.131 341.869 208.248 335.341 208.248 327.289V65.3085C208.248 57.2562 201.131 50.7285 192.351 50.7285Z" fill="#263238"/>
<path d="M180.279 50.8471H80.7027C71.2347 50.8471 63.5593 57.8868 63.5593 66.5707V326.264C63.5593 334.948 71.2347 341.987 80.7027 341.987H180.279C189.747 341.987 197.422 334.948 197.422 326.264V66.5707C197.422 57.8868 189.747 50.8471 180.279 50.8471Z" fill="#455A64"/>
<path d="M177.208 55.4909H159.023C156.582 55.4909 154.606 57.7292 154.613 60.4973V64.0813C154.613 66.8704 152.637 69.0947 150.196 69.0947L114.746 69.0459C112.313 69.0459 110.329 66.7937 110.329 64.0256V60.4206C110.329 57.6315 108.345 55.4003 105.912 55.4003H99.5111H83.5992C75.6927 55.4003 69.2839 62.373 69.2915 70.9425L69.4132 320.351C69.4132 328.941 75.8296 335.907 83.7285 335.914L177.337 336.039C185.243 336.039 191.652 329.067 191.645 320.504L191.523 71.089C191.546 62.4706 185.145 55.5049 177.208 55.4909Z" fill="white"/>
<path d="M177.208 55.4909H177.763C178.311 55.5014 178.858 55.5551 179.397 55.6512C181.524 56.0154 183.522 56.8534 185.213 58.0917C186.439 59.0197 187.519 60.0991 188.421 61.2992C189.52 62.7612 190.354 64.3765 190.892 66.0825C191.186 67.0344 191.395 68.0069 191.515 68.9901C191.63 70.0466 191.678 71.1082 191.66 72.1697C191.66 74.3591 191.66 76.6834 191.66 79.1424C191.66 98.8893 191.721 127.457 191.759 162.753C191.797 198.049 191.827 240.087 191.865 286.763C191.865 292.592 191.865 298.496 191.865 304.474C191.865 307.467 191.865 310.473 191.865 313.49V318.036C191.913 319.564 191.862 321.094 191.713 322.617C191.537 324.156 191.127 325.665 190.497 327.1C189.89 328.556 189.044 329.917 187.988 331.138C186.936 332.376 185.667 333.446 184.232 334.303C182.776 335.151 181.15 335.724 179.45 335.991C177.747 336.167 176.032 336.225 174.319 336.165H169.187H158.848L116.616 336.109H95.018H84.1086C82.2496 336.129 80.4072 335.787 78.7033 335.105C77.0058 334.403 75.4723 333.406 74.1875 332.17C71.6325 329.669 69.9903 326.501 69.4892 323.105C69.2644 321.438 69.183 319.757 69.2459 318.078V313.085C69.2459 306.433 69.2459 299.825 69.2459 293.262C69.2459 280.148 69.2459 267.235 69.2459 254.521C69.2459 229.119 69.2459 204.617 69.2459 181.307C69.2459 157.997 69.2459 135.789 69.2459 115.066V70.7821C69.2915 66.1522 71.2301 61.5502 74.8413 58.538C76.5979 57.017 78.7748 55.9657 81.1361 55.4978C81.7134 55.3798 82.3012 55.3098 82.8922 55.2887C83.4739 55.247 84.0575 55.2331 84.6408 55.2468H88.0999H101.465H104.696C105.236 55.2468 105.753 55.2468 106.3 55.2468C106.834 55.2909 107.353 55.4382 107.82 55.6791C108.754 56.1744 109.491 56.9289 109.926 57.8337C110.348 58.7112 110.551 59.6642 110.519 60.6228V63.4119C110.465 64.313 110.613 65.2146 110.953 66.0616C111.282 66.8922 111.866 67.6183 112.633 68.1534C113.008 68.4149 113.433 68.6089 113.887 68.7251C114.344 68.8303 114.816 68.8725 115.286 68.8507L136.573 68.8925H145.969H150.341C151.005 68.862 151.652 68.6851 152.226 68.3768C152.801 68.0686 153.286 67.6379 153.64 67.1214C154.317 66.1016 154.643 64.9181 154.575 63.7257C154.575 62.5543 154.575 61.4247 154.575 60.3369C154.598 59.2601 154.939 58.2091 155.564 57.2968C156.152 56.4441 157.056 55.8151 158.11 55.5257C158.61 55.428 159.121 55.3905 159.631 55.4142H163.843H168.594H175.033H177.23C177.23 55.4142 176.47 55.4142 175.033 55.4142H168.594H159.638C159.129 55.3905 158.617 55.428 158.118 55.5257C157.093 55.8074 156.214 56.4222 155.647 57.255C155.038 58.1486 154.706 59.1783 154.689 60.2323V63.6211C154.769 64.845 154.437 66.0618 153.739 67.1075C153.384 67.6679 152.882 68.1389 152.28 68.4784C151.678 68.8179 150.993 69.0152 150.287 69.0529H136.542H115.256C114.765 69.0742 114.273 69.0296 113.796 68.9204C113.316 68.7978 112.865 68.5945 112.466 68.3207C111.666 67.7581 111.057 66.9989 110.709 66.1313C110.356 65.2606 110.204 64.3324 110.261 63.4049C110.261 62.4776 110.261 61.5502 110.261 60.6158C110.301 59.6858 110.106 58.7598 109.691 57.9104C109.285 57.0353 108.584 56.3023 107.691 55.8186C107.244 55.5914 106.749 55.4535 106.239 55.4142C105.722 55.4142 105.182 55.4142 104.65 55.4142H84.5723C83.9946 55.4142 83.4168 55.4142 82.839 55.456C82.2612 55.4841 81.6867 55.554 81.1209 55.6652C78.8099 56.1264 76.6805 57.1584 74.9629 58.6495C71.4202 61.6129 69.512 66.1383 69.474 70.7054C69.436 75.2726 69.474 80.0489 69.474 84.8671C69.474 94.4941 69.474 104.505 69.474 114.899C69.474 135.657 69.474 157.837 69.5272 181.175C69.5804 204.512 69.5272 229.015 69.5728 254.389C69.5728 267.088 69.5728 280.002 69.5728 293.129C69.5728 299.693 69.5728 306.298 69.5728 312.946V317.945C69.5099 319.605 69.5887 321.268 69.8085 322.917C70.304 326.232 71.9114 329.324 74.4079 331.765C75.6517 332.971 77.1423 333.94 78.7945 334.617C80.4476 335.28 82.2359 335.613 84.0402 335.593H94.9496L116.556 335.628L158.779 335.684H169.119H174.25C175.94 335.744 177.633 335.688 179.313 335.516C180.966 335.262 182.546 334.705 183.959 333.878C185.358 333.047 186.594 332.005 187.615 330.796C188.654 329.605 189.485 328.274 190.078 326.849C190.69 325.439 191.092 323.959 191.272 322.45C191.418 320.94 191.469 319.425 191.424 317.91C191.424 316.39 191.424 314.875 191.424 313.364V304.516C191.424 298.547 191.424 292.643 191.424 286.805C191.424 240.129 191.424 198.098 191.424 162.794C191.424 127.491 191.424 98.9311 191.424 79.1843C191.424 76.7159 191.424 74.3917 191.424 72.2115C191.445 71.1548 191.399 70.0978 191.287 69.0459C191.172 68.0698 190.969 67.1042 190.679 66.1592C190.175 64.4686 189.374 62.8647 188.307 61.4107C187.417 60.2123 186.347 59.1349 185.129 58.2102C183.454 56.9717 181.472 56.1289 179.359 55.7558C178.824 55.6513 178.279 55.5906 177.732 55.5745L177.208 55.4909Z" fill="#263238"/>
<path d="M60.5651 206.395L55.1831 248.1L112.063 254.275L117.445 212.569L60.5651 206.395Z" fill="#FAFAFA"/>
<path d="M117.438 212.559H117.164L116.366 212.476L113.272 212.162L101.625 210.935L60.5722 206.542L60.7395 206.423C59.143 218.842 57.3108 233.066 55.4178 248.127L55.2657 247.96L112.147 254.152L111.987 254.263L115.963 224.022C116.45 220.383 116.83 217.531 117.088 215.572C117.218 214.602 117.324 213.856 117.393 213.347C117.461 212.838 117.507 212.573 117.507 212.573C117.507 212.573 117.507 212.824 117.423 213.319C117.339 213.814 117.271 214.567 117.157 215.53C116.914 217.482 116.556 220.327 116.108 223.96C115.18 231.26 113.827 241.698 112.307 254.291V254.417H112.17L55.2886 248.274H55.1289V248.127C57.0827 233.073 58.9301 218.842 60.5266 206.43V206.291H60.6787L101.732 210.823L113.34 212.12L116.381 212.462L117.142 212.559H117.438Z" fill="#263238"/>
<path d="M62.1922 209.235L57.4875 245.692L110.366 251.432L115.07 214.975L62.1922 209.235Z" fill="#EBEBEB"/>
<path d="M57.4783 245.68L78.8714 225.027L88.4885 240.443L97.2236 233.708L110.361 251.418L57.4783 245.68Z" fill="#E0E0E0"/>
<path d="M95.528 224.016C95.4307 224.77 95.0917 225.481 94.5538 226.059C94.016 226.637 93.3035 227.055 92.5063 227.262C91.7092 227.468 90.8632 227.453 90.0753 227.219C89.2874 226.984 88.593 226.541 88.0799 225.944C87.5667 225.348 87.2579 224.625 87.1923 223.868C87.1268 223.111 87.3075 222.353 87.7117 221.69C88.1158 221.026 88.7252 220.488 89.4629 220.143C90.2006 219.797 91.0334 219.66 91.8561 219.748C92.4032 219.806 92.9324 219.963 93.4134 220.209C93.8944 220.455 94.3176 220.786 94.6588 221.182C95 221.579 95.2525 222.033 95.4016 222.519C95.5508 223.006 95.5937 223.514 95.528 224.016Z" fill="#E0E0E0"/>
<path d="M191.577 228.067H174.684V178.135H191.577" fill="#FAFAFA"/>
<path d="M191.577 178.135H191.28H190.391L187.008 178.177L174.684 178.239L174.836 178.093C174.836 184.884 174.836 193.593 174.882 203.055C174.928 212.517 174.882 221.233 174.836 228.025L174.684 227.878L187.008 227.941L190.391 227.983H191.28H191.577C191.478 227.992 191.379 227.992 191.28 227.983H190.391L187.008 228.018L174.684 228.081H174.532V227.941C174.532 221.15 174.532 212.441 174.487 202.972C174.441 193.503 174.487 184.801 174.532 178.009V177.87H174.684L187.008 177.933L190.391 177.967H191.28C191.386 178.012 191.486 178.068 191.577 178.135Z" fill="#263238"/>
<path d="M191.577 224.727L177.482 224.915V181.008L191.577 180.819V224.727Z" fill="#EBEBEB"/>
<path d="M177.588 224.783L191.577 224.915L191.668 207.183L177.588 224.783Z" fill="#E0E0E0"/>
<path d="M69.1614 262.521L20.8645 266.467L24.3037 301.881L72.6006 297.935L69.1614 262.521Z" fill="#FAFAFA"/>
<path d="M69.1783 262.512H68.9427L68.2661 262.575L65.6432 262.805L55.7601 263.642L20.8879 266.605L21.0019 266.48C22.0283 277.022 23.2066 289.106 24.4534 301.894L24.3014 301.776L72.607 297.85L72.5006 297.969C71.4895 287.3 70.6532 278.445 70.0678 272.281C69.7789 269.185 69.5509 266.758 69.3988 265.099C69.3228 264.269 69.2696 263.635 69.224 263.202C69.1783 262.77 69.1783 262.54 69.1783 262.54L69.2468 263.174C69.2924 263.607 69.3608 264.234 69.4444 265.05L70.2047 272.204C70.8281 278.396 71.7251 287.258 72.7743 297.948V298.059H72.6602L24.3622 302.027H24.2177V301.894C22.9785 289.106 21.8078 277.022 20.7891 266.48V266.368H20.9183L55.8893 263.579L65.7725 262.798L68.3725 262.603L69.0415 262.554L69.1783 262.512Z" fill="#263238"/>
<path d="M67.6523 264.892L22.7478 268.56L25.754 299.515L70.6585 295.847L67.6523 264.892Z" fill="#EBEBEB"/>
<path d="M25.7686 299.517L39.5821 278.989L50.4688 290.236L56.429 283.256L70.6759 295.842L25.7686 299.517Z" fill="#E0E0E0"/>
<path d="M53.1676 275.502C53.2296 276.144 53.0827 276.788 52.7455 277.353C52.4083 277.918 51.896 278.379 51.2733 278.677C50.6506 278.975 49.9456 279.097 49.2474 279.027C48.5492 278.957 47.8892 278.699 47.3509 278.286C46.8126 277.872 46.4201 277.321 46.2232 276.703C46.0263 276.084 46.0338 275.426 46.2446 274.812C46.4555 274.198 46.8603 273.654 47.4079 273.251C47.9555 272.848 48.6212 272.602 49.3208 272.546C49.7852 272.508 50.2532 272.554 50.6981 272.682C51.143 272.81 51.556 273.017 51.9134 273.292C52.2708 273.566 52.5656 273.903 52.7808 274.282C52.996 274.662 53.1274 275.076 53.1676 275.502Z" fill="#E0E0E0"/>
<g clip-path="url(#clip0_1048_79374)">
<path d="M101.866 279.106C103.617 279.106 105.036 277.799 105.036 276.186C105.036 274.574 103.617 273.266 101.866 273.266C100.116 273.266 98.697 274.574 98.697 276.186C98.697 277.799 100.116 279.106 101.866 279.106Z" fill="white" stroke="#969696" stroke-width="1.14" stroke-linecap="round" stroke-linejoin="round"/>
<path d="M221.961 141.814L215.261 121.566" stroke="#1F161E" stroke-miterlimit="10" stroke-linecap="round"/>
<path d="M210.469 138.938C219.31 138.938 226.478 137.352 226.478 135.397C226.478 133.441 219.31 131.856 210.469 131.856C201.628 131.856 194.461 133.441 194.461 135.397C194.461 137.352 201.628 138.938 210.469 138.938Z" fill="#F8CDBA"/>
<path d="M97.2735 351.075C97.2735 352.369 96.7991 359.966 97.9757 361.251C100.111 363.577 117.561 362.641 118.387 361.898C119.212 361.155 119.715 359.581 118.985 359.118C118.254 358.655 111.336 357.317 110.444 356.705C109.552 356.093 108.243 352.902 108.755 351.188" fill="#1F161E"/>
<path d="M127.914 330.364C129.034 331.124 135.904 335.365 136.302 337.008C137.033 339.981 125.712 352.246 124.574 352.404C123.435 352.561 121.727 351.993 121.803 351.18C121.879 350.367 124.849 344.466 124.877 343.408C124.906 342.35 122.913 339.491 121.082 338.835" fill="#1F161E"/>
<path d="M58.6433 192.442C58.6433 192.442 48.0439 276.099 50.103 280.794C51.2702 283.416 121.196 339.202 121.196 339.202L128.635 330.198L84.6055 282.542L74.4996 193.893C71.4915 191.716 67.582 189.618 58.6433 192.442Z" fill="#1F161E"/>
<path d="M110.226 194.217V351.582H94.6639L66.2629 193.342C66.2629 193.342 91.6653 184.407 110.226 194.217Z" fill="#73E5E2"/>
<path d="M84.2544 119.792C121.471 119.792 200.62 131.865 203.248 132.031V144.856C203.248 144.856 124.593 149.499 116.726 150.102C116.119 155.863 112.466 192.94 110.226 194.243C107.987 195.545 60.2564 193.771 58.6432 192.494C58.3585 195.458 56.0527 213.809 56.0527 213.809C43.4891 207.077 28.2495 173.269 28.2495 169.397C28.2495 148.213 49.4198 124.696 51.6687 123.533C53.9176 122.371 69.755 119.792 84.2544 119.792Z" fill="#55B79D"/>
<path d="M89.8151 122.624C89.8151 124.836 76.6062 125.002 76.6062 122.624V107.832H89.8151V122.624Z" fill="#F8CDBA"/>
<path d="M76.6062 116.67C76.6062 115.35 79.8705 110.813 82.3946 111.582C79.2821 110.568 77.7449 107.124 76.6062 107.832V116.67Z" fill="black"/>
<path d="M58.6435 192.442C58.0931 189.032 56.0055 160.514 57.391 151.055" stroke="#1F161E" stroke-width="0.62" stroke-miterlimit="10" stroke-linecap="round"/>
<path d="M89.0748 112.824C98.55 112.824 106.231 105.747 106.231 97.0173C106.231 88.2876 98.55 81.2108 89.0748 81.2108C79.5996 81.2108 71.9185 88.2876 71.9185 97.0173C71.9185 105.747 79.5996 112.824 89.0748 112.824Z" fill="#F8CDBA"/>
<path d="M106.421 100.514C108.004 100.514 109.287 99.8997 109.287 99.1417C109.287 98.3836 108.004 97.7691 106.421 97.7691C104.838 97.7691 103.555 98.3836 103.555 99.1417C103.555 99.8997 104.838 100.514 106.421 100.514Z" fill="#FA9E9F"/>
<path d="M88.4297 100.514C90.0124 100.514 91.2954 99.8997 91.2954 99.1417C91.2954 98.3836 90.0124 97.7691 88.4297 97.7691C86.847 97.7691 85.564 98.3836 85.564 99.1417C85.564 99.8997 86.847 100.514 88.4297 100.514Z" fill="#FA9E9F"/>
<path d="M99.437 96.2916C99.9684 96.991 102.72 99.946 99.8166 101.144" stroke="#1F161E" stroke-width="0.69" stroke-miterlimit="10" stroke-linecap="round"/>
<path d="M94.0472 104.641C93.1932 104.641 91.8647 103.653 91.2004 102.77" stroke="#1F161E" stroke-width="0.69" stroke-miterlimit="10" stroke-linecap="round"/>
<path d="M72.6776 87.8027C72.6776 82.3211 80.9806 78.2296 86.7595 78.2296C94.2654 78.3418 101.733 79.2364 109.021 80.8961C112.124 81.8927 112.617 84.9351 112.617 85.958C112.617 90.2243 110.928 92.8821 105.823 93.564C105.471 92.0573 104.863 90.6115 104.02 89.2802C102.599 88.7748 101.028 88.75 99.5888 89.2102C98.2888 89.6299 87.3953 94.3508 79.3485 94.3508C78.2667 95.7409 75.9134 104.247 76.6061 107.832C74.2433 107.954 69.8973 100.881 69.679 97.1746C69.6285 95.9066 69.9008 94.6452 70.4743 93.4914C71.0477 92.3377 71.9062 91.3236 72.9813 90.5303C72.8959 89.7785 72.6776 88.2398 72.6776 87.8027Z" fill="black"/>
<path d="M78.6177 101.249C80.7035 101.249 82.3944 99.6909 82.3944 97.7693C82.3944 95.8476 80.7035 94.2897 78.6177 94.2897C76.5319 94.2897 74.8411 95.8476 74.8411 97.7693C74.8411 99.6909 76.5319 101.249 78.6177 101.249Z" fill="#F8CDBA"/>
<path d="M116.726 150.102C115.388 150.102 103.679 150.102 103.679 150.102C103.679 150.102 115.834 159.29 114.914 166.94C115.388 162.7 116.726 150.102 116.726 150.102Z" fill="black"/>
<path d="M220.374 117.029C220.374 117.029 224.966 117.742 233.404 114.538C241.843 111.334 247.956 105.204 248.658 105.516C249.359 105.827 253.184 105.621 253.38 120.341C253.575 135.061 249.876 137.07 248.697 136.594C247.518 136.117 240.399 130.897 235.076 129.533C229.752 128.168 222.084 128.231 222.084 128.231L220.374 117.029Z" fill="#AB8FE2"/>
<path d="M208.191 119.996L208.42 123.132L208.519 124.539C208.591 125.464 209.039 126.314 209.772 126.915C210.505 127.515 211.467 127.82 212.46 127.767L222.832 128.177L222.9 114.802L211.794 115.976C211.285 116.028 210.788 116.174 210.332 116.405C209.875 116.635 209.468 116.946 209.134 117.319C208.799 117.693 208.544 118.121 208.382 118.58C208.22 119.04 208.155 119.521 208.191 119.996Z" fill="#263238"/>
<path d="M211.747 126L212.122 132.437L213.736 132.598L219.723 143.369L224.612 139.47C224.612 139.47 220.14 135.107 219.992 132.844C219.844 130.581 221.222 130.592 221.222 130.592L219.929 126.789L211.747 126Z" fill="#263238"/>
<path d="M252.893 120.55C252.95 128.433 251.501 134.893 249.659 134.975C247.818 135.056 246.273 128.733 246.221 120.839C246.169 112.946 247.608 106.495 249.455 106.415C251.302 106.335 252.835 112.673 252.893 120.55Z" fill="#263238"/>
<path d="M205.617 123.272L208.388 123.462L208.153 120.163L205.823 120.553L205.617 123.272Z" fill="#455A64"/>
<g opacity="0.3">
<path d="M220.246 128.11L211.794 129.685L211.703 127.825L220.246 128.11Z" fill="black"/>
</g>
<path d="M209.57 121.543C210.631 121.656 211.707 121.661 212.779 121.559C213.852 121.565 214.928 121.463 215.988 121.253C214.926 121.141 213.85 121.135 212.778 121.238C211.705 121.227 210.629 121.329 209.57 121.543Z" fill="#455A64"/>
<path d="M209.749 123.58C210.018 123.674 210.306 123.717 210.597 123.704C210.863 123.728 211.178 123.743 211.527 123.758C211.876 123.772 212.266 123.738 212.67 123.715C213.651 123.712 214.631 123.59 215.588 123.352C214.619 123.271 213.639 123.285 212.664 123.392C212.262 123.409 211.882 123.453 211.531 123.457L210.615 123.478C210.076 123.492 209.756 123.532 209.749 123.58Z" fill="#455A64"/>
<path d="M247.135 116.589C247.135 116.589 251.755 115.816 251.573 121.218C251.391 126.62 247.217 125.965 247.217 125.965C246.72 122.876 246.693 119.72 247.135 116.589Z" fill="#FAFAFA"/>
<path d="M245.836 109.583C245.714 109.888 245.622 110.203 245.562 110.522C245.415 111.137 245.191 112.02 244.955 113.127C244.859 113.71 244.786 114.3 244.698 114.941C244.648 115.269 244.605 115.611 244.553 115.957L244.481 116.486C244.462 116.664 244.461 116.848 244.446 117.034C244.412 117.774 244.37 118.548 244.328 119.353L244.3 119.959C244.289 120.165 244.311 120.37 244.311 120.579L244.362 121.829L244.413 123.079C244.427 123.287 244.421 123.494 244.441 123.704C244.46 123.914 244.492 124.11 244.519 124.304C244.615 125.102 244.712 125.868 244.822 126.603C244.848 126.784 244.865 126.969 244.895 127.14C244.925 127.31 244.972 127.487 245.008 127.659L245.226 128.653C245.355 129.314 245.499 129.881 245.613 130.426C245.933 131.486 246.221 132.331 246.413 132.922C246.5 133.231 246.615 133.533 246.755 133.823C246.714 133.503 246.644 133.188 246.546 132.882C246.375 132.274 246.139 131.41 245.85 130.355C245.742 129.812 245.621 129.221 245.499 128.588L245.281 127.594L245.174 127.076C245.144 126.906 245.132 126.723 245.107 126.542L244.873 124.261C244.854 124.064 244.828 123.87 244.806 123.665C244.784 123.46 244.787 123.258 244.778 123.039C244.763 122.623 244.748 122.207 244.733 121.791C244.713 121.372 244.699 120.954 244.682 120.542C244.679 120.337 244.658 120.133 244.671 119.922L244.699 119.315L244.753 117.024C244.763 116.836 244.762 116.657 244.78 116.479C244.799 116.301 244.823 116.124 244.845 115.953C244.89 115.607 244.931 115.271 244.969 114.943L245.184 113.132C245.394 112.041 245.567 111.158 245.691 110.524C245.762 110.213 245.811 109.898 245.836 109.583Z" fill="#263238"/>
<path d="M146.537 309.592C144.557 309.592 142.596 309.233 140.766 308.537C138.936 307.84 137.274 306.82 135.873 305.533C134.473 304.246 133.363 302.718 132.605 301.037C131.848 299.355 131.458 297.554 131.459 295.734C131.459 292.06 133.048 288.536 135.876 285.939C138.703 283.341 142.538 281.881 146.537 281.881C150.537 281.881 154.372 283.341 157.199 285.939C160.027 288.536 161.616 292.06 161.616 295.734C161.617 297.554 161.227 299.355 160.47 301.037C159.712 302.718 158.602 304.246 157.202 305.533C155.801 306.82 154.139 307.84 152.309 308.537C150.479 309.233 148.518 309.592 146.537 309.592Z" fill="#455A64"/>
<path d="M146.538 289.511C148.745 289.511 149.008 289.511 149.878 289.553C150.403 289.557 150.923 289.646 151.414 289.816C151.774 289.937 152.1 290.131 152.366 290.385C152.639 290.629 152.851 290.926 152.985 291.254C153.164 291.707 153.259 292.184 153.265 292.665C153.306 293.47 153.318 293.706 153.318 295.734C153.318 297.762 153.318 298.003 153.265 298.808C153.259 299.29 153.164 299.767 152.985 300.219C152.848 300.54 152.636 300.829 152.366 301.067C152.1 301.321 151.774 301.515 151.414 301.636C150.923 301.806 150.403 301.895 149.878 301.899C149.008 301.936 148.745 301.941 146.538 301.941C144.33 301.941 144.067 301.941 143.197 301.899C142.672 301.895 142.152 301.806 141.661 301.636C141.305 301.509 140.982 301.316 140.711 301.069C140.441 300.821 140.229 300.525 140.091 300.198C139.911 299.745 139.814 299.268 139.804 298.787C139.764 297.982 139.758 297.746 139.758 295.713C139.758 293.679 139.758 293.449 139.804 292.644C139.814 292.162 139.911 291.685 140.091 291.233C140.23 290.907 140.442 290.612 140.712 290.365C140.983 290.118 141.306 289.926 141.661 289.8C142.152 289.63 142.672 289.541 143.197 289.537C144.067 289.5 144.33 289.494 146.538 289.494M146.538 288.126C144.289 288.126 144.009 288.126 143.127 288.169C142.441 288.182 141.761 288.302 141.118 288.523C140.57 288.719 140.072 289.018 139.655 289.4C139.239 289.783 138.914 290.241 138.701 290.745C138.46 291.335 138.329 291.959 138.315 292.59C138.28 293.4 138.269 293.663 138.269 295.718C138.269 297.773 138.269 298.041 138.315 298.851C138.329 299.482 138.46 300.106 138.701 300.697C138.914 301.201 139.239 301.658 139.655 302.041C140.072 302.423 140.57 302.722 141.118 302.918C141.761 303.139 142.441 303.259 143.127 303.272C144.009 303.31 144.295 303.315 146.538 303.315C148.78 303.315 149.066 303.315 149.948 303.272C150.633 303.258 151.31 303.139 151.951 302.918C152.503 302.727 153.003 302.429 153.417 302.043C153.837 301.664 154.162 301.204 154.369 300.697C154.61 300.106 154.74 299.482 154.754 298.851C154.795 298.041 154.807 297.778 154.807 295.718C154.807 293.658 154.807 293.4 154.754 292.59C154.74 291.959 154.61 291.335 154.369 290.745C154.162 290.237 153.837 289.777 153.417 289.398C153.003 289.013 152.503 288.714 151.951 288.523C151.31 288.303 150.633 288.183 149.948 288.169C149.066 288.132 148.78 288.126 146.538 288.126Z" fill="white"/>
<path d="M146.537 291.833C145.696 291.832 144.873 292.061 144.173 292.489C143.473 292.918 142.928 293.528 142.605 294.242C142.283 294.956 142.198 295.742 142.362 296.5C142.526 297.258 142.931 297.954 143.525 298.501C144.12 299.048 144.878 299.42 145.704 299.57C146.529 299.721 147.384 299.643 148.161 299.347C148.938 299.05 149.602 298.549 150.069 297.906C150.536 297.263 150.784 296.507 150.783 295.734C150.783 294.699 150.336 293.707 149.539 292.976C148.743 292.244 147.663 291.833 146.537 291.833ZM146.537 298.272C145.992 298.272 145.459 298.123 145.006 297.845C144.553 297.567 144.2 297.171 143.991 296.708C143.782 296.246 143.728 295.736 143.834 295.245C143.94 294.754 144.203 294.303 144.588 293.949C144.974 293.594 145.465 293.353 146 293.256C146.534 293.158 147.089 293.208 147.592 293.4C148.096 293.591 148.526 293.916 148.829 294.332C149.132 294.749 149.294 295.238 149.294 295.739C149.294 296.411 149.003 297.055 148.487 297.53C147.97 298.005 147.268 298.272 146.537 298.272Z" fill="white"/>
<path d="M151.939 291.683C151.939 291.864 151.881 292.04 151.772 292.19C151.662 292.341 151.507 292.457 151.325 292.526C151.143 292.595 150.944 292.613 150.751 292.577C150.558 292.542 150.381 292.454 150.243 292.326C150.104 292.198 150.01 292.035 149.972 291.858C149.935 291.681 149.955 291.497 150.031 291.33C150.107 291.164 150.235 291.022 150.399 290.922C150.563 290.823 150.756 290.77 150.952 290.771C151.215 290.773 151.466 290.869 151.651 291.04C151.836 291.211 151.939 291.442 151.939 291.683Z" fill="white"/>
</g>
<path d="M261.359 293.488L256.285 292.693L252.838 311.223L257.911 312.018L261.359 293.488Z" fill="#FF725E"/>
<path d="M253.271 290.777L248.198 289.982L244.489 309.921L249.562 310.716L253.271 290.777Z" fill="#FF725E"/>
<path d="M244.719 291.976L239.645 291.181L236.396 308.646L241.47 309.441L244.719 291.976Z" fill="#FF725E"/>
<path d="M235.998 293.417L230.925 292.622L228.182 307.365L233.255 308.16L235.998 293.417Z" fill="#FF725E"/>
<path d="M261.75 312.691C261.731 312.794 253.375 311.569 243.086 309.956C232.797 308.343 224.471 306.953 224.49 306.85C224.51 306.747 232.864 307.979 243.154 309.592C253.443 311.204 261.768 312.594 261.75 312.691Z" fill="#263238"/>
<path d="M262.876 294.907C262.87 294.941 262.302 294.76 261.25 294.652C259.763 294.502 258.258 294.671 256.855 295.144C255.892 295.466 254.997 295.936 254.206 296.533C253.317 297.165 252.527 297.967 251.587 298.754C250.626 299.624 249.448 300.266 248.154 300.621C246.745 300.909 245.287 300.94 243.865 300.712C242.417 300.535 241.024 300.267 239.675 300.098C238.382 299.938 237.075 299.896 235.773 299.974C233.559 300.058 231.445 300.838 229.785 302.184C228.684 303.103 227.92 304.313 227.599 305.647C227.514 306.141 227.473 306.641 227.475 307.141C227.356 306.642 227.345 306.126 227.441 305.622C227.722 304.231 228.48 302.96 229.605 301.993C230.36 301.321 231.245 300.783 232.214 300.407C233.335 299.987 234.52 299.729 235.727 299.642C237.055 299.553 238.39 299.587 239.711 299.743C241.086 299.895 242.476 300.176 243.901 300.35C245.271 300.579 246.677 300.559 248.038 300.291C249.28 299.961 250.413 299.354 251.336 298.524C252.249 297.761 253.1 296.961 253.999 296.317C254.825 295.711 255.758 295.24 256.757 294.924C258.198 294.461 259.739 294.324 261.25 294.525C261.66 294.583 262.064 294.67 262.459 294.785C262.604 294.807 262.744 294.848 262.876 294.907Z" fill="#263238"/>
<path d="M229.222 285.105C229.335 285.122 228.492 290.111 227.351 296.242C226.21 302.373 225.202 307.336 225.09 307.319C224.977 307.301 225.821 302.312 226.961 296.181C228.102 290.05 229.118 285.088 229.222 285.105Z" fill="#263238"/>
<path d="M105.673 329.457C103.836 329.458 102.017 329.127 100.32 328.482C98.6222 327.838 97.08 326.893 95.781 325.702C94.4821 324.51 93.4518 323.096 92.7492 321.539C92.0466 319.982 91.6853 318.314 91.686 316.629C91.686 313.227 93.1597 309.964 95.7827 307.558C98.4058 305.152 101.963 303.8 105.673 303.8C109.383 303.8 112.94 305.152 115.563 307.558C118.186 309.964 119.66 313.227 119.66 316.629C119.661 318.314 119.299 319.982 118.597 321.539C117.894 323.096 116.864 324.51 115.565 325.702C114.266 326.893 112.724 327.838 111.026 328.482C109.329 329.127 107.51 329.458 105.673 329.457Z" fill="#FF725E"/>
<path fill-rule="evenodd" clip-rule="evenodd" d="M113.327 316.272C113.271 314.486 112.462 312.789 111.071 311.537C109.679 310.286 107.813 309.578 105.865 309.562C103.916 309.545 102.037 310.222 100.621 311.45C99.2047 312.678 98.3625 314.361 98.271 316.147C98.271 316.246 98.271 316.346 98.271 316.451C98.271 317.699 98.6447 318.923 99.3513 319.989L97.9966 323.659L102.169 322.443C103.313 323.019 104.599 323.313 105.904 323.296C107.208 323.28 108.485 322.953 109.611 322.348C110.736 321.743 111.671 320.881 112.325 319.845C112.978 318.81 113.327 317.637 113.338 316.44L113.327 316.272ZM105.793 322.212C104.556 322.215 103.345 321.883 102.312 321.258L99.8771 321.971L100.666 319.827C99.8834 318.847 99.4609 317.665 99.4599 316.451C99.4597 316.263 99.4712 316.076 99.4942 315.89C99.6648 314.456 100.41 313.131 101.586 312.174C102.762 311.216 104.284 310.693 105.856 310.707C107.429 310.72 108.939 311.27 110.095 312.248C111.251 313.226 111.968 314.563 112.109 316C112.109 316.147 112.109 316.299 112.109 316.451C112.099 317.981 111.429 319.446 110.246 320.525C109.062 321.604 107.462 322.211 105.793 322.212Z" fill="white"/>
<path fill-rule="evenodd" clip-rule="evenodd" d="M109.246 317.835C109.063 317.751 108.154 317.342 107.988 317.31C107.822 317.279 107.691 317.226 107.571 317.394C107.451 317.562 107.091 317.945 106.999 318.055C106.908 318.165 106.788 318.181 106.599 318.097C106.055 317.898 105.552 317.614 105.113 317.258C104.71 316.921 104.365 316.531 104.09 316.099C103.981 315.932 104.09 315.842 104.17 315.759C104.25 315.675 104.353 315.559 104.45 315.46L104.513 315.381C104.556 315.317 104.596 315.25 104.633 315.182C104.66 315.137 104.674 315.086 104.674 315.035C104.674 314.984 104.66 314.933 104.633 314.888C104.587 314.804 104.216 313.976 104.061 313.635C103.907 313.295 103.758 313.357 103.644 313.357C103.53 313.357 103.415 313.357 103.295 313.357C103.201 313.36 103.109 313.379 103.023 313.415C102.938 313.451 102.861 313.503 102.798 313.567C102.59 313.748 102.426 313.966 102.314 314.208C102.203 314.449 102.148 314.71 102.152 314.972C102.156 315.166 102.188 315.358 102.249 315.544C102.396 315.965 102.62 316.361 102.912 316.713C103.004 316.818 104.187 318.574 106.062 319.25C107.937 319.926 107.942 319.696 108.28 319.664C108.538 319.621 108.782 319.528 108.997 319.391C109.212 319.253 109.393 319.075 109.526 318.867C109.647 318.617 109.684 318.34 109.634 318.071C109.554 317.96 109.434 317.919 109.246 317.835Z" fill="white"/>
<path d="M163.301 251.775C160.441 251.775 157.699 250.733 155.678 248.879C153.656 247.025 152.52 244.51 152.52 241.887C152.52 240.589 152.798 239.303 153.339 238.103C153.881 236.903 154.675 235.813 155.676 234.894C156.677 233.976 157.866 233.248 159.174 232.751C160.483 232.255 161.885 231.999 163.301 232C166.156 232.006 168.892 233.05 170.909 234.903C172.925 236.757 174.058 239.269 174.058 241.887C174.057 244.506 172.923 247.017 170.907 248.87C168.891 250.723 166.155 251.768 163.301 251.775Z" fill="#FF725E"/>
<path d="M159.848 242.805C159.883 242.822 159.923 242.831 159.963 242.832C160.003 242.832 160.042 242.824 160.078 242.807C160.114 242.791 160.145 242.767 160.168 242.737C160.192 242.708 160.208 242.673 160.214 242.637C160.248 242.517 160.328 242.218 160.368 242.113C160.396 242.048 160.401 241.976 160.381 241.908C160.362 241.84 160.319 241.78 160.26 241.735C159.918 241.362 159.743 240.885 159.768 240.399C159.762 239.965 159.853 239.534 160.034 239.134C160.215 238.733 160.484 238.37 160.823 238.068C161.162 237.765 161.564 237.529 162.006 237.373C162.448 237.218 162.919 237.147 163.392 237.164C165.364 237.164 166.45 238.27 166.45 239.749C166.45 241.694 165.513 243.334 164.118 243.334C163.942 243.339 163.768 243.306 163.608 243.239C163.448 243.172 163.308 243.071 163.197 242.946C163.087 242.821 163.009 242.674 162.97 242.517C162.932 242.359 162.933 242.196 162.975 242.04C163.198 241.185 163.626 240.262 163.626 239.644C163.643 239.515 163.629 239.385 163.586 239.262C163.543 239.139 163.471 239.025 163.377 238.929C163.282 238.834 163.166 238.757 163.036 238.706C162.907 238.655 162.767 238.63 162.626 238.632C161.843 238.632 161.208 239.376 161.208 240.378C161.207 240.738 161.287 241.095 161.443 241.426C161.443 241.426 160.637 244.572 160.5 245.096C160.337 245.944 160.337 246.812 160.5 247.66C160.503 247.676 160.512 247.691 160.525 247.703C160.538 247.716 160.555 247.724 160.573 247.728C160.591 247.732 160.609 247.731 160.627 247.725C160.644 247.72 160.66 247.71 160.671 247.696C161.253 247.038 161.704 246.291 162.003 245.489C162.089 245.19 162.517 243.633 162.517 243.633C162.715 243.901 162.983 244.119 163.297 244.266C163.611 244.414 163.96 244.486 164.312 244.477C166.679 244.477 168.285 242.501 168.285 239.853C168.285 237.851 166.433 235.99 163.626 235.99C160.134 235.99 158.373 238.286 158.373 240.184C158.345 241.395 158.819 242.443 159.848 242.805Z" fill="white"/>
<path d="M150.52 174.31C148.161 174.31 145.899 173.45 144.231 171.92C142.563 170.391 141.626 168.316 141.626 166.152C141.627 163.99 142.565 161.916 144.233 160.387C145.901 158.859 148.162 158 150.52 158C152.877 158 155.138 158.859 156.805 160.388C158.472 161.917 159.408 163.99 159.408 166.152C159.408 168.315 158.472 170.389 156.805 171.918C155.139 173.448 152.878 174.308 150.52 174.31Z" fill="#455A64"/>
<path d="M149.166 171.08H151.326V166.11H152.841L153.001 164.448H151.326V163.499C151.326 163.106 151.412 162.975 151.829 162.975H153.001V161.25H151.503C149.892 161.25 149.166 161.9 149.166 163.148V164.474H148.022V166.157H149.166V171.08Z" fill="white"/>
<defs>
<clipPath id="clip0_1048_79374">
<rect width="210.26" height="289" fill="white" transform="translate(45.7561 70)"/>
</clipPath>
</defs>
</svg>
