<svg width="233" height="244" viewBox="0 0 233 244" fill="none" xmlns="http://www.w3.org/2000/svg">
<rect width="233" height="244" fill="#FAFAF9"/>
<path d="M154.907 49.6336V110.38C154.907 111.492 153.984 112.413 152.867 112.413H80.1343C79.0174 112.413 78.0938 111.492 78.0938 110.38V49.6336C78.0938 48.4993 79.0174 47.6003 80.1343 47.6003H152.867C153.984 47.6003 154.907 48.4993 154.907 49.6336Z" fill="#E5F0F9"/>
<path opacity="0.04" d="M154.909 49.6403V110.374C154.909 111.49 153.981 112.414 152.861 112.414H80.1283C79.0241 112.414 78.0959 111.49 78.0959 110.374V104.442H120.391C135.114 104.442 147.18 92.436 147.18 77.7671V47.5994H152.861C153.981 47.5994 154.909 48.4922 154.909 49.6403Z" fill="black"/>
<path d="M154.9 63.5564V49.6264C154.9 48.509 153.983 47.5947 152.861 47.5947H80.1395C79.018 47.5947 78.1003 48.509 78.1003 49.6264V63.5564H154.9V63.5564Z" fill="#3E5176"/>
<path fill-rule="evenodd" clip-rule="evenodd" d="M79.4505 62.2124H153.549V49.6264C153.549 49.2498 153.235 48.9389 152.86 48.9389H80.1397C79.7652 48.9389 79.4505 49.2498 79.4505 49.6264V62.2124ZM153.549 64.9013H79.4506V110.374C79.4506 110.75 79.7652 111.061 80.1397 111.061H152.86C153.235 111.061 153.549 110.75 153.549 110.374V64.9013ZM80.1397 46.25H152.86C154.73 46.25 156.25 47.7661 156.25 49.6264V110.374C156.25 112.234 154.73 113.75 152.86 113.75H80.1397C78.2703 113.75 76.75 112.234 76.75 110.374V49.6264C76.75 47.7661 78.2703 46.25 80.1397 46.25Z" fill="#293C66"/>
<path d="M101.628 55.5758C101.628 56.891 100.548 57.9671 99.2283 57.9671C97.8843 57.9671 96.8283 56.891 96.8283 55.5758C96.8283 54.2606 97.8843 53.1846 99.2283 53.1846C100.548 53.1846 101.628 54.2607 101.628 55.5758ZM88.1723 55.5758C88.1723 56.891 87.0924 57.9671 85.7723 57.9671C84.4523 57.9671 83.3723 56.891 83.3723 55.5758C83.3723 54.2606 84.4523 53.1846 85.7723 53.1846C87.0924 53.1846 88.1723 54.2607 88.1723 55.5758Z" fill="white"/>
<path d="M88.1725 55.5756C88.1725 56.8988 87.0845 57.9669 85.7725 57.9669C84.9245 57.9669 84.2045 57.5524 83.7725 56.9148C84.1405 57.1698 84.6045 57.3133 85.1005 57.3133C86.4125 57.3133 87.5005 56.2293 87.5005 54.9221C87.5005 54.4279 87.3565 53.9815 87.1005 53.5989C87.7405 54.0293 88.1725 54.7626 88.1725 55.5756Z" fill="#E1E1E1"/>
<path d="M94.9003 55.5758C94.9003 56.891 93.8203 57.9671 92.5003 57.9671C91.1804 57.9671 90.1003 56.891 90.1003 55.5758C90.1003 54.2606 91.1804 53.1846 92.5003 53.1846C93.8203 53.1846 94.9003 54.2607 94.9003 55.5758Z" fill="white"/>
<path d="M94.9005 55.5758C94.9005 56.899 93.8125 57.967 92.5005 57.967C91.6525 57.967 90.9325 57.5525 90.5005 56.9149C90.8686 57.1699 91.3325 57.3135 91.8285 57.3135C93.1405 57.3135 94.2285 56.2294 94.2285 54.9222C94.2285 54.428 94.0846 53.9816 93.8285 53.599C94.4685 54.0295 94.9005 54.7627 94.9005 55.5758ZM101.636 55.5678C101.636 56.891 100.548 57.9591 99.2363 57.9591C98.3884 57.9591 97.6684 57.5446 97.2363 56.9069C97.6044 57.162 98.0684 57.3055 98.5644 57.3055C99.8764 57.3055 100.964 56.2215 100.964 54.9143C100.964 54.4201 100.82 53.9737 100.564 53.5911C101.204 54.0215 101.636 54.7548 101.636 55.5678Z" fill="#E1E1E1"/>
<path d="M149.636 53.8939V57.2576C149.636 57.6561 149.316 57.959 148.916 57.959H107.172C106.788 57.959 106.468 57.6561 106.468 57.2576V53.8939C106.468 53.4954 106.788 53.1765 107.172 53.1765H148.916C149.316 53.1765 149.636 53.4954 149.636 53.8939Z" fill="white"/>
<path d="M149.636 53.8939V57.2576C149.636 57.6561 149.316 57.959 148.916 57.959H107.172C106.788 57.959 106.468 57.6561 106.468 57.2576V57.0344H144.676C146.868 57.0344 148.644 55.3287 148.756 53.1765H148.916C149.316 53.1765 149.636 53.4954 149.636 53.8939Z" fill="#E1E1E1"/>
<path d="M130.019 75.0303V82.8686L137.993 88.3376L130.019 93.8001V101.638L145.547 90.9987V85.678L130.019 75.0303Z" fill="#C6C6C6"/>
<path opacity="0.05" d="M145.55 85.6826V91L130.02 101.635V97.8983L138.402 92.1498C141.159 90.2655 142.809 87.1516 142.809 83.8142L145.55 85.6826Z" fill="black"/>
<path d="M102.984 75.0303V82.8686L95.0099 88.3376L102.984 93.8001V101.638L87.4565 90.9987V85.678L102.984 75.0303Z" fill="#C6C6C6"/>
<path opacity="0.05" d="M102.983 97.7065V101.635L87.4534 91.0003V87.0715L102.983 97.7065Z" fill="black"/>
<path d="M125.625 106.116L114.172 69.8467H107.378L118.832 106.116H125.625Z" fill="#C6C6C6"/>
<path opacity="0.05" d="M125.628 106.122H122.52L111.061 69.8418H114.17L125.628 106.122Z" fill="black"/>
<path d="M130.019 102.834C129.828 102.834 129.636 102.789 129.461 102.696C129.065 102.49 128.819 102.082 128.819 101.638V93.8008C128.819 93.4069 129.012 93.0386 129.339 92.8152L135.876 88.3362L129.339 83.8534C129.012 83.6308 128.819 83.2625 128.819 82.8686V75.0302C128.819 74.5857 129.065 74.1785 129.461 73.9714C129.856 73.7643 130.334 73.7939 130.699 74.0454L146.226 84.6935C146.553 84.9161 146.747 85.2844 146.747 85.6783V90.9981C146.747 91.392 146.553 91.7603 146.226 91.9837L130.699 102.624C130.495 102.763 130.258 102.834 130.019 102.834ZM131.219 94.4299V99.3643L144.346 90.369V86.3066L131.219 77.3051V82.2403L138.673 87.3522C139 87.5748 139.194 87.9439 139.194 88.337C139.194 88.731 138.998 89.0992 138.673 89.3227L131.219 94.4299ZM102.984 102.834C102.745 102.834 102.508 102.763 102.305 102.624L86.7768 91.9837C86.4501 91.7603 86.2563 91.392 86.2563 90.9981V85.6783C86.2563 85.2844 86.4501 84.9161 86.7768 84.6934L102.305 74.0454C102.669 73.7939 103.148 73.7643 103.542 73.9714C103.938 74.1785 104.185 74.5857 104.185 75.0302V82.8685C104.185 83.2617 103.991 83.6307 103.664 83.8534L97.1286 88.3362L103.664 92.8152C103.991 93.0386 104.185 93.4069 104.185 93.8008V101.638C104.185 102.082 103.938 102.49 103.542 102.696C103.367 102.789 103.175 102.834 102.984 102.834ZM88.6568 90.369L101.784 99.3643V94.4299L94.3312 89.3226C94.0046 89.0992 93.8108 88.731 93.8108 88.337C93.8108 87.9439 94.0046 87.5748 94.3312 87.3522L101.784 82.2403V77.3051L88.6568 86.3066V90.369Z" fill="#293C66"/>
<path d="M125.626 107.312H118.832C118.309 107.312 117.845 106.973 117.687 106.475L106.233 70.2056C106.119 69.842 106.185 69.4466 106.411 69.139C106.636 68.8323 106.996 68.6509 107.379 68.6509H114.172C114.696 68.6509 115.16 68.9895 115.318 69.4878L126.771 105.757C126.885 106.12 126.82 106.516 126.593 106.823C126.368 107.13 126.009 107.312 125.626 107.312ZM119.712 104.92H123.989L113.292 71.0426H109.015L119.712 104.92Z" fill="#293C66"/>
<path d="M61.8427 173V155.545H68.3881C69.729 155.545 70.854 155.795 71.7631 156.295C72.6779 156.795 73.3683 157.483 73.8342 158.358C74.3058 159.227 74.5415 160.216 74.5415 161.324C74.5415 162.443 74.3058 163.437 73.8342 164.307C73.3626 165.176 72.6665 165.861 71.7461 166.361C70.8256 166.855 69.6921 167.102 68.3455 167.102H64.0075V164.503H67.9194C68.7035 164.503 69.3455 164.366 69.8455 164.094C70.3455 163.821 70.7148 163.446 70.9535 162.969C71.1978 162.491 71.32 161.943 71.32 161.324C71.32 160.705 71.1978 160.159 70.9535 159.688C70.7148 159.216 70.3427 158.849 69.837 158.588C69.337 158.321 68.6921 158.188 67.9023 158.188H65.0046V173H61.8427ZM80.2369 165.33V173H77.1516V155.545H80.1687V162.134H80.3221C80.6289 161.395 81.1033 160.812 81.7454 160.386C82.3931 159.955 83.217 159.739 84.217 159.739C85.1261 159.739 85.9187 159.929 86.5948 160.31C87.271 160.69 87.7937 161.247 88.163 161.98C88.538 162.713 88.7255 163.608 88.7255 164.665V173H85.6403V165.142C85.6403 164.261 85.413 163.577 84.9585 163.088C84.5096 162.594 83.8789 162.347 83.0664 162.347C82.521 162.347 82.0323 162.466 81.6005 162.705C81.1744 162.937 80.8391 163.276 80.5948 163.719C80.3562 164.162 80.2369 164.699 80.2369 165.33ZM95.6374 173.264C94.8079 173.264 94.0607 173.116 93.396 172.821C92.7369 172.52 92.2141 172.077 91.8278 171.491C91.4471 170.906 91.2567 170.185 91.2567 169.327C91.2567 168.588 91.3931 167.977 91.6658 167.494C91.9386 167.011 92.3107 166.625 92.7823 166.335C93.2539 166.045 93.7852 165.827 94.3761 165.679C94.9727 165.526 95.5891 165.415 96.2255 165.347C96.9925 165.267 97.6147 165.196 98.092 165.134C98.5692 165.065 98.9158 164.963 99.1317 164.827C99.3533 164.685 99.4641 164.466 99.4641 164.17V164.119C99.4641 163.477 99.2738 162.98 98.8931 162.628C98.5124 162.276 97.9641 162.099 97.2482 162.099C96.4925 162.099 95.8931 162.264 95.4499 162.594C95.0124 162.923 94.717 163.312 94.5636 163.761L91.6829 163.352C91.9102 162.557 92.2852 161.892 92.8079 161.358C93.3306 160.818 93.9698 160.415 94.7255 160.148C95.4812 159.875 96.3164 159.739 97.2312 159.739C97.8619 159.739 98.4897 159.812 99.1147 159.96C99.7397 160.108 100.311 160.352 100.828 160.693C101.345 161.028 101.76 161.486 102.072 162.065C102.39 162.645 102.549 163.369 102.549 164.239V173H99.5835V171.202H99.4812C99.2937 171.565 99.0295 171.906 98.6886 172.224C98.3533 172.537 97.93 172.79 97.4187 172.983C96.913 173.17 96.3192 173.264 95.6374 173.264ZM96.4386 170.997C97.0579 170.997 97.5948 170.875 98.0494 170.631C98.5039 170.381 98.8533 170.051 99.0977 169.642C99.3477 169.233 99.4727 168.787 99.4727 168.304V166.761C99.3761 166.841 99.2113 166.915 98.9783 166.983C98.7511 167.051 98.4954 167.111 98.2113 167.162C97.9272 167.213 97.646 167.259 97.3675 167.298C97.0891 167.338 96.8477 167.372 96.6431 167.401C96.1829 167.463 95.771 167.565 95.4073 167.707C95.0437 167.849 94.7567 168.048 94.5465 168.304C94.3363 168.554 94.2312 168.878 94.2312 169.276C94.2312 169.844 94.4386 170.273 94.8533 170.562C95.2681 170.852 95.7965 170.997 96.4386 170.997ZM96.1829 158.188L98.092 154.293H101.109L98.4925 158.188H96.1829ZM112.189 159.909V162.295H104.663V159.909H112.189ZM106.521 156.773H109.606V169.062C109.606 169.477 109.669 169.795 109.794 170.017C109.924 170.233 110.095 170.381 110.305 170.46C110.515 170.54 110.748 170.58 111.004 170.58C111.197 170.58 111.373 170.565 111.532 170.537C111.697 170.509 111.822 170.483 111.907 170.46L112.427 172.872C112.262 172.929 112.027 172.991 111.72 173.06C111.419 173.128 111.049 173.168 110.612 173.179C109.839 173.202 109.143 173.085 108.524 172.83C107.904 172.568 107.413 172.165 107.049 171.619C106.691 171.074 106.515 170.392 106.521 169.574V156.773ZM127.259 159.909V162.295H119.733V159.909H127.259ZM121.591 156.773H124.676V169.062C124.676 169.477 124.739 169.795 124.864 170.017C124.995 170.233 125.165 170.381 125.375 170.46C125.586 170.54 125.819 170.58 126.074 170.58C126.267 170.58 126.444 170.565 126.603 170.537C126.767 170.509 126.892 170.483 126.978 170.46L127.498 172.872C127.333 172.929 127.097 172.991 126.79 173.06C126.489 173.128 126.12 173.168 125.682 173.179C124.909 173.202 124.213 173.085 123.594 172.83C122.975 172.568 122.483 172.165 122.12 171.619C121.762 171.074 121.586 170.392 121.591 169.574V156.773ZM129.839 173V159.909H132.831V162.091H132.967C133.206 161.335 133.615 160.753 134.194 160.344C134.779 159.929 135.447 159.722 136.197 159.722C136.368 159.722 136.558 159.73 136.768 159.747C136.984 159.759 137.163 159.778 137.305 159.807V162.645C137.174 162.599 136.967 162.56 136.683 162.526C136.404 162.486 136.135 162.466 135.873 162.466C135.311 162.466 134.805 162.588 134.356 162.832C133.913 163.071 133.564 163.403 133.308 163.83C133.052 164.256 132.924 164.747 132.924 165.304V173H129.839ZM139.355 173V159.909H142.44V173H139.355ZM140.906 158.051C140.417 158.051 139.997 157.889 139.645 157.565C139.292 157.236 139.116 156.841 139.116 156.381C139.116 155.915 139.292 155.52 139.645 155.196C139.997 154.866 140.417 154.702 140.906 154.702C141.4 154.702 141.821 154.866 142.167 155.196C142.52 155.52 142.696 155.915 142.696 156.381C142.696 156.841 142.52 157.236 142.167 157.565C141.821 157.889 141.4 158.051 140.906 158.051ZM151.408 173.256C150.096 173.256 148.962 172.983 148.007 172.438C147.059 171.886 146.328 171.108 145.817 170.102C145.306 169.091 145.05 167.901 145.05 166.531C145.05 165.185 145.306 164.003 145.817 162.986C146.334 161.963 147.056 161.168 147.982 160.599C148.908 160.026 149.996 159.739 151.246 159.739C152.053 159.739 152.814 159.869 153.53 160.131C154.252 160.386 154.888 160.784 155.439 161.324C155.996 161.864 156.434 162.551 156.752 163.386C157.07 164.216 157.229 165.205 157.229 166.352V167.298H146.499V165.219H154.272C154.266 164.628 154.138 164.102 153.888 163.642C153.638 163.176 153.289 162.81 152.84 162.543C152.397 162.276 151.88 162.142 151.289 162.142C150.658 162.142 150.104 162.295 149.627 162.602C149.15 162.903 148.777 163.301 148.51 163.795C148.249 164.284 148.115 164.821 148.11 165.406V167.222C148.11 167.983 148.249 168.636 148.527 169.182C148.806 169.722 149.195 170.136 149.695 170.426C150.195 170.71 150.78 170.852 151.451 170.852C151.9 170.852 152.306 170.79 152.669 170.665C153.033 170.534 153.348 170.344 153.615 170.094C153.882 169.844 154.084 169.534 154.221 169.165L157.101 169.489C156.919 170.25 156.573 170.915 156.061 171.483C155.556 172.045 154.908 172.483 154.118 172.795C153.328 173.102 152.425 173.256 151.408 173.256ZM152.226 155.75L155.55 158.554H153.172L151.144 156.841L149.107 158.554H146.729L150.053 155.75H152.226ZM156.172 157.011H154.442L154.331 155.631C154.814 155.602 155.167 155.54 155.388 155.443C155.615 155.341 155.729 155.185 155.729 154.974C155.729 154.707 155.587 154.526 155.303 154.429C155.019 154.327 154.658 154.276 154.221 154.276L154.306 152.989C155.419 152.989 156.263 153.159 156.837 153.5C157.417 153.841 157.706 154.31 157.706 154.906C157.706 155.366 157.547 155.71 157.229 155.938C156.911 156.165 156.559 156.307 156.172 156.364V157.011ZM162.924 165.33V173H159.839V159.909H162.788V162.134H162.941C163.243 161.401 163.723 160.818 164.382 160.386C165.047 159.955 165.868 159.739 166.845 159.739C167.748 159.739 168.535 159.932 169.206 160.318C169.882 160.705 170.404 161.264 170.774 161.997C171.149 162.73 171.333 163.619 171.328 164.665V173H168.243V165.142C168.243 164.267 168.015 163.582 167.561 163.088C167.112 162.594 166.49 162.347 165.694 162.347C165.154 162.347 164.674 162.466 164.254 162.705C163.839 162.937 163.512 163.276 163.274 163.719C163.041 164.162 162.924 164.699 162.924 165.33ZM57.3938 209.909V191.909H60.4279V194.074H60.6069C60.766 193.756 60.9904 193.418 61.2802 193.06C61.57 192.696 61.962 192.386 62.4563 192.131C62.9506 191.869 63.5813 191.739 64.3484 191.739C65.3597 191.739 66.2717 191.997 67.0842 192.514C67.9023 193.026 68.5501 193.784 69.0273 194.79C69.5103 195.79 69.7518 197.017 69.7518 198.472C69.7518 199.909 69.516 201.131 69.0444 202.136C68.5728 203.142 67.9308 203.909 67.1183 204.438C66.3058 204.966 65.3853 205.23 64.3569 205.23C63.6069 205.23 62.9847 205.105 62.4904 204.855C61.9961 204.605 61.5984 204.304 61.2972 203.952C61.0018 203.594 60.7717 203.256 60.6069 202.938H60.479V209.909H57.3938ZM60.4194 198.455C60.4194 199.301 60.5387 200.043 60.7773 200.679C61.0217 201.315 61.3711 201.812 61.8256 202.17C62.2859 202.523 62.8427 202.699 63.4961 202.699C64.1779 202.699 64.7489 202.517 65.2092 202.153C65.6694 201.784 66.016 201.281 66.2489 200.645C66.4876 200.003 66.6069 199.273 66.6069 198.455C66.6069 197.642 66.4904 196.92 66.2575 196.29C66.0245 195.659 65.6779 195.165 65.2177 194.807C64.7575 194.449 64.1836 194.27 63.4961 194.27C62.837 194.27 62.2773 194.443 61.8171 194.79C61.3569 195.136 61.0075 195.622 60.7688 196.247C60.5359 196.872 60.4194 197.608 60.4194 198.455ZM75.479 197.33V205H72.3938V187.545H75.4109V194.134H75.5643C75.8711 193.395 76.3455 192.812 76.9876 192.386C77.6353 191.955 78.4592 191.739 79.4592 191.739C80.3683 191.739 81.1609 191.929 81.837 192.31C82.5131 192.69 83.0359 193.247 83.4052 193.98C83.7802 194.713 83.9677 195.608 83.9677 196.665V205H80.8825V197.142C80.8825 196.261 80.6552 195.577 80.2006 195.088C79.7518 194.594 79.1211 194.347 78.3086 194.347C77.7631 194.347 77.2745 194.466 76.8427 194.705C76.4165 194.937 76.0813 195.276 75.837 195.719C75.5984 196.162 75.479 196.699 75.479 197.33ZM90.8796 205.264C90.0501 205.264 89.3029 205.116 88.6381 204.821C87.979 204.52 87.4563 204.077 87.07 203.491C86.6893 202.906 86.4989 202.185 86.4989 201.327C86.4989 200.588 86.6353 199.977 86.908 199.494C87.1808 199.011 87.5529 198.625 88.0245 198.335C88.4961 198.045 89.0273 197.827 89.6183 197.679C90.2148 197.526 90.8313 197.415 91.4677 197.347C92.2347 197.267 92.8569 197.196 93.3342 197.134C93.8114 197.065 94.158 196.963 94.3739 196.827C94.5955 196.685 94.7063 196.466 94.7063 196.17V196.119C94.7063 195.477 94.516 194.98 94.1353 194.628C93.7546 194.276 93.2063 194.099 92.4904 194.099C91.7347 194.099 91.1353 194.264 90.6921 194.594C90.2546 194.923 89.9592 195.312 89.8058 195.761L86.9251 195.352C87.1523 194.557 87.5273 193.892 88.0501 193.358C88.5728 192.818 89.212 192.415 89.9677 192.148C90.7234 191.875 91.5586 191.739 92.4734 191.739C93.104 191.739 93.7319 191.812 94.3569 191.96C94.9819 192.108 95.5529 192.352 96.07 192.693C96.587 193.028 97.0018 193.486 97.3143 194.065C97.6325 194.645 97.7915 195.369 97.7915 196.239V205H94.8256V203.202H94.7234C94.5359 203.565 94.2717 203.906 93.9308 204.224C93.5955 204.537 93.1722 204.79 92.6609 204.983C92.1552 205.17 91.5614 205.264 90.8796 205.264ZM91.6808 202.997C92.3001 202.997 92.837 202.875 93.2915 202.631C93.7461 202.381 94.0955 202.051 94.3398 201.642C94.5898 201.233 94.7148 200.787 94.7148 200.304V198.761C94.6183 198.841 94.4535 198.915 94.2205 198.983C93.9933 199.051 93.7376 199.111 93.4535 199.162C93.1694 199.213 92.8881 199.259 92.6097 199.298C92.3313 199.338 92.0898 199.372 91.8853 199.401C91.4251 199.463 91.0131 199.565 90.6495 199.707C90.2859 199.849 89.9989 200.048 89.7887 200.304C89.5785 200.554 89.4734 200.878 89.4734 201.276C89.4734 201.844 89.6808 202.273 90.0955 202.562C90.5103 202.852 91.0387 202.997 91.6808 202.997ZM93.5643 187.656L97.0245 190.46H94.4592L92.6183 188.892L90.7518 190.46H88.2035L91.6296 187.656H93.5643ZM87.2063 185.602L89.0898 188.756H87.1637L84.5046 185.602H87.2063ZM103.979 197.33V205H100.894V191.909H103.843V194.134H103.996C104.297 193.401 104.777 192.818 105.436 192.386C106.101 191.955 106.922 191.739 107.9 191.739C108.803 191.739 109.59 191.932 110.26 192.318C110.936 192.705 111.459 193.264 111.828 193.997C112.203 194.73 112.388 195.619 112.382 196.665V205H109.297V197.142C109.297 196.267 109.07 195.582 108.615 195.088C108.167 194.594 107.544 194.347 106.749 194.347C106.209 194.347 105.729 194.466 105.309 194.705C104.894 194.937 104.567 195.276 104.328 195.719C104.096 196.162 103.979 196.699 103.979 197.33ZM121.472 205V191.909H124.421V194.134H124.574C124.847 193.384 125.299 192.798 125.929 192.378C126.56 191.952 127.313 191.739 128.188 191.739C129.074 191.739 129.821 191.955 130.429 192.386C131.043 192.812 131.475 193.395 131.725 194.134H131.861C132.151 193.406 132.64 192.827 133.327 192.395C134.02 191.957 134.841 191.739 135.79 191.739C136.995 191.739 137.978 192.119 138.739 192.881C139.5 193.642 139.881 194.753 139.881 196.213V205H136.787V196.69C136.787 195.878 136.571 195.284 136.14 194.909C135.708 194.528 135.179 194.338 134.554 194.338C133.81 194.338 133.228 194.571 132.807 195.037C132.392 195.497 132.185 196.097 132.185 196.835V205H129.159V196.562C129.159 195.886 128.955 195.347 128.546 194.943C128.142 194.54 127.614 194.338 126.961 194.338C126.517 194.338 126.114 194.452 125.75 194.679C125.387 194.901 125.097 195.216 124.881 195.625C124.665 196.028 124.557 196.5 124.557 197.04V205H121.472ZM148.806 205.256C147.494 205.256 146.36 204.983 145.406 204.438C144.457 203.886 143.727 203.108 143.216 202.102C142.704 201.091 142.449 199.901 142.449 198.531C142.449 197.185 142.704 196.003 143.216 194.986C143.733 193.963 144.454 193.168 145.38 192.599C146.306 192.026 147.395 191.739 148.645 191.739C149.451 191.739 150.213 191.869 150.929 192.131C151.65 192.386 152.287 192.784 152.838 193.324C153.395 193.864 153.832 194.551 154.15 195.386C154.468 196.216 154.627 197.205 154.627 198.352V199.298H143.897V197.219H151.67C151.664 196.628 151.537 196.102 151.287 195.642C151.037 195.176 150.687 194.81 150.238 194.543C149.795 194.276 149.278 194.142 148.687 194.142C148.056 194.142 147.502 194.295 147.025 194.602C146.548 194.903 146.176 195.301 145.909 195.795C145.647 196.284 145.514 196.821 145.508 197.406V199.222C145.508 199.983 145.647 200.636 145.926 201.182C146.204 201.722 146.593 202.136 147.093 202.426C147.593 202.71 148.179 202.852 148.849 202.852C149.298 202.852 149.704 202.79 150.068 202.665C150.431 202.534 150.747 202.344 151.014 202.094C151.281 201.844 151.483 201.534 151.619 201.165L154.5 201.489C154.318 202.25 153.971 202.915 153.46 203.483C152.954 204.045 152.306 204.483 151.517 204.795C150.727 205.102 149.824 205.256 148.806 205.256ZM149.505 187.656L152.966 190.46H150.4L148.559 188.892L146.693 190.46H144.145L147.571 187.656H149.505ZM143.147 185.602L145.031 188.756H143.105L140.446 185.602H143.147ZM157.238 205V191.909H160.186V194.134H160.34C160.613 193.384 161.064 192.798 161.695 192.378C162.326 191.952 163.078 191.739 163.953 191.739C164.84 191.739 165.587 191.955 166.195 192.386C166.809 192.812 167.24 193.395 167.49 194.134H167.627C167.917 193.406 168.405 192.827 169.093 192.395C169.786 191.957 170.607 191.739 171.556 191.739C172.76 191.739 173.743 192.119 174.505 192.881C175.266 193.642 175.647 194.753 175.647 196.213V205H172.553V196.69C172.553 195.878 172.337 195.284 171.905 194.909C171.473 194.528 170.945 194.338 170.32 194.338C169.576 194.338 168.993 194.571 168.573 195.037C168.158 195.497 167.951 196.097 167.951 196.835V205H164.925V196.562C164.925 195.886 164.721 195.347 164.311 194.943C163.908 194.54 163.38 194.338 162.726 194.338C162.283 194.338 161.88 194.452 161.516 194.679C161.152 194.901 160.863 195.216 160.647 195.625C160.431 196.028 160.323 196.5 160.323 197.04V205H157.238Z" fill="#44403C"/>
</svg>
