<svg width="233" height="244" viewBox="0 0 233 244" fill="none" xmlns="http://www.w3.org/2000/svg">
<rect width="233" height="244" fill="#FAFAF9"/>
<path d="M135.4 78.7249V53.3999H80.4V108.4H135.4V83.0499L155.4 96.0249V65.7499L135.4 78.7249ZM107.9 85.6249C106.958 85.6298 106.037 85.3548 105.252 84.8348C104.467 84.3148 103.854 83.5732 103.491 82.7042C103.129 81.8353 103.033 80.8781 103.215 79.9544C103.398 79.0307 103.851 78.182 104.516 77.5162C105.182 76.8504 106.031 76.3975 106.955 76.215C107.878 76.0325 108.835 76.1287 109.704 76.4913C110.573 76.8539 111.315 77.4666 111.835 78.2516C112.355 79.0365 112.63 79.9583 112.625 80.8999C112.625 82.1511 112.132 83.3517 111.252 84.2411C110.371 85.1305 109.176 85.6367 107.925 85.6499L107.9 85.6249Z" fill="#FCAE18"/>
<path d="M109.825 79.0874C109.825 76.4709 107.704 74.3499 105.087 74.3499C102.471 74.3499 100.35 76.4709 100.35 79.0874C100.35 81.7038 102.471 83.8249 105.087 83.8249C107.704 83.8249 109.825 81.7038 109.825 79.0874Z" fill="black"/>
<path d="M155.4 65.75V96.025L135.4 83.075V78.725L155.4 65.75Z" fill="#F94819"/>
<path fill-rule="evenodd" clip-rule="evenodd" d="M78.6 81.7249H81.6V88.2748H78.6V81.7249Z" fill="black"/>
<path fill-rule="evenodd" clip-rule="evenodd" d="M128.6 55.575H81.6V74.75H78.6V52.575H131.6V105.6H78.6V95.225H81.6V102.6H128.6V55.575Z" fill="black"/>
<path fill-rule="evenodd" clip-rule="evenodd" d="M148.6 71.311L136.61 79.0749L148.6 86.8388V71.311ZM151.6 65.7908V92.3857L131.088 79.0992L151.6 65.7908Z" fill="black"/>
<path d="M77.2347 160.344C77.1552 159.599 76.82 159.02 76.229 158.605C75.6438 158.19 74.8825 157.983 73.945 157.983C73.2859 157.983 72.7205 158.082 72.2489 158.281C71.7773 158.48 71.4165 158.75 71.1665 159.091C70.9165 159.432 70.7887 159.821 70.783 160.259C70.783 160.622 70.8654 160.937 71.0302 161.205C71.2006 161.472 71.4308 161.699 71.7205 161.886C72.0103 162.068 72.3313 162.222 72.6836 162.347C73.0359 162.472 73.391 162.577 73.7489 162.662L75.3853 163.071C76.0444 163.224 76.6779 163.432 77.2859 163.693C77.8995 163.955 78.4478 164.284 78.9308 164.682C79.4194 165.08 79.8058 165.56 80.0898 166.122C80.3739 166.685 80.516 167.344 80.516 168.099C80.516 169.122 80.2546 170.023 79.7319 170.801C79.2092 171.574 78.4535 172.179 77.4648 172.616C76.4819 173.048 75.2915 173.264 73.8938 173.264C72.5359 173.264 71.3569 173.054 70.3569 172.634C69.3626 172.213 68.5842 171.599 68.0217 170.793C67.4648 169.986 67.1637 169.003 67.1183 167.844H70.229C70.2745 168.452 70.462 168.957 70.7915 169.361C71.1211 169.764 71.5501 170.065 72.0785 170.264C72.6126 170.463 73.2092 170.562 73.8683 170.562C74.5558 170.562 75.158 170.46 75.6751 170.256C76.1978 170.045 76.6069 169.756 76.9023 169.386C77.1978 169.011 77.3484 168.574 77.354 168.074C77.3484 167.619 77.2148 167.244 76.9535 166.949C76.6921 166.648 76.3256 166.398 75.854 166.199C75.3881 165.994 74.8427 165.812 74.2177 165.653L72.2319 165.142C70.7944 164.773 69.658 164.213 68.8228 163.463C67.9933 162.707 67.5785 161.705 67.5785 160.455C67.5785 159.426 67.8569 158.526 68.4137 157.753C68.9762 156.98 69.7404 156.381 70.7063 155.955C71.6722 155.523 72.766 155.307 73.9876 155.307C75.2262 155.307 76.3114 155.523 77.2433 155.955C78.1808 156.381 78.9165 156.974 79.4506 157.736C79.9847 158.491 80.2603 159.361 80.2773 160.344H77.2347ZM86.9656 173.264C86.136 173.264 85.3888 173.116 84.7241 172.821C84.065 172.52 83.5423 172.077 83.1559 171.491C82.7752 170.906 82.5849 170.185 82.5849 169.327C82.5849 168.588 82.7212 167.977 82.994 167.494C83.2667 167.011 83.6388 166.625 84.1104 166.335C84.582 166.045 85.1133 165.827 85.7042 165.679C86.3008 165.526 86.9173 165.415 87.5536 165.347C88.3207 165.267 88.9428 165.196 89.4201 165.134C89.8974 165.065 90.244 164.963 90.4599 164.827C90.6815 164.685 90.7923 164.466 90.7923 164.17V164.119C90.7923 163.477 90.6019 162.98 90.2212 162.628C89.8406 162.276 89.2923 162.099 88.5763 162.099C87.8207 162.099 87.2212 162.264 86.7781 162.594C86.3406 162.923 86.0451 163.312 85.8917 163.761L83.011 163.352C83.2383 162.557 83.6133 161.892 84.136 161.358C84.6587 160.818 85.2979 160.415 86.0536 160.148C86.8093 159.875 87.6445 159.739 88.5593 159.739C89.19 159.739 89.8178 159.812 90.4428 159.96C91.0678 160.108 91.6388 160.352 92.1559 160.693C92.6729 161.028 93.0877 161.486 93.4002 162.065C93.7184 162.645 93.8775 163.369 93.8775 164.239V173H90.9116V171.202H90.8093C90.6218 171.565 90.3576 171.906 90.0167 172.224C89.6815 172.537 89.2582 172.79 88.7468 172.983C88.2411 173.17 87.6474 173.264 86.9656 173.264ZM87.7667 170.997C88.386 170.997 88.9229 170.875 89.3775 170.631C89.832 170.381 90.1815 170.051 90.4258 169.642C90.6758 169.233 90.8008 168.787 90.8008 168.304V166.761C90.7042 166.841 90.5394 166.915 90.3065 166.983C90.0792 167.051 89.8235 167.111 89.5394 167.162C89.2553 167.213 88.9741 167.259 88.6957 167.298C88.4173 167.338 88.1758 167.372 87.9712 167.401C87.511 167.463 87.0991 167.565 86.7354 167.707C86.3718 167.849 86.0849 168.048 85.8746 168.304C85.6644 168.554 85.5593 168.878 85.5593 169.276C85.5593 169.844 85.7667 170.273 86.1815 170.562C86.5962 170.852 87.1246 170.997 87.7667 170.997ZM89.8803 158.068H87.5281L87.4087 156.432C88.011 156.409 88.4371 156.332 88.6871 156.202C88.9371 156.065 89.0593 155.878 89.0536 155.639C89.0593 155.332 88.8945 155.119 88.5593 155C88.2241 154.881 87.8093 154.821 87.315 154.821L87.3917 153.295C88.8008 153.295 89.869 153.5 90.5962 153.909C91.3235 154.318 91.6843 154.875 91.6786 155.58C91.6843 156.119 91.4996 156.523 91.1246 156.79C90.7496 157.051 90.3349 157.216 89.8803 157.284V158.068ZM100.065 165.33V173H96.9798V159.909H99.9286V162.134H100.082C100.383 161.401 100.863 160.818 101.522 160.386C102.187 159.955 103.008 159.739 103.985 159.739C104.889 159.739 105.676 159.932 106.346 160.318C107.022 160.705 107.545 161.264 107.914 161.997C108.289 162.73 108.474 163.619 108.468 164.665V173H105.383V165.142C105.383 164.267 105.156 163.582 104.701 163.088C104.252 162.594 103.63 162.347 102.835 162.347C102.295 162.347 101.815 162.466 101.395 162.705C100.98 162.937 100.653 163.276 100.414 163.719C100.181 164.162 100.065 164.699 100.065 165.33ZM120.081 159.909L122.723 164.741L125.407 159.909H128.672L124.725 166.455L128.74 173H125.493L122.723 168.287L119.978 173H116.706L120.694 166.455L116.808 159.909H120.081ZM139.402 167.494V159.909H142.487V173H139.495V170.673H139.359C139.064 171.406 138.578 172.006 137.902 172.472C137.231 172.937 136.404 173.17 135.422 173.17C134.564 173.17 133.805 172.98 133.146 172.599C132.493 172.213 131.981 171.653 131.612 170.92C131.243 170.182 131.058 169.29 131.058 168.244V159.909H134.143V167.767C134.143 168.597 134.37 169.256 134.825 169.744C135.279 170.233 135.876 170.477 136.615 170.477C137.069 170.477 137.51 170.366 137.936 170.145C138.362 169.923 138.711 169.594 138.984 169.156C139.262 168.713 139.402 168.159 139.402 167.494ZM149.426 173.264C148.597 173.264 147.85 173.116 147.185 172.821C146.526 172.52 146.003 172.077 145.617 171.491C145.236 170.906 145.046 170.185 145.046 169.327C145.046 168.588 145.182 167.977 145.455 167.494C145.728 167.011 146.1 166.625 146.571 166.335C147.043 166.045 147.574 165.827 148.165 165.679C148.762 165.526 149.378 165.415 150.015 165.347C150.782 165.267 151.404 165.196 151.881 165.134C152.358 165.065 152.705 164.963 152.921 164.827C153.142 164.685 153.253 164.466 153.253 164.17V164.119C153.253 163.477 153.063 162.98 152.682 162.628C152.301 162.276 151.753 162.099 151.037 162.099C150.282 162.099 149.682 162.264 149.239 162.594C148.801 162.923 148.506 163.312 148.353 163.761L145.472 163.352C145.699 162.557 146.074 161.892 146.597 161.358C147.12 160.818 147.759 160.415 148.515 160.148C149.27 159.875 150.105 159.739 151.02 159.739C151.651 159.739 152.279 159.812 152.904 159.96C153.529 160.108 154.1 160.352 154.617 160.693C155.134 161.028 155.549 161.486 155.861 162.065C156.179 162.645 156.338 163.369 156.338 164.239V173H153.373V171.202H153.27C153.083 171.565 152.819 171.906 152.478 172.224C152.142 172.537 151.719 172.79 151.208 172.983C150.702 173.17 150.108 173.264 149.426 173.264ZM150.228 170.997C150.847 170.997 151.384 170.875 151.838 170.631C152.293 170.381 152.642 170.051 152.887 169.642C153.137 169.233 153.262 168.787 153.262 168.304V166.761C153.165 166.841 153 166.915 152.767 166.983C152.54 167.051 152.284 167.111 152 167.162C151.716 167.213 151.435 167.259 151.157 167.298C150.878 167.338 150.637 167.372 150.432 167.401C149.972 167.463 149.56 167.565 149.196 167.707C148.833 167.849 148.546 168.048 148.336 168.304C148.125 168.554 148.02 168.878 148.02 169.276C148.02 169.844 148.228 170.273 148.642 170.562C149.057 170.852 149.586 170.997 150.228 170.997ZM146.733 158.409L150.185 155.605H152.111L155.58 158.409H153.015L151.165 156.841L149.307 158.409H146.733ZM154.668 156.705L156.56 153.56H159.27L156.637 156.705H154.668ZM165.978 159.909V162.295H158.452V159.909H165.978ZM160.31 156.773H163.395V169.062C163.395 169.477 163.458 169.795 163.583 170.017C163.713 170.233 163.884 170.381 164.094 170.46C164.304 170.54 164.537 170.58 164.793 170.58C164.986 170.58 165.162 170.565 165.321 170.537C165.486 170.509 165.611 170.483 165.696 170.46L166.216 172.872C166.051 172.929 165.816 172.991 165.509 173.06C165.208 173.128 164.838 173.168 164.401 173.179C163.628 173.202 162.932 173.085 162.313 172.83C161.694 172.568 161.202 172.165 160.838 171.619C160.48 171.074 160.304 170.392 160.31 169.574V156.773ZM89.3274 209.909V191.909H92.3615V194.074H92.5405C92.6996 193.756 92.924 193.418 93.2138 193.06C93.5036 192.696 93.8956 192.386 94.3899 192.131C94.8842 191.869 95.5149 191.739 96.282 191.739C97.2933 191.739 98.2053 191.997 99.0178 192.514C99.8359 193.026 100.484 193.784 100.961 194.79C101.444 195.79 101.685 197.017 101.685 198.472C101.685 199.909 101.45 201.131 100.978 202.136C100.506 203.142 99.8643 203.909 99.0518 204.438C98.2393 204.966 97.3189 205.23 96.2905 205.23C95.5405 205.23 94.9183 205.105 94.424 204.855C93.9297 204.605 93.532 204.304 93.2308 203.952C92.9354 203.594 92.7053 203.256 92.5405 202.938H92.4126V209.909H89.3274ZM92.353 198.455C92.353 199.301 92.4723 200.043 92.7109 200.679C92.9553 201.315 93.3047 201.812 93.7592 202.17C94.2195 202.523 94.7763 202.699 95.4297 202.699C96.1115 202.699 96.6825 202.517 97.1428 202.153C97.603 201.784 97.9496 201.281 98.1825 200.645C98.4212 200.003 98.5405 199.273 98.5405 198.455C98.5405 197.642 98.424 196.92 98.1911 196.29C97.9581 195.659 97.6115 195.165 97.1513 194.807C96.6911 194.449 96.1172 194.27 95.4297 194.27C94.7706 194.27 94.2109 194.443 93.7507 194.79C93.2905 195.136 92.9411 195.622 92.7024 196.247C92.4695 196.872 92.353 197.608 92.353 198.455ZM107.413 197.33V205H104.327V187.545H107.344V194.134H107.498C107.805 193.395 108.279 192.812 108.921 192.386C109.569 191.955 110.393 191.739 111.393 191.739C112.302 191.739 113.094 191.929 113.771 192.31C114.447 192.69 114.969 193.247 115.339 193.98C115.714 194.713 115.901 195.608 115.901 196.665V205H112.816V197.142C112.816 196.261 112.589 195.577 112.134 195.088C111.685 194.594 111.055 194.347 110.242 194.347C109.697 194.347 109.208 194.466 108.776 194.705C108.35 194.937 108.015 195.276 107.771 195.719C107.532 196.162 107.413 196.699 107.413 197.33ZM119.046 205V191.909H122.131V205H119.046ZM120.597 190.051C120.109 190.051 119.688 189.889 119.336 189.565C118.984 189.236 118.808 188.841 118.808 188.381C118.808 187.915 118.984 187.52 119.336 187.196C119.688 186.866 120.109 186.702 120.597 186.702C121.092 186.702 121.512 186.866 121.859 187.196C122.211 187.52 122.387 187.915 122.387 188.381C122.387 188.841 122.211 189.236 121.859 189.565C121.512 189.889 121.092 190.051 120.597 190.051ZM125.304 205V191.909H128.253V194.134H128.406C128.679 193.384 129.131 192.798 129.761 192.378C130.392 191.952 131.145 191.739 132.02 191.739C132.906 191.739 133.653 191.955 134.261 192.386C134.875 192.812 135.307 193.395 135.557 194.134H135.693C135.983 193.406 136.472 192.827 137.159 192.395C137.852 191.957 138.673 191.739 139.622 191.739C140.827 191.739 141.81 192.119 142.571 192.881C143.332 193.642 143.713 194.753 143.713 196.213V205H140.619V196.69C140.619 195.878 140.403 195.284 139.972 194.909C139.54 194.528 139.011 194.338 138.386 194.338C137.642 194.338 137.06 194.571 136.639 195.037C136.224 195.497 136.017 196.097 136.017 196.835V205H132.991V196.562C132.991 195.886 132.787 195.347 132.378 194.943C131.974 194.54 131.446 194.338 130.793 194.338C130.349 194.338 129.946 194.452 129.582 194.679C129.219 194.901 128.929 195.216 128.713 195.625C128.497 196.028 128.389 196.5 128.389 197.04V205H125.304Z" fill="#44403C"/>
</svg>
