<svg width="233" height="244" viewBox="0 0 233 244" fill="none" xmlns="http://www.w3.org/2000/svg">
<rect width="233" height="244" fill="#FAFAF9"/>
<path opacity="0.15" d="M137.395 81.3687H82.6579C81.1464 81.3687 79.9211 82.594 79.9211 84.1055V103.264C79.9211 104.775 81.1464 106 82.6579 106H137.395C138.907 106 140.132 104.775 140.132 103.264V84.1055C140.132 82.594 138.907 81.3687 137.395 81.3687Z" fill="black"/>
<path d="M140.132 81.3687H85.3948C83.8833 81.3687 82.658 82.594 82.658 84.1055V103.264C82.658 104.775 83.8833 106 85.3948 106H140.132C141.644 106 142.869 104.775 142.869 103.264V84.1055C142.869 82.594 141.644 81.3687 140.132 81.3687Z" fill="#25B39E"/>
<path fill-rule="evenodd" clip-rule="evenodd" d="M88.1317 86.9739H85.3948V83.9739H88.1317V86.9739ZM93.6054 86.9739H90.8686V83.9739H93.6054V86.9739ZM99.0791 86.9739H96.3423V83.9739H99.0791V86.9739ZM104.553 86.9739H101.816V83.9739H104.553V86.9739ZM110.027 86.9739H107.29V83.9739H110.027V86.9739ZM115.5 86.9739H112.763V83.9739H115.5V86.9739ZM120.974 86.9739H118.237V83.9739H120.974V86.9739ZM126.448 86.9739H123.711V83.9739H126.448V86.9739ZM134.658 86.9739H131.921V83.9739H134.658V86.9739ZM140.132 86.9739H137.395V83.9739H140.132V86.9739ZM88.1317 92.4476H85.3948V89.4476H88.1317V92.4476ZM93.6054 92.4476H90.8686V89.4476H93.6054V92.4476ZM99.0791 92.4476H96.3423V89.4476H99.0791V92.4476ZM104.553 92.4476H101.816V89.4476H104.553V92.4476ZM110.027 92.4476H107.29V89.4476H110.027V92.4476ZM115.5 92.4476H112.763V89.4476H115.5V92.4476ZM120.974 92.4476H118.237V89.4476H120.974V92.4476ZM134.658 92.4476H131.921V89.4476H134.658V92.4476ZM140.132 92.4476H137.395V89.4476H140.132V92.4476ZM123.426 95.0252V89.5681H126.426V98.0252H118.254V95.0252H123.426ZM93.6054 97.9213H85.3948V94.9213H93.6054V97.9213ZM99.0791 97.9213H96.3423V94.9213H99.0791V97.9213ZM104.553 97.9213H101.816V94.9213H104.553V97.9213ZM110.027 97.9213H107.29V94.9213H110.027V97.9213ZM115.5 97.9213H112.763V94.9213H115.5V97.9213ZM134.658 97.9213H131.921V94.9213H134.658V97.9213ZM140.132 97.9213H137.395V94.9213H140.132V97.9213ZM88.1317 103.395H85.3948V100.395H88.1317V103.395ZM93.6054 103.395H90.8686V100.395H93.6054V103.395ZM99.0791 103.395H96.3423V100.395H99.0791V103.395ZM120.974 103.395H101.816V100.395H120.974V103.395ZM126.448 103.395H123.711V100.395H126.448V103.395ZM134.658 103.395H131.921V100.395H134.658V103.395ZM140.132 103.395H137.395V100.395H140.132V103.395Z" fill="#34485C"/>
<g clip-path="url(#clip0_1048_80665)">
<path d="M144.62 94.76C144.222 94.76 143.841 94.602 143.559 94.3207C143.278 94.0394 143.12 93.6578 143.12 93.26C143.12 92.8622 143.278 92.4806 143.559 92.1993C143.841 91.918 144.222 91.76 144.62 91.76C146.871 91.7501 149.028 90.8516 150.62 89.26C152.22 87.657 153.118 85.4848 153.118 83.22C153.118 80.9552 152.22 78.783 150.62 77.18C149.028 75.5884 146.871 74.6899 144.62 74.68C144.609 74.6853 144.597 74.6881 144.585 74.6881C144.573 74.6881 144.561 74.6853 144.55 74.68H84.82C83.1729 74.6769 81.5636 74.1861 80.195 73.2696C78.8265 72.3531 77.76 71.0518 77.13 69.53C76.6079 68.2625 76.4059 66.8859 76.5419 65.5218C76.6779 64.1577 77.1476 62.8481 77.9096 61.7085C78.6716 60.569 79.7025 59.6346 80.9111 58.9878C82.1198 58.341 83.4691 58.0018 84.84 58C85.2378 58 85.6193 58.158 85.9006 58.4393C86.1819 58.7206 86.34 59.1022 86.34 59.5C86.34 59.8978 86.1819 60.2794 85.9006 60.5607C85.6193 60.842 85.2378 61 84.84 61C83.6116 61.0176 82.4268 61.4574 81.4844 62.2454C80.5421 63.0335 79.8996 64.1219 79.665 65.3278C79.4304 66.5336 79.618 67.7835 80.1961 68.8674C80.7743 69.9513 81.7078 70.8032 82.84 71.28C83.4892 71.5506 84.1866 71.6867 84.89 71.68H144.62C147.681 71.68 150.616 72.8958 152.78 75.06C154.944 77.2242 156.16 80.1594 156.16 83.22C156.16 86.2806 154.944 89.2158 152.78 91.38C150.616 93.5442 147.681 94.76 144.62 94.76Z" fill="black"/>
</g>
<path fill-rule="evenodd" clip-rule="evenodd" d="M87.5 59.5C87.5 58.6716 88.0812 58 88.7981 58H101.202C101.919 58 102.5 58.6716 102.5 59.5C102.5 60.3284 101.919 61 101.202 61H88.7981C88.0812 61 87.5 60.3284 87.5 59.5Z" fill="black"/>
<path opacity="0.146" d="M94.9738 56.7368C92.6995 56.7368 90.8685 58.5678 90.8685 60.8421V63.579C90.8685 65.8533 92.6995 67.6843 94.9738 67.6843H145.606L156.553 62.2105L145.606 56.7368H99.0791H94.9738Z" fill="black"/>
<path d="M96.3423 64.9475V54.0001H145.606V64.9475H96.3423Z" fill="#F05542"/>
<path d="M145.606 64.9474V54L156.553 59.4737L145.606 64.9474ZM99.0791 64.9474H94.9738C92.6995 64.9474 90.8685 63.1165 90.8685 60.8422V58.1053C90.8685 55.8337 92.6995 54 94.9738 54H99.0791V64.9474Z" fill="#E9EDED"/>
<path fill-rule="evenodd" clip-rule="evenodd" d="M96.3423 57.9736H145.606V60.9736H96.3423V57.9736Z" fill="#34485C"/>
<path d="M153.816 60.8421L156.553 59.4737L153.816 58.1052V60.8421Z" fill="#34485C"/>
<path d="M99.0791 64.9475V54.0001H101.816V64.9475H99.0791Z" fill="#34485C"/>
<path d="M70.7202 158.196V155.545H84.6463V158.196H79.2514V173H76.1151V158.196H70.7202ZM90.2798 165.33V173H87.1946V155.545H90.2116V162.134H90.3651C90.6719 161.395 91.1463 160.812 91.7884 160.386C92.4361 159.955 93.2599 159.739 94.2599 159.739C95.169 159.739 95.9616 159.929 96.6378 160.31C97.3139 160.69 97.8366 161.247 98.206 161.98C98.581 162.713 98.7685 163.608 98.7685 164.665V173H95.6832V165.142C95.6832 164.261 95.456 163.577 95.0014 163.088C94.5526 162.594 93.9219 162.347 93.1094 162.347C92.5639 162.347 92.0753 162.466 91.6435 162.705C91.2173 162.937 90.8821 163.276 90.6378 163.719C90.3991 164.162 90.2798 164.699 90.2798 165.33ZM101.913 173V159.909H104.999V173H101.913ZM103.464 158.051C102.976 158.051 102.555 157.889 102.203 157.565C101.851 157.236 101.675 156.841 101.675 156.381C101.675 155.915 101.851 155.52 102.203 155.196C102.555 154.866 102.976 154.702 103.464 154.702C103.959 154.702 104.379 154.866 104.726 155.196C105.078 155.52 105.254 155.915 105.254 156.381C105.254 156.841 105.078 157.236 104.726 157.565C104.379 157.889 103.959 158.051 103.464 158.051ZM113.967 173.256C112.654 173.256 111.521 172.983 110.566 172.438C109.617 171.886 108.887 171.108 108.376 170.102C107.864 169.091 107.609 167.901 107.609 166.531C107.609 165.185 107.864 164.003 108.376 162.986C108.893 161.963 109.614 161.168 110.54 160.599C111.467 160.026 112.555 159.739 113.805 159.739C114.612 159.739 115.373 159.869 116.089 160.131C116.81 160.386 117.447 160.784 117.998 161.324C118.555 161.864 118.992 162.551 119.31 163.386C119.629 164.216 119.788 165.205 119.788 166.352V167.298H109.058V165.219H116.83C116.825 164.628 116.697 164.102 116.447 163.642C116.197 163.176 115.847 162.81 115.398 162.543C114.955 162.276 114.438 162.142 113.847 162.142C113.217 162.142 112.663 162.295 112.185 162.602C111.708 162.903 111.336 163.301 111.069 163.795C110.808 164.284 110.674 164.821 110.668 165.406V167.222C110.668 167.983 110.808 168.636 111.086 169.182C111.364 169.722 111.754 170.136 112.254 170.426C112.754 170.71 113.339 170.852 114.009 170.852C114.458 170.852 114.864 170.79 115.228 170.665C115.592 170.534 115.907 170.344 116.174 170.094C116.441 169.844 116.643 169.534 116.779 169.165L119.66 169.489C119.478 170.25 119.131 170.915 118.62 171.483C118.114 172.045 117.467 172.483 116.677 172.795C115.887 173.102 114.984 173.256 113.967 173.256ZM109.288 158.409L112.739 155.605H114.665L118.134 158.409H115.569L113.719 156.841L111.862 158.409H109.288ZM117.222 156.705L119.114 153.56H121.825L119.191 156.705H117.222ZM128.935 159.909V162.295H121.409V159.909H128.935ZM123.267 156.773H126.352V169.062C126.352 169.477 126.415 169.795 126.54 170.017C126.67 170.233 126.841 170.381 127.051 170.46C127.261 170.54 127.494 170.58 127.75 170.58C127.943 170.58 128.119 170.565 128.278 170.537C128.443 170.509 128.568 170.483 128.653 170.46L129.173 172.872C129.009 172.929 128.773 172.991 128.466 173.06C128.165 173.128 127.795 173.168 127.358 173.179C126.585 173.202 125.889 173.085 125.27 172.83C124.651 172.568 124.159 172.165 123.795 171.619C123.438 171.074 123.261 170.392 123.267 169.574V156.773ZM140.281 168.892L140.272 165.168H140.766L145.471 159.909H149.076L143.289 166.352H142.65L140.281 168.892ZM137.468 173V155.545H140.553V173H137.468ZM145.684 173L141.423 167.043L143.502 164.869L149.374 173H145.684ZM156.388 173.256C155.076 173.256 153.942 172.983 152.988 172.438C152.039 171.886 151.309 171.108 150.798 170.102C150.286 169.091 150.031 167.901 150.031 166.531C150.031 165.185 150.286 164.003 150.798 162.986C151.315 161.963 152.036 161.168 152.962 160.599C153.888 160.026 154.977 159.739 156.227 159.739C157.033 159.739 157.795 159.869 158.511 160.131C159.232 160.386 159.869 160.784 160.42 161.324C160.977 161.864 161.414 162.551 161.732 163.386C162.05 164.216 162.21 165.205 162.21 166.352V167.298H151.479V165.219H159.252C159.246 164.628 159.119 164.102 158.869 163.642C158.619 163.176 158.269 162.81 157.82 162.543C157.377 162.276 156.86 162.142 156.269 162.142C155.638 162.142 155.085 162.295 154.607 162.602C154.13 162.903 153.758 163.301 153.491 163.795C153.229 164.284 153.096 164.821 153.09 165.406V167.222C153.09 167.983 153.229 168.636 153.508 169.182C153.786 169.722 154.175 170.136 154.675 170.426C155.175 170.71 155.761 170.852 156.431 170.852C156.88 170.852 157.286 170.79 157.65 170.665C158.013 170.534 158.329 170.344 158.596 170.094C158.863 169.844 159.065 169.534 159.201 169.165L162.082 169.489C161.9 170.25 161.553 170.915 161.042 171.483C160.536 172.045 159.888 172.483 159.099 172.795C158.309 173.102 157.406 173.256 156.388 173.256ZM151.71 158.409L155.161 155.605H157.087L160.556 158.409H157.991L156.141 156.841L154.283 158.409H151.71ZM159.644 156.705L161.536 153.56H164.246L161.613 156.705H159.644ZM83.5565 205.23C82.5281 205.23 81.6076 204.966 80.7951 204.438C79.9826 203.909 79.3406 203.142 78.869 202.136C78.3974 201.131 78.1616 199.909 78.1616 198.472C78.1616 197.017 78.4002 195.79 78.8775 194.79C79.3604 193.784 80.011 193.026 80.8292 192.514C81.6474 191.997 82.5593 191.739 83.565 191.739C84.332 191.739 84.9627 191.869 85.457 192.131C85.9513 192.386 86.3434 192.696 86.6332 193.06C86.9229 193.418 87.1474 193.756 87.3065 194.074H87.4343V187.545H90.5281V205H87.494V202.938H87.3065C87.1474 203.256 86.9173 203.594 86.6161 203.952C86.315 204.304 85.9173 204.605 85.4229 204.855C84.9286 205.105 84.3065 205.23 83.5565 205.23ZM84.4173 202.699C85.0707 202.699 85.6275 202.523 86.0877 202.17C86.5479 201.812 86.8974 201.315 87.136 200.679C87.3746 200.043 87.494 199.301 87.494 198.455C87.494 197.608 87.3746 196.872 87.136 196.247C86.9031 195.622 86.5565 195.136 86.0962 194.79C85.6417 194.443 85.082 194.27 84.4173 194.27C83.7298 194.27 83.1559 194.449 82.6957 194.807C82.2354 195.165 81.8888 195.659 81.6559 196.29C81.4229 196.92 81.3065 197.642 81.3065 198.455C81.3065 199.273 81.4229 200.003 81.6559 200.645C81.8945 201.281 82.244 201.784 82.7042 202.153C83.1701 202.517 83.7411 202.699 84.4173 202.699ZM83.9741 190.929V188.977H92.1389V190.929H83.9741ZM99.5259 205.256C98.2475 205.256 97.1396 204.974 96.2021 204.412C95.2646 203.849 94.5373 203.062 94.0202 202.051C93.5089 201.04 93.2532 199.858 93.2532 198.506C93.2532 197.153 93.5089 195.969 94.0202 194.952C94.5373 193.935 95.2646 193.145 96.2021 192.582C97.1396 192.02 98.2475 191.739 99.5259 191.739C100.804 191.739 101.912 192.02 102.85 192.582C103.787 193.145 104.512 193.935 105.023 194.952C105.54 195.969 105.799 197.153 105.799 198.506C105.799 199.858 105.54 201.04 105.023 202.051C104.512 203.062 103.787 203.849 102.85 204.412C101.912 204.974 100.804 205.256 99.5259 205.256ZM99.543 202.784C100.236 202.784 100.816 202.594 101.282 202.213C101.748 201.827 102.094 201.31 102.321 200.662C102.554 200.014 102.671 199.293 102.671 198.497C102.671 197.696 102.554 196.972 102.321 196.324C102.094 195.67 101.748 195.151 101.282 194.764C100.816 194.378 100.236 194.185 99.543 194.185C98.8327 194.185 98.2418 194.378 97.7702 194.764C97.3043 195.151 96.9549 195.67 96.7219 196.324C96.4947 196.972 96.381 197.696 96.381 198.497C96.381 199.293 96.4947 200.014 96.7219 200.662C96.9549 201.31 97.3043 201.827 97.7702 202.213C98.2418 202.594 98.8327 202.784 99.543 202.784ZM100.472 187.656L103.932 190.46H101.367L99.5259 188.892L97.6594 190.46H95.1112L98.5373 187.656H100.472ZM94.114 185.602L95.9975 188.756H94.0714L91.4123 185.602H94.114ZM117.456 197.33V205H114.37V187.545H117.387V194.134H117.541C117.848 193.395 118.322 192.812 118.964 192.386C119.612 191.955 120.436 191.739 121.436 191.739C122.345 191.739 123.137 191.929 123.814 192.31C124.49 192.69 125.012 193.247 125.382 193.98C125.757 194.713 125.944 195.608 125.944 196.665V205H122.859V197.142C122.859 196.261 122.632 195.577 122.177 195.088C121.728 194.594 121.098 194.347 120.285 194.347C119.74 194.347 119.251 194.466 118.819 194.705C118.393 194.937 118.058 195.276 117.814 195.719C117.575 196.162 117.456 196.699 117.456 197.33ZM134.799 205.256C133.521 205.256 132.413 204.974 131.475 204.412C130.538 203.849 129.811 203.062 129.294 202.051C128.782 201.04 128.527 199.858 128.527 198.506C128.527 197.153 128.782 195.969 129.294 194.952C129.811 193.935 130.538 193.145 131.475 192.582C132.413 192.02 133.521 191.739 134.799 191.739C136.078 191.739 137.186 192.02 138.123 192.582C139.061 193.145 139.785 193.935 140.297 194.952C140.814 195.969 141.072 197.153 141.072 198.506C141.072 199.858 140.814 201.04 140.297 202.051C139.785 203.062 139.061 203.849 138.123 204.412C137.186 204.974 136.078 205.256 134.799 205.256ZM134.816 202.784C135.51 202.784 136.089 202.594 136.555 202.213C137.021 201.827 137.368 201.31 137.595 200.662C137.828 200.014 137.944 199.293 137.944 198.497C137.944 197.696 137.828 196.972 137.595 196.324C137.368 195.67 137.021 195.151 136.555 194.764C136.089 194.378 135.51 194.185 134.816 194.185C134.106 194.185 133.515 194.378 133.044 194.764C132.578 195.151 132.228 195.67 131.995 196.324C131.768 196.972 131.654 197.696 131.654 198.497C131.654 199.293 131.768 200.014 131.995 200.662C132.228 201.31 132.578 201.827 133.044 202.213C133.515 202.594 134.106 202.784 134.816 202.784ZM147.458 205.264C146.628 205.264 145.881 205.116 145.216 204.821C144.557 204.52 144.034 204.077 143.648 203.491C143.267 202.906 143.077 202.185 143.077 201.327C143.077 200.588 143.213 199.977 143.486 199.494C143.759 199.011 144.131 198.625 144.603 198.335C145.074 198.045 145.605 197.827 146.196 197.679C146.793 197.526 147.409 197.415 148.046 197.347C148.813 197.267 149.435 197.196 149.912 197.134C150.39 197.065 150.736 196.963 150.952 196.827C151.174 196.685 151.284 196.466 151.284 196.17V196.119C151.284 195.477 151.094 194.98 150.713 194.628C150.333 194.276 149.784 194.099 149.069 194.099C148.313 194.099 147.713 194.264 147.27 194.594C146.833 194.923 146.537 195.312 146.384 195.761L143.503 195.352C143.73 194.557 144.105 193.892 144.628 193.358C145.151 192.818 145.79 192.415 146.546 192.148C147.301 191.875 148.137 191.739 149.051 191.739C149.682 191.739 150.31 191.812 150.935 191.96C151.56 192.108 152.131 192.352 152.648 192.693C153.165 193.028 153.58 193.486 153.892 194.065C154.211 194.645 154.37 195.369 154.37 196.239V205H151.404V203.202H151.301C151.114 203.565 150.85 203.906 150.509 204.224C150.174 204.537 149.75 204.79 149.239 204.983C148.733 205.17 148.14 205.264 147.458 205.264ZM148.259 202.997C148.878 202.997 149.415 202.875 149.87 202.631C150.324 202.381 150.674 202.051 150.918 201.642C151.168 201.233 151.293 200.787 151.293 200.304V198.761C151.196 198.841 151.032 198.915 150.799 198.983C150.571 199.051 150.316 199.111 150.032 199.162C149.748 199.213 149.466 199.259 149.188 199.298C148.909 199.338 148.668 199.372 148.463 199.401C148.003 199.463 147.591 199.565 147.228 199.707C146.864 199.849 146.577 200.048 146.367 200.304C146.157 200.554 146.051 200.878 146.051 201.276C146.051 201.844 146.259 202.273 146.674 202.562C147.088 202.852 147.617 202.997 148.259 202.997ZM149.069 209.713C148.574 209.713 148.151 209.548 147.799 209.219C147.452 208.889 147.279 208.494 147.279 208.034C147.279 207.574 147.452 207.179 147.799 206.849C148.151 206.52 148.571 206.355 149.06 206.355C149.554 206.355 149.975 206.52 150.321 206.849C150.674 207.179 150.85 207.574 150.85 208.034C150.85 208.494 150.674 208.889 150.321 209.219C149.975 209.548 149.557 209.713 149.069 209.713Z" fill="#44403C"/>
<defs>
<clipPath id="clip0_1048_80665">
<rect width="79.63" height="36.76" fill="white" transform="translate(76.5 58)"/>
</clipPath>
</defs>
</svg>
