<svg width="233" height="244" viewBox="0 0 233 244" fill="none" xmlns="http://www.w3.org/2000/svg">
<rect width="233" height="244" fill="#FAFAF9"/>
<g clip-path="url(#clip0_1048_80804)">
<path d="M79 47.5H154C155.382 47.5 156.5 48.7125 156.5 50.21V109.79C156.5 111.29 155.382 112.5 154 112.5H79C77.6175 112.5 76.5 111.288 76.5 109.79V50.21C76.5 48.715 77.6175 47.5 79 47.5Z" fill="#373449"/>
<path d="M81.345 57.5H151.658C152.953 57.5 154.003 58.48 154.003 59.6875V107.812C154.003 109.02 152.953 110 151.658 110H81.345C80.05 110 79 109.02 79 107.812V59.6875C79 58.48 80.05 57.5 81.345 57.5Z" fill="#F7F7F8"/>
<path d="M151.5 52.5C151.5 53.163 151.237 53.7989 150.768 54.2678C150.299 54.7366 149.663 55 149 55C148.337 55 147.701 54.7366 147.232 54.2678C146.763 53.7989 146.5 53.163 146.5 52.5C146.5 51.837 146.763 51.2011 147.232 50.7322C147.701 50.2634 148.337 50 149 50C149.663 50 150.299 50.2634 150.768 50.7322C151.237 51.2011 151.5 51.837 151.5 52.5Z" fill="#EF4C45"/>
<path d="M144 52.5C144 53.163 143.737 53.7989 143.268 54.2678C142.799 54.7366 142.163 55 141.5 55C140.837 55 140.201 54.7366 139.732 54.2678C139.263 53.7989 139 53.163 139 52.5C139 51.837 139.263 51.2011 139.732 50.7322C140.201 50.2634 140.837 50 141.5 50C142.163 50 142.799 50.2634 143.268 50.7322C143.737 51.2011 144 51.837 144 52.5ZM136.5 52.5C136.5 53.163 136.237 53.7989 135.768 54.2678C135.299 54.7366 134.663 55 134 55C133.337 55 132.701 54.7366 132.232 54.2678C131.763 53.7989 131.5 53.163 131.5 52.5C131.5 51.837 131.763 51.2011 132.232 50.7322C132.701 50.2634 133.337 50 134 50C134.663 50 135.299 50.2634 135.768 50.7322C136.237 51.2011 136.5 51.837 136.5 52.5Z" fill="#EFF0F2"/>
<path fill-rule="evenodd" clip-rule="evenodd" d="M83.98 62.54H148.98V105.04H83.98V62.54Z" fill="#FFD42A"/>
<path d="M102.73 75.04C101.074 75.044 99.4862 75.7038 98.315 76.875C97.1437 78.0462 96.484 79.6337 96.48 81.29V92.54H98.98V85.04H106.48V92.54H108.98V81.29C108.98 77.85 106.17 75.04 102.73 75.04ZM111.48 75.04V92.54H119.058C120.36 92.5309 121.607 92.0093 122.528 91.0881C123.449 90.167 123.971 88.9202 123.98 87.6175V79.9625C123.971 78.6598 123.449 77.4131 122.528 76.4919C121.607 75.5708 120.36 75.0492 119.058 75.04H111.48ZM131.48 75.04C128.73 75.04 126.48 77.29 126.48 80.04C126.48 82.79 128.73 85.04 131.48 85.04H131.638C132.275 85.073 132.876 85.3518 133.313 85.8179C133.749 86.284 133.989 86.9013 133.98 87.54C133.98 88.9475 132.888 90.04 131.48 90.04H126.48V92.54H131.48C134.23 92.54 136.48 90.29 136.48 87.54C136.476 86.2423 135.969 84.9967 135.066 84.0645C134.163 83.1323 132.934 82.5859 131.638 82.54H131.48C130.073 82.54 128.98 81.4475 128.98 80.04C128.98 78.6325 130.073 77.54 131.48 77.54H136.48V75.04H131.48ZM102.73 77.54C104.83 77.54 106.48 79.19 106.48 81.29V82.54H98.98V81.29C98.98 79.19 100.63 77.54 102.73 77.54ZM113.98 77.54H119.058C120.408 77.54 121.48 78.615 121.48 79.9625V87.6175C121.48 88.9675 120.405 90.04 119.058 90.04H113.98V77.54Z" fill="#373449"/>
</g>
<path d="M86.4158 167.136H89.2795L90.9755 169.335L92.1857 170.767L95.092 174.5H92.0238L90.0465 171.994L89.2028 170.801L86.4158 167.136ZM95.5096 164.273C95.5096 166.153 95.1573 167.764 94.4528 169.105C93.7539 170.44 92.7994 171.463 91.5891 172.173C90.3846 172.884 89.0181 173.239 87.4897 173.239C85.9613 173.239 84.592 172.884 83.3817 172.173C82.1772 171.457 81.2227 170.432 80.5181 169.097C79.8192 167.756 79.4698 166.148 79.4698 164.273C79.4698 162.392 79.8192 160.784 80.5181 159.449C81.2227 158.108 82.1772 157.082 83.3817 156.372C84.592 155.662 85.9613 155.307 87.4897 155.307C89.0181 155.307 90.3846 155.662 91.5891 156.372C92.7994 157.082 93.7539 158.108 94.4528 159.449C95.1573 160.784 95.5096 162.392 95.5096 164.273ZM92.3306 164.273C92.3306 162.949 92.1232 161.832 91.7085 160.923C91.2994 160.009 90.7312 159.318 90.0039 158.852C89.2766 158.381 88.4386 158.145 87.4897 158.145C86.5408 158.145 85.7028 158.381 84.9755 158.852C84.2482 159.318 83.6772 160.009 83.2624 160.923C82.8533 161.832 82.6488 162.949 82.6488 164.273C82.6488 165.597 82.8533 166.716 83.2624 167.631C83.6772 168.54 84.2482 169.23 84.9755 169.702C85.7028 170.168 86.5408 170.401 87.4897 170.401C88.4386 170.401 89.2766 170.168 90.0039 169.702C90.7312 169.23 91.2994 168.54 91.7085 167.631C92.1232 166.716 92.3306 165.597 92.3306 164.273ZM106.73 167.494V159.909H109.815V173H106.824V170.673H106.687C106.392 171.406 105.906 172.006 105.23 172.472C104.559 172.937 103.733 173.17 102.75 173.17C101.892 173.17 101.133 172.98 100.474 172.599C99.8207 172.213 99.3093 171.653 98.94 170.92C98.5707 170.182 98.386 169.29 98.386 168.244V159.909H101.471V167.767C101.471 168.597 101.699 169.256 102.153 169.744C102.608 170.233 103.204 170.477 103.943 170.477C104.397 170.477 104.838 170.366 105.264 170.145C105.69 169.923 106.039 169.594 106.312 169.156C106.591 168.713 106.73 168.159 106.73 167.494ZM116.755 173.264C115.925 173.264 115.178 173.116 114.513 172.821C113.854 172.52 113.331 172.077 112.945 171.491C112.564 170.906 112.374 170.185 112.374 169.327C112.374 168.588 112.51 167.977 112.783 167.494C113.056 167.011 113.428 166.625 113.9 166.335C114.371 166.045 114.902 165.827 115.493 165.679C116.09 165.526 116.706 165.415 117.343 165.347C118.11 165.267 118.732 165.196 119.209 165.134C119.686 165.065 120.033 164.963 120.249 164.827C120.471 164.685 120.581 164.466 120.581 164.17V164.119C120.581 163.477 120.391 162.98 120.01 162.628C119.63 162.276 119.081 162.099 118.365 162.099C117.61 162.099 117.01 162.264 116.567 162.594C116.13 162.923 115.834 163.312 115.681 163.761L112.8 163.352C113.027 162.557 113.402 161.892 113.925 161.358C114.448 160.818 115.087 160.415 115.843 160.148C116.598 159.875 117.434 159.739 118.348 159.739C118.979 159.739 119.607 159.812 120.232 159.96C120.857 160.108 121.428 160.352 121.945 160.693C122.462 161.028 122.877 161.486 123.189 162.065C123.507 162.645 123.667 163.369 123.667 164.239V173H120.701V171.202H120.598C120.411 171.565 120.147 171.906 119.806 172.224C119.471 172.537 119.047 172.79 118.536 172.983C118.03 173.17 117.436 173.264 116.755 173.264ZM117.556 170.997C118.175 170.997 118.712 170.875 119.167 170.631C119.621 170.381 119.971 170.051 120.215 169.642C120.465 169.233 120.59 168.787 120.59 168.304V166.761C120.493 166.841 120.328 166.915 120.096 166.983C119.868 167.051 119.613 167.111 119.328 167.162C119.044 167.213 118.763 167.259 118.485 167.298C118.206 167.338 117.965 167.372 117.76 167.401C117.3 167.463 116.888 167.565 116.525 167.707C116.161 167.849 115.874 168.048 115.664 168.304C115.453 168.554 115.348 168.878 115.348 169.276C115.348 169.844 115.556 170.273 115.971 170.562C116.385 170.852 116.914 170.997 117.556 170.997ZM119.669 158.068H117.317L117.198 156.432C117.8 156.409 118.226 156.332 118.476 156.202C118.726 156.065 118.848 155.878 118.843 155.639C118.848 155.332 118.684 155.119 118.348 155C118.013 154.881 117.598 154.821 117.104 154.821L117.181 153.295C118.59 153.295 119.658 153.5 120.385 153.909C121.113 154.318 121.473 154.875 121.468 155.58C121.473 156.119 121.289 156.523 120.914 156.79C120.539 157.051 120.124 157.216 119.669 157.284V158.068ZM129.854 165.33V173H126.769V159.909H129.718V162.134H129.871C130.172 161.401 130.652 160.818 131.311 160.386C131.976 159.955 132.797 159.739 133.775 159.739C134.678 159.739 135.465 159.932 136.135 160.318C136.811 160.705 137.334 161.264 137.703 161.997C138.078 162.73 138.263 163.619 138.257 164.665V173H135.172V165.142C135.172 164.267 134.945 163.582 134.49 163.088C134.042 162.594 133.419 162.347 132.624 162.347C132.084 162.347 131.604 162.466 131.184 162.705C130.769 162.937 130.442 163.276 130.203 163.719C129.971 164.162 129.854 164.699 129.854 165.33ZM147.087 178.182C145.979 178.182 145.027 178.031 144.232 177.73C143.436 177.435 142.797 177.037 142.314 176.537C141.831 176.037 141.496 175.483 141.309 174.875L144.087 174.202C144.212 174.457 144.394 174.71 144.632 174.96C144.871 175.216 145.192 175.426 145.596 175.591C146.005 175.761 146.519 175.847 147.138 175.847C148.013 175.847 148.738 175.634 149.311 175.207C149.885 174.787 150.172 174.094 150.172 173.128V170.648H150.019C149.86 170.966 149.627 171.293 149.32 171.628C149.019 171.963 148.618 172.244 148.118 172.472C147.624 172.699 147.002 172.812 146.252 172.812C145.246 172.812 144.334 172.577 143.516 172.105C142.703 171.628 142.056 170.918 141.573 169.974C141.096 169.026 140.857 167.838 140.857 166.412C140.857 164.974 141.096 163.761 141.573 162.773C142.056 161.778 142.706 161.026 143.525 160.514C144.343 159.997 145.255 159.739 146.26 159.739C147.027 159.739 147.658 159.869 148.152 160.131C148.652 160.386 149.05 160.696 149.346 161.06C149.641 161.418 149.865 161.756 150.019 162.074H150.189V159.909H153.232V173.213C153.232 174.332 152.965 175.259 152.431 175.991C151.897 176.724 151.167 177.273 150.24 177.636C149.314 178 148.263 178.182 147.087 178.182ZM147.113 170.392C147.766 170.392 148.323 170.233 148.783 169.915C149.243 169.597 149.593 169.139 149.831 168.543C150.07 167.946 150.189 167.23 150.189 166.395C150.189 165.571 150.07 164.849 149.831 164.23C149.598 163.611 149.252 163.131 148.792 162.79C148.337 162.443 147.777 162.27 147.113 162.27C146.425 162.27 145.851 162.449 145.391 162.807C144.931 163.165 144.584 163.656 144.351 164.281C144.118 164.901 144.002 165.605 144.002 166.395C144.002 167.196 144.118 167.898 144.351 168.5C144.59 169.097 144.939 169.562 145.4 169.898C145.865 170.227 146.436 170.392 147.113 170.392ZM102.678 205.256C101.371 205.256 100.249 204.969 99.3118 204.395C98.38 203.821 97.6612 203.028 97.1555 202.017C96.6555 201 96.4055 199.83 96.4055 198.506C96.4055 197.176 96.6612 196.003 97.1726 194.986C97.6839 193.963 98.4055 193.168 99.3374 192.599C100.275 192.026 101.383 191.739 102.661 191.739C103.724 191.739 104.664 191.935 105.482 192.327C106.306 192.713 106.962 193.261 107.451 193.972C107.94 194.676 108.218 195.5 108.286 196.443H105.337C105.218 195.812 104.934 195.287 104.485 194.866C104.042 194.44 103.448 194.227 102.704 194.227C102.073 194.227 101.519 194.398 101.042 194.739C100.565 195.074 100.192 195.557 99.9254 196.188C99.6641 196.818 99.5334 197.574 99.5334 198.455C99.5334 199.347 99.6641 200.114 99.9254 200.756C100.187 201.392 100.553 201.884 101.025 202.23C101.502 202.571 102.062 202.741 102.704 202.741C103.158 202.741 103.565 202.656 103.923 202.486C104.286 202.31 104.59 202.057 104.835 201.727C105.079 201.398 105.246 200.997 105.337 200.526H108.286C108.212 201.452 107.94 202.273 107.468 202.989C106.996 203.699 106.354 204.256 105.542 204.659C104.729 205.057 103.775 205.256 102.678 205.256ZM114.587 205.264C113.757 205.264 113.01 205.116 112.345 204.821C111.686 204.52 111.163 204.077 110.777 203.491C110.396 202.906 110.206 202.185 110.206 201.327C110.206 200.588 110.342 199.977 110.615 199.494C110.888 199.011 111.26 198.625 111.732 198.335C112.203 198.045 112.734 197.827 113.325 197.679C113.922 197.526 114.538 197.415 115.175 197.347C115.942 197.267 116.564 197.196 117.041 197.134C117.518 197.065 117.865 196.963 118.081 196.827C118.303 196.685 118.413 196.466 118.413 196.17V196.119C118.413 195.477 118.223 194.98 117.842 194.628C117.462 194.276 116.913 194.099 116.197 194.099C115.442 194.099 114.842 194.264 114.399 194.594C113.962 194.923 113.666 195.312 113.513 195.761L110.632 195.352C110.859 194.557 111.234 193.892 111.757 193.358C112.28 192.818 112.919 192.415 113.675 192.148C114.43 191.875 115.266 191.739 116.18 191.739C116.811 191.739 117.439 191.812 118.064 191.96C118.689 192.108 119.26 192.352 119.777 192.693C120.294 193.028 120.709 193.486 121.021 194.065C121.339 194.645 121.499 195.369 121.499 196.239V205H118.533V203.202H118.43C118.243 203.565 117.979 203.906 117.638 204.224C117.303 204.537 116.879 204.79 116.368 204.983C115.862 205.17 115.268 205.264 114.587 205.264ZM115.388 202.997C116.007 202.997 116.544 202.875 116.999 202.631C117.453 202.381 117.803 202.051 118.047 201.642C118.297 201.233 118.422 200.787 118.422 200.304V198.761C118.325 198.841 118.161 198.915 117.928 198.983C117.7 199.051 117.445 199.111 117.161 199.162C116.876 199.213 116.595 199.259 116.317 199.298C116.038 199.338 115.797 199.372 115.592 199.401C115.132 199.463 114.72 199.565 114.357 199.707C113.993 199.849 113.706 200.048 113.496 200.304C113.286 200.554 113.18 200.878 113.18 201.276C113.18 201.844 113.388 202.273 113.803 202.562C114.217 202.852 114.746 202.997 115.388 202.997ZM115.132 190.188L117.041 186.293H120.058L117.442 190.188H115.132ZM130.311 205.256C129.033 205.256 127.925 204.974 126.987 204.412C126.05 203.849 125.322 203.062 124.805 202.051C124.294 201.04 124.038 199.858 124.038 198.506C124.038 197.153 124.294 195.969 124.805 194.952C125.322 193.935 126.05 193.145 126.987 192.582C127.925 192.02 129.033 191.739 130.311 191.739C131.589 191.739 132.697 192.02 133.635 192.582C134.572 193.145 135.297 193.935 135.808 194.952C136.325 195.969 136.584 197.153 136.584 198.506C136.584 199.858 136.325 201.04 135.808 202.051C135.297 203.062 134.572 203.849 133.635 204.412C132.697 204.974 131.589 205.256 130.311 205.256ZM130.328 202.784C131.021 202.784 131.601 202.594 132.067 202.213C132.533 201.827 132.879 201.31 133.107 200.662C133.339 200.014 133.456 199.293 133.456 198.497C133.456 197.696 133.339 196.972 133.107 196.324C132.879 195.67 132.533 195.151 132.067 194.764C131.601 194.378 131.021 194.185 130.328 194.185C129.618 194.185 129.027 194.378 128.555 194.764C128.089 195.151 127.74 195.67 127.507 196.324C127.28 196.972 127.166 197.696 127.166 198.497C127.166 199.293 127.28 200.014 127.507 200.662C127.74 201.31 128.089 201.827 128.555 202.213C129.027 202.594 129.618 202.784 130.328 202.784Z" fill="#44403C"/>
<defs>
<clipPath id="clip0_1048_80804">
<rect width="80" height="80" fill="white" transform="translate(76.5 40)"/>
</clipPath>
</defs>
</svg>
